<?xml version="1.0" standalone="no"?>
<!DOCTYPE svg PUBLIC "-//W3C//DTD SVG 1.1//EN" "http://www.w3.org/Graphics/SVG/1.1/DTD/svg11.dtd" >
<svg xmlns="http://www.w3.org/2000/svg" xmlns:xlink="http://www.w3.org/1999/xlink" version="1.1">
<metadata>
Created by FontForge 20170731 at Wed Jun 24 20:56:05 2020
 By Aleksey,,,
Copyright 2020 The Encode Project Authors (https://github.com/thundernixon/Encode-Sans), with Reserved Font Name 'Encode Sans'.
</metadata>
<defs>
<font id="EncodeSansSCExpanded-Black" horiz-adv-x="0" >
  <font-face 
    font-family="Encode Sans SC Expanded Black"
    font-weight="900"
    font-stretch="expanded"
    units-per-em="2000"
    panose-1="0 0 0 0 0 0 0 0 0 0"
    ascent="1600"
    descent="-400"
    x-height="1190"
    cap-height="1480"
    bbox="-380 -520 3482 2330"
    underline-thickness="50"
    underline-position="-175"
    unicode-range="U+000D-25CA"
  />
<missing-glyph horiz-adv-x="1214" 
d="M607 -10q-114 0 -214.5 5.5t-216.5 20.5v1438q99 21 216.5 30.5t214.5 9.5t214.5 -9.5t216.5 -30.5v-1438q-116 -15 -216.5 -20.5t-214.5 -5.5zM607 1428q-85 0 -174 -7t-189 -21v-1322q65 -10 153.5 -16t209.5 -6t210 6t153 16v1322q-184 28 -363 28zM941 49l-335 635
l-35 64l-349 659l54 26l330 -623l35 -62l357 -674zM271 49l-57 25l357 674l35 62l330 623l54 -26l-349 -659l-35 -64z" />
    <glyph glyph-name=".notdef" horiz-adv-x="1214" 
d="M607 -10q-114 0 -214.5 5.5t-216.5 20.5v1438q99 21 216.5 30.5t214.5 9.5t214.5 -9.5t216.5 -30.5v-1438q-116 -15 -216.5 -20.5t-214.5 -5.5zM607 1428q-85 0 -174 -7t-189 -21v-1322q65 -10 153.5 -16t209.5 -6t210 6t153 16v1322q-184 28 -363 28zM941 49l-335 635
l-35 64l-349 659l54 26l330 -623l35 -62l357 -674zM271 49l-57 25l357 674l35 62l330 623l54 -26l-349 -659l-35 -64z" />
    <glyph glyph-name=".null" 
 />
    <glyph glyph-name="nonmarkingreturn" horiz-adv-x="666" 
 />
    <glyph glyph-name="NULL" 
 />
    <glyph glyph-name="NULL" 
 />
    <glyph glyph-name="CR" unicode="&#xd;" horiz-adv-x="584" 
 />
    <glyph glyph-name="space" unicode=" " horiz-adv-x="584" 
 />
    <glyph glyph-name="exclam" unicode="!" horiz-adv-x="736" 
d="M232 532l-108 464v484h488v-484l-102 -464h-278zM368 -20q-136 0 -213 63.5t-77 172.5q0 110 75.5 173t214.5 63q140 0 215 -64.5t75 -171.5q0 -106 -76.5 -171t-213.5 -65z" />
    <glyph glyph-name="quotedbl" unicode="&#x22;" horiz-adv-x="1130" 
d="M150 784l-80 832h440l-80 -832h-280zM700 784l-80 832h440l-80 -832h-280z" />
    <glyph glyph-name="numbersign" unicode="#" horiz-adv-x="1440" 
d="M702 0l184 1480h354l-184 -1480h-354zM110 320v346h1220v-346h-1220zM200 0l184 1480h354l-184 -1480h-354zM110 814v346h1220v-346h-1220z" />
    <glyph glyph-name="dollar" unicode="$" horiz-adv-x="1378" 
d="M604 -20q-142 0 -266.5 18t-231.5 46v368q70 -22 161.5 -37.5t180.5 -24t152 -8.5q103 0 156.5 12.5t72.5 35t19 52.5q0 39 -31 61t-135 41l-144 28q-256 50 -365 160t-109 288q0 231 187 355.5t569 124.5q119 0 224 -12t184 -30v-368q-75 21 -182 34.5t-202 13.5
q-128 0 -196 -13.5t-93 -36.5t-25 -52q0 -34 26 -53.5t108 -36.5l144 -28q187 -36 298 -98t159.5 -150.5t48.5 -203.5q0 -150 -85 -259t-244 -168t-381 -59zM468 -240v300h440v-300h-440zM468 1420v300h440v-300h-440z" />
    <glyph glyph-name="percent" unicode="%" horiz-adv-x="2520" 
d="M710 0l722 1480h378l-722 -1480h-378zM574 566q-143 0 -252 55.5t-170.5 160t-61.5 250.5t61.5 251t170.5 161t252 56t252 -56t170.5 -161t61.5 -251t-61.5 -250.5t-170.5 -160t-252 -55.5zM574 838q38 0 68.5 19.5t48 62.5t17.5 112t-17.5 112t-48 63.5t-68.5 20.5
t-68.5 -20.5t-48 -63.5t-17.5 -112t17.5 -112t48 -62.5t68.5 -19.5zM1946 -18q-143 0 -252 55.5t-170.5 160t-61.5 250.5t61.5 251t170.5 161t252 56t252 -56t170.5 -161t61.5 -251t-61.5 -250.5t-170.5 -160t-252 -55.5zM1946 254q38 0 68.5 19.5t48 62.5t17.5 112
t-17.5 112.5t-48 63.5t-68.5 20t-68.5 -20t-48 -63.5t-17.5 -112.5t17.5 -112t48 -62.5t68.5 -19.5z" />
    <glyph glyph-name="ampersand.sc" unicode="&#x26;" horiz-adv-x="1608" 
d="M1442 -16l-890 428q-147 71 -226.5 138t-109.5 132t-30 130q0 183 165.5 288.5t510.5 105.5q74 0 137 -4t123 -10v-344q-46 8 -108.5 14t-119.5 6q-105 0 -158.5 -10.5t-71.5 -28t-18 -37.5q0 -12 8.5 -24t24.5 -23.5t39 -22.5l890 -428zM678 -14q-297 0 -449.5 92.5
t-152.5 249.5q0 79 39 140.5t101.5 102t133.5 55.5l216 -138q-22 -24 -37 -51t-15 -65q0 -34 20 -60t69 -41t135 -15q147 0 229.5 73.5t82.5 232.5q0 42 -7 93t-19 97h334q12 -46 18 -95.5t6 -90.5q0 -291 -186 -435.5t-518 -144.5z" />
    <glyph glyph-name="quotesingle" unicode="'" horiz-adv-x="580" 
d="M150 784l-80 832h440l-80 -832h-280z" />
    <glyph glyph-name="parenleft.sc" unicode="(" horiz-adv-x="834" 
d="M416 -240q-116 119 -184.5 259t-98 292.5t-29.5 308.5t29.5 308.5t98 292.5t184.5 259h474q-172 -198 -245 -407.5t-73 -452.5t73 -452.5t245 -407.5h-474z" />
    <glyph glyph-name="parenright.sc" unicode=")" horiz-adv-x="834" 
d="M418 -240h-474q173 198 245.5 407.5t72.5 452.5t-72.5 452.5t-245.5 407.5h474q116 -119 184.5 -259t98 -292.5t29.5 -308.5t-29.5 -308.5t-98 -292.5t-184.5 -259z" />
    <glyph glyph-name="asterisk" unicode="*" horiz-adv-x="1116" 
d="M734 1106l132 -114l88 -124l-230 -166l-88 122l-78 188l-78 -188l-88 -122l-230 166l88 124l132 114l-166 14l-186 60l88 270l186 -60l154 -96l-42 178v144h284v-144l-42 -178l154 96l186 60l88 -270l-186 -60z" />
    <glyph glyph-name="plus" unicode="+" horiz-adv-x="1196" 
d="M420 270v320h-306v340h306v320h356v-320h306v-340h-306v-320h-356z" />
    <glyph glyph-name="comma" unicode="," horiz-adv-x="696" 
d="M168 -360q63 116 97.5 214t34.5 198l104 -72h-56q-136 0 -213 69t-77 187q0 119 74.5 187.5t209.5 68.5q144 0 218 -83.5t74 -248.5q0 -138 -56 -275.5t-152 -244.5h-258z" />
    <glyph glyph-name="hyphen" unicode="-" horiz-adv-x="1150" 
d="M114 384v372h922v-372h-922z" />
    <glyph glyph-name="period" unicode="." horiz-adv-x="696" 
d="M349 -20q-137 0 -214 69t-77 187q0 119 75.5 187.5t215.5 68.5q139 0 214 -70t75 -186q0 -115 -76.5 -185.5t-212.5 -70.5z" />
    <glyph glyph-name="slash" unicode="/" horiz-adv-x="1058" 
d="M0 -240l592 1856h466l-592 -1856h-466z" />
    <glyph glyph-name="zero" unicode="0" horiz-adv-x="1574" 
d="M786 -20q-211 0 -366.5 85.5t-240.5 254.5t-85 420t85 420t240.5 254.5t366.5 85.5t367 -85.5t241.5 -254.5t85.5 -420t-85.5 -420t-241.5 -254.5t-367 -85.5zM788 358q71 0 122.5 35t79.5 118.5t28 228.5t-28 228.5t-79.5 118.5t-122.5 35q-72 0 -124 -35t-80 -118.5
t-28 -228.5t27 -228.5t79 -118.5t126 -35z" />
    <glyph glyph-name="one" unicode="1" horiz-adv-x="1072" 
d="M456 0v1244l156 -196l-562 -404v438l562 404h320v-1486h-476z" />
    <glyph glyph-name="two" unicode="2" horiz-adv-x="1282" 
d="M48 0v242l478 492q62 63 98 109t51 82.5t15 70.5q0 71 -56 106.5t-208 35.5q-108 0 -216 -20t-180 -46v368q50 15 124 29t155.5 22.5t152.5 8.5q365 0 529.5 -111.5t164.5 -338.5q0 -77 -22.5 -150t-73.5 -148t-136 -158l-356 -346v120h660v-368h-1180z" />
    <glyph glyph-name="three" unicode="3" horiz-adv-x="1290" 
d="M530 -20q-135 0 -254.5 15t-221.5 39v330q95 -22 213 -39t235 -17q155 0 217.5 38.5t62.5 105.5q0 68 -56.5 103t-215.5 35h-302v330h258q147 0 197.5 33t50.5 87q0 62 -55 97t-187 35q-94 0 -200 -16.5t-192 -45.5v330q54 17 128 30.5t154.5 21.5t153.5 8
q333 0 491.5 -111.5t158.5 -312.5q0 -120 -72 -205.5t-194 -114.5v12q144 -24 232 -106.5t88 -237.5q0 -134 -70 -234t-222 -155t-398 -55z" />
    <glyph glyph-name="four" unicode="4" horiz-adv-x="1492" 
d="M34 256v250l522 974h454l-518 -974l-36 110h1004v-360h-1426zM836 0v616l40 364h386v-980h-426z" />
    <glyph glyph-name="five" unicode="5" horiz-adv-x="1302" 
d="M554 -20q-135 0 -254.5 17.5t-221.5 44.5v330q95 -22 213 -39t235 -17q155 0 217.5 37.5t62.5 100.5q0 45 -32 76.5t-122.5 51t-267.5 28.5l-260 12l58 858h998v-336h-762l198 196l-40 -546l-320 152l260 -12q269 -12 429 -70t230.5 -160t70.5 -246q0 -226 -167.5 -352
t-524.5 -126z" />
    <glyph glyph-name="six" unicode="6" horiz-adv-x="1472" 
d="M794 -20q-154 0 -281 44.5t-218.5 132.5t-141 219.5t-49.5 305.5q0 259 94.5 442t281 279.5t462.5 96.5q110 0 201.5 -12t178.5 -44v-338q-78 29 -169 43.5t-177 14.5q-146 0 -238 -42.5t-135 -119.5t-43 -180v-206q0 -92 16 -154t46.5 -98.5t73.5 -52t98 -15.5
q61 0 104 17.5t65.5 51.5t22.5 83q0 54 -25 88.5t-71.5 51t-111.5 16.5q-51 0 -100 -9t-94.5 -27t-87.5 -44v294q62 47 167 74.5t213 27.5q158 0 278.5 -48t188 -150t67.5 -264q0 -140 -70 -248t-207.5 -169t-338.5 -61z" />
    <glyph glyph-name="seven" unicode="7" horiz-adv-x="1224" 
d="M202 0l518 1238l152 -126h-860v368h1154v-242l-482 -1238h-482z" />
    <glyph glyph-name="eight" unicode="8" horiz-adv-x="1574" 
d="M788 -20q-261 0 -416 51t-222.5 136.5t-67.5 190.5q0 131 92 226.5t264 137.5l300 -92q-123 -37 -169.5 -93.5t-46.5 -110.5q0 -66 62 -104t206 -38t202 32t58 86q0 41 -28 72t-106 58.5t-228 57.5q-216 43 -339 114t-174 162.5t-51 197.5q0 124 73 222.5t228 156
t401 57.5q303 0 461.5 -98t158.5 -272q0 -75 -30 -144t-102.5 -125t-199.5 -93l-266 98q105 48 147.5 99.5t42.5 106.5q0 57 -53 90.5t-173 33.5q-141 0 -193.5 -35t-52.5 -77q0 -38 24.5 -67.5t102 -58t237.5 -64.5q217 -49 338 -116t169.5 -153t48.5 -193
q0 -120 -70.5 -223t-224 -166t-403.5 -63z" />
    <glyph glyph-name="nine" unicode="9" horiz-adv-x="1472" 
d="M678 1500q154 0 281 -44.5t218.5 -132.5t141 -219.5t49.5 -305.5q0 -259 -94.5 -442t-281 -279.5t-462.5 -96.5q-110 0 -201.5 12t-178.5 44v338q78 -29 169 -43.5t177 -14.5q146 0 238 42.5t135 119.5t43 180v206q0 92 -16 154t-46.5 98.5t-73.5 52t-98 15.5
q-61 0 -104 -17.5t-65.5 -51.5t-22.5 -83q0 -54 25 -88.5t71.5 -51t111.5 -16.5q51 0 100 9t94.5 27t87.5 44v-294q-62 -47 -167 -74.5t-213 -27.5q-158 0 -278.5 48t-188 150t-67.5 264q0 140 70 248t207.5 169t338.5 61z" />
    <glyph glyph-name="colon" unicode=":" horiz-adv-x="696" 
d="M349 -20q-137 0 -214 69t-77 187q0 119 75.5 187.5t215.5 68.5q139 0 214 -70t75 -186q0 -115 -76.5 -185.5t-212.5 -70.5zM349 608q-137 0 -214 69t-77 187q0 119 75.5 187.5t215.5 68.5q139 0 214 -70t75 -186q0 -115 -76.5 -185.5t-212.5 -70.5z" />
    <glyph glyph-name="semicolon" unicode=";" horiz-adv-x="696" 
d="M168 -360q63 116 97.5 214t34.5 198l104 -72h-56q-136 0 -213 69t-77 187q0 119 74.5 187.5t209.5 68.5q144 0 218 -83.5t74 -248.5q0 -138 -56 -275.5t-152 -244.5h-258zM349 608q-137 0 -214 69t-77 187q0 119 75.5 187.5t215.5 68.5q139 0 214 -70t75 -186
q0 -115 -76.5 -185.5t-212.5 -70.5z" />
    <glyph glyph-name="less" unicode="&#x3c;" horiz-adv-x="1196" 
d="M1082 220l-968 326v428l968 326v-340l-730 -224v58l730 -234v-340z" />
    <glyph glyph-name="equal" unicode="=" horiz-adv-x="1196" 
d="M114 840v340h968v-340h-968zM114 340v340h968v-340h-968z" />
    <glyph glyph-name="greater" unicode="&#x3e;" horiz-adv-x="1196" 
d="M114 220v340l730 234v-58l-730 224v340l968 -326v-428z" />
    <glyph glyph-name="question" unicode="?" horiz-adv-x="1188" 
d="M406 532l-80 346q139 13 215 37.5t105.5 56t29.5 64.5q0 54 -55.5 85t-190.5 31q-94 0 -198 -16.5t-190 -45.5v350q54 17 128 30.5t154.5 21.5t153.5 8q333 0 491.5 -112.5t158.5 -321.5q0 -111 -52 -191.5t-145.5 -134t-218.5 -82.5l-28 -126h-278zM546 -20
q-136 0 -213 63.5t-77 172.5q0 110 75.5 173t214.5 63q140 0 215 -64.5t75 -171.5q0 -106 -76.5 -171t-213.5 -65z" />
    <glyph glyph-name="at" unicode="@" horiz-adv-x="2432" 
d="M1266 -460q-384 0 -647.5 104.5t-399 321.5t-135.5 554t133.5 553.5t388.5 320.5t618 104q364 0 614.5 -101.5t380 -303.5t129.5 -505q0 -224 -68.5 -358t-194 -193t-295.5 -59q-135 0 -233.5 37.5t-158.5 116.5h-24q-33 -88 -118 -121t-186 -33q-216 0 -323 93.5
t-107 240.5q0 161 132.5 250.5t421.5 105.5l246 14l44 -224l-250 -14q-70 -4 -103 -23t-33 -67q0 -45 39 -61.5t85 -16.5q23 0 70.5 7.5t71.5 20.5v290q0 64 -23.5 102.5t-80 56t-154.5 17.5q-73 0 -165 -15t-169 -41v322q98 30 206.5 46t211.5 16q222 0 360.5 -49.5
t203 -164.5t64.5 -310v-230q0 -52 25 -75t67 -23q41 0 72.5 25t49.5 97t18 212q0 173 -49.5 295t-151 198.5t-257.5 112.5t-368 36q-211 0 -365.5 -38t-255 -121t-149 -217t-48.5 -326t49.5 -326.5t153.5 -217.5t267 -121.5t390 -38.5q143 0 280.5 13.5t275.5 40.5v-276
q-136 -27 -274.5 -40.5t-281.5 -13.5z" />
    <glyph glyph-name="A" unicode="A" horiz-adv-x="1760" 
d="M16 0l520 1480h688l520 -1480h-464l-422 1284h40l-422 -1284h-460zM500 334l110 350h538l108 -350h-756z" />
    <glyph glyph-name="B" unicode="B" horiz-adv-x="1522" 
d="M622 -20q-67 0 -155.5 4.5t-178 11.5t-158.5 16v1420q79 19 179 34.5t204 24.5t195 9q258 0 417 -50.5t232 -146.5t73 -233q0 -80 -33 -145t-89.5 -109t-127.5 -60v12q120 -19 204 -101t84 -237q0 -103 -41.5 -186t-138.5 -142t-260 -90.5t-406 -31.5zM754 300
q114 0 176 17t86 49t24 78q0 77 -46 112.5t-174 35.5h-278v326h238q78 0 123.5 15.5t65 45t19.5 71.5q0 65 -48.5 97.5t-177.5 32.5q-42 0 -86 -5t-82 -13v-856q47 -4 85 -5t75 -1z" />
    <glyph glyph-name="C" unicode="C" horiz-adv-x="1488" 
d="M1048 -20q-240 0 -420.5 48.5t-301.5 144t-181.5 237t-60.5 326.5q0 233 109.5 404.5t326 265.5t538.5 94q95 0 184 -7.5t174 -24.5v-376q-73 14 -152 21t-166 7q-185 0 -298.5 -44t-165.5 -129t-52 -207t51 -207t160.5 -129t284.5 -44q93 0 179 10.5t159 25.5v-376
q-81 -18 -176.5 -29t-191.5 -11z" />
    <glyph glyph-name="D" unicode="D" horiz-adv-x="1800" 
d="M632 -14q-69 0 -155.5 3t-176.5 9t-170 16v1418q81 19 185 33t214.5 21.5t210.5 7.5q480 0 728 -182.5t248 -571.5q0 -271 -119 -437t-359.5 -241.5t-605.5 -75.5zM762 356q165 0 269 40t152.5 125.5t48.5 222.5q0 133 -51 217.5t-155 124.5t-264 40q-34 0 -78.5 -4
t-77.5 -10v-752q36 -3 74.5 -3.5t81.5 -0.5z" />
    <glyph glyph-name="E" unicode="E" horiz-adv-x="1498" 
d="M130 0v1480h1272v-350h-802v-780h812v-350h-1282zM358 580v350h938v-350h-938z" />
    <glyph glyph-name="F" unicode="F" horiz-adv-x="1474" 
d="M130 0v1480h1272v-360h-796v-1120h-476zM390 526v360h900v-360h-900z" />
    <glyph glyph-name="G" unicode="G" horiz-adv-x="1678" 
d="M1096 -20q-344 0 -568.5 86t-334 253.5t-109.5 412.5q0 235 113 407.5t342.5 266.5t580.5 94q83 0 179 -7.5t183 -24.5v-376q-73 14 -156.5 21t-169.5 7q-213 0 -339.5 -45t-182.5 -133.5t-56 -217.5q0 -114 51 -196.5t159 -127t280 -44.5q69 0 146.5 5.5t141.5 14.5
l-258 -222v566h442v-700q-109 -18 -219.5 -29t-224.5 -11z" />
    <glyph glyph-name="H" unicode="H" horiz-adv-x="1794" 
d="M130 0v1480h476v-524h582v524h476v-1480h-476v554h-582v-554h-476z" />
    <glyph glyph-name="I" unicode="I" horiz-adv-x="736" 
d="M130 0v1480h476v-1480h-476z" />
    <glyph glyph-name="J" unicode="J" horiz-adv-x="736" 
d="M280 -358l-292 196q55 66 87 133.5t45.5 147.5t13.5 183v1178h472v-1162q0 -125 -30.5 -238t-102 -221t-193.5 -217z" />
    <glyph glyph-name="K" unicode="K" horiz-adv-x="1546" 
d="M1082 0l-520 754l488 726h498l-522 -778l12 110l560 -812h-516zM130 0v1480h476v-1480h-476zM542 554v402h210v-402h-210z" />
    <glyph glyph-name="L" unicode="L" horiz-adv-x="1362" 
d="M130 0v1480h476v-1112h744v-368h-1220z" />
    <glyph glyph-name="M" unicode="M" horiz-adv-x="2176" 
d="M134 0v1480h578l410 -866h-54l396 866h578v-1480h-444v1098h90l-404 -878h-392l-428 878h114v-1098h-444z" />
    <glyph glyph-name="N" unicode="N" horiz-adv-x="1804" 
d="M130 0v1480h476l694 -934h-74v934h448v-1480h-476l-694 934h74v-934h-448z" />
    <glyph glyph-name="O" unicode="O" horiz-adv-x="1892" 
d="M946 -20q-267 0 -460 92t-297.5 262.5t-104.5 405.5t104 405.5t297 262.5t461 92t461 -93t297 -263.5t104 -403.5t-104 -403.5t-297.5 -263.5t-460.5 -93zM946 348q123 0 207.5 44.5t127.5 130.5t43 209q0 131 -44.5 220t-129 134.5t-204.5 45.5t-204.5 -43.5t-129 -129
t-44.5 -211.5q0 -134 43.5 -223t127.5 -133t207 -44z" />
    <glyph glyph-name="P" unicode="P" horiz-adv-x="1528" 
d="M130 0v1450q123 23 258 36.5t288 13.5q390 0 582 -133t192 -423q0 -277 -183 -416.5t-537 -139.5q-31 0 -63.5 1t-60.5 3v-392h-476zM734 714q132 0 195 50.5t63 179.5q0 122 -64.5 176t-205.5 54q-33 0 -60 -1.5t-56 -6.5v-444q35 -4 63.5 -6t64.5 -2z" />
    <glyph glyph-name="Q" unicode="Q" horiz-adv-x="1892" 
d="M1730 -394q-393 57 -675 141t-470.5 190.5t-298 231t-156 263.5t-46.5 288q0 245 104 419.5t297 267.5t461 93t461 -93t297 -263.5t104 -403.5q0 -208 -86 -372t-264 -259t-456 -95q-51 0 -105 3.5t-111 10.5l162 112q131 -45 268.5 -79.5t283 -60t300.5 -44.5zM946 348
q123 0 207.5 44.5t127.5 130.5t43 209q0 131 -44.5 220t-129 134.5t-204.5 45.5t-204.5 -43.5t-129 -129t-44.5 -211.5q0 -136 42.5 -224.5t126.5 -132t209 -43.5z" />
    <glyph glyph-name="R" unicode="R" horiz-adv-x="1578" 
d="M130 0v1432q79 19 178 34.5t201 24.5t189 9q357 0 545.5 -120.5t188.5 -381.5q0 -167 -86 -279.5t-243 -169.5t-369 -57q-31 0 -66.5 1.5t-71.5 2.5v-496h-466zM1060 0l-492 680h514l500 -680h-522zM754 820q117 0 177.5 40.5t60.5 137.5q0 61 -27.5 100.5t-83 58.5
t-139.5 19q-33 0 -73 -4t-73 -10v-332q25 -3 52.5 -5.5t54.5 -3.5t51 -1z" />
    <glyph glyph-name="S" unicode="S" horiz-adv-x="1378" 
d="M616 -20q-151 0 -277 19.5t-233 50.5v368q70 -24 161.5 -41t184.5 -26t168 -9q140 0 184 27.5t44 72.5q0 39 -31 61t-135 41l-144 28q-256 50 -365 160t-109 288q0 231 185.5 355.5t560.5 124.5q126 0 232.5 -13t185.5 -33v-368q-75 23 -184.5 37.5t-219.5 14.5
q-118 0 -181.5 -13.5t-88 -36.5t-24.5 -52q0 -34 26 -53.5t108 -36.5l144 -28q187 -36 298 -98t159.5 -150.5t48.5 -203.5q0 -150 -84.5 -259t-241 -168t-372.5 -59z" />
    <glyph glyph-name="T" unicode="T" horiz-adv-x="1532" 
d="M528 0v1112h-506v368h1488v-368h-506v-1112h-476z" />
    <glyph glyph-name="U" unicode="U" horiz-adv-x="1756" 
d="M882 -20q-271 0 -438 85t-243.5 245t-76.5 384v786h476v-824q0 -154 70.5 -227t211.5 -73t211.5 73t70.5 227v824h468v-786q0 -224 -76.5 -384t-242 -245t-431.5 -85z" />
    <glyph glyph-name="V" unicode="V" horiz-adv-x="1740" 
d="M526 0l-520 1480h502l430 -1284h-112l440 1284h468l-520 -1480h-688z" />
    <glyph glyph-name="W" unicode="W" horiz-adv-x="2748" 
d="M466 0l-442 1480h480l348 -1244h-106l380 1244h520l362 -1244h-92l356 1244h452l-442 -1480h-600l-366 1236h130l-380 -1236h-600z" />
    <glyph glyph-name="X" unicode="X" horiz-adv-x="1592" 
d="M1134 0l-346 470l-274 304l-536 706h528l292 -394l274 -304l590 -782h-528zM-68 0l582 774l284 312l290 394h510l-526 -698l-284 -312l-344 -470h-512z" />
    <glyph glyph-name="Y" unicode="Y" horiz-adv-x="1532" 
d="M532 0v782l92 -316l-684 1014h502l402 -608h-132l392 608h468l-656 -1014l92 310v-776h-476z" />
    <glyph glyph-name="Z" unicode="Z" horiz-adv-x="1482" 
d="M84 0v254l760 946v-88h-750v368h1294v-254l-760 -946v88h770v-368h-1314z" />
    <glyph glyph-name="bracketleft.sc" unicode="[" horiz-adv-x="834" 
d="M150 -240v1720h706v-360h-252v-1000h232v-360h-686z" />
    <glyph glyph-name="backslash" unicode="\" horiz-adv-x="1058" 
d="M592 -240l-592 1856h466l592 -1856h-466z" />
    <glyph glyph-name="bracketright.sc" unicode="]" horiz-adv-x="834" 
d="M-2 -240v360h232v1000h-252v360h706v-1720h-686z" />
    <glyph glyph-name="asciicircum" unicode="^" horiz-adv-x="1440" 
d="M34 740l454 740h464l454 -740h-462l-334 544h220l-334 -544h-462z" />
    <glyph glyph-name="underscore" unicode="_" horiz-adv-x="1448" 
d="M90 -362v360h1268v-360h-1268z" />
    <glyph glyph-name="grave" unicode="`" horiz-adv-x="1200" 
d="M380 1220l-326 396h508l258 -396h-440z" />
    <glyph glyph-name="a.sc" unicode="a" horiz-adv-x="1572" 
d="M18 0l426 1190h684l426 -1190h-460l-330 1024h40l-330 -1024h-456zM464 238l108 318h426l106 -318h-640z" />
    <glyph glyph-name="b.sc" unicode="b" horiz-adv-x="1380" 
d="M590 -18q-68 0 -152.5 3.5t-166 10t-139.5 14.5v1138q69 16 160.5 29t185.5 21t172 8q345 0 493.5 -92t148.5 -260q0 -62 -28 -113t-73 -85.5t-97 -47.5l-2 10q60 -11 113 -42t86 -86.5t33 -139.5q0 -110 -66.5 -193t-226.5 -129t-441 -46zM694 268q82 0 126 11.5
t61 33.5t17 53q0 50 -31 72t-115 22h-222v292h190q77 0 104.5 24t27.5 60q0 44 -31.5 65t-120.5 21q-24 0 -57.5 -3t-66.5 -9v-638q35 -3 64 -3.5t54 -0.5z" />
    <glyph glyph-name="c.sc" unicode="c" horiz-adv-x="1316" 
d="M932 -16q-293 0 -485.5 71.5t-287.5 207.5t-95 329q0 182 97 320.5t291.5 216t487.5 77.5q75 0 152.5 -5t149.5 -17v-352q-60 9 -124.5 14.5t-135.5 5.5q-157 0 -249.5 -31.5t-132.5 -89.5t-40 -137q0 -76 39 -133.5t127.5 -90t237.5 -32.5q77 0 149 8.5t129 17.5v-352
q-67 -12 -150 -20t-160 -8z" />
    <glyph glyph-name="d.sc" unicode="d" horiz-adv-x="1616" 
d="M600 -12q-105 0 -234.5 5t-233.5 17v1138q71 16 165 28t192.5 19t182.5 7q437 0 658.5 -146.5t221.5 -461.5q0 -221 -105.5 -354t-317 -192.5t-529.5 -59.5zM712 332q129 0 209 27.5t117.5 86t37.5 152.5q0 91 -39.5 148.5t-120.5 84.5t-206 27q-22 0 -54 -2.5t-52 -5.5
v-516q27 -1 53.5 -1.5t54.5 -0.5z" />
    <glyph glyph-name="e.sc" unicode="e" horiz-adv-x="1366" 
d="M132 0v1190h1138v-314h-680v-562h688v-314h-1146zM358 446v314h820v-314h-820z" />
    <glyph glyph-name="f.sc" unicode="f" horiz-adv-x="1346" 
d="M132 0v1190h1140v-326h-668v-864h-472zM386 390v326h788v-326h-788z" />
    <glyph glyph-name="g.sc" unicode="g" horiz-adv-x="1490" 
d="M980 -18q-314 0 -517 70t-301 205t-98 331q0 183 99 322.5t305.5 217.5t529.5 78q75 0 157.5 -5.5t148.5 -16.5v-352q-55 8 -125.5 14t-144.5 6q-184 0 -288 -33t-147 -94t-43 -145q0 -73 39 -129t122.5 -87.5t218.5 -31.5q54 0 120 4.5t120 11.5l-258 -208v438h438v-562
q-93 -15 -189.5 -24.5t-186.5 -9.5z" />
    <glyph glyph-name="h.sc" unicode="h" horiz-adv-x="1636" 
d="M132 0v1190h472v-396h428v396h472v-1190h-472v420h-428v-420h-472z" />
    <glyph glyph-name="i.sc" unicode="i" horiz-adv-x="736" 
d="M132 0v1190h472v-1190h-472z" />
    <glyph glyph-name="j.sc" unicode="j" horiz-adv-x="736" 
d="M310 -290l-288 182q43 50 67 100.5t33.5 111.5t9.5 142v944h472v-924q0 -102 -27 -195.5t-91.5 -182.5t-175.5 -178z" />
    <glyph glyph-name="k.sc" unicode="k" horiz-adv-x="1394" 
d="M938 0l-418 606l392 584h490l-424 -634l12 104l456 -660h-508zM132 0v1190h472v-1190h-472zM542 418v374h156v-374h-156z" />
    <glyph glyph-name="l.sc" unicode="l" horiz-adv-x="1236" 
d="M132 0v1190h472v-850h618v-340h-1090z" />
    <glyph glyph-name="m.sc" unicode="m" horiz-adv-x="1978" 
d="M136 0v1190h564l320 -636h-50l308 636h564v-1190h-432v830h80l-312 -650h-378l-336 650h104v-830h-432z" />
    <glyph glyph-name="n.sc" unicode="n" horiz-adv-x="1642" 
d="M132 0v1190h464l540 -664h-60v664h434v-1190h-462l-542 664h60v-664h-434z" />
    <glyph glyph-name="o.sc" unicode="o" horiz-adv-x="1670" 
d="M834 -16q-240 0 -412.5 76t-265 213.5t-92.5 320.5t92 321t264.5 214.5t413.5 76.5t414 -77t265.5 -215t92.5 -320q0 -181 -92.5 -318.5t-265.5 -214.5t-414 -77zM834 326q98 0 163 32t97 91t32 139q0 87 -33.5 149t-98.5 94.5t-160 32.5q-94 0 -158.5 -31t-98 -89.5
t-33.5 -141.5q0 -90 32 -151.5t96.5 -93t161.5 -31.5z" />
    <glyph glyph-name="p.sc" unicode="p" horiz-adv-x="1390" 
d="M132 0v1166q108 18 230 29t260 11q350 0 520 -109.5t170 -348.5q0 -229 -161.5 -342.5t-464.5 -113.5h-42h-40v-292h-472zM690 586q84 0 126 34t42 128q0 87 -43.5 125.5t-144.5 38.5q-15 0 -32 -1t-34 -3v-316q26 -3 44 -4.5t42 -1.5z" />
    <glyph glyph-name="q.sc" unicode="q" horiz-adv-x="1670" 
d="M1532 -352q-352 52 -604.5 125.5t-420 164.5t-264.5 195t-138 216t-41 227q0 193 92 334.5t264.5 218.5t413.5 77q242 0 415 -77t265 -215t92 -320q0 -136 -55 -252.5t-168 -198.5t-286 -114.5t-409 -0.5l162 106q119 -38 239.5 -67.5t246.5 -51.5t262 -39zM834 326
q98 0 163 32t97 91t32 139q0 87 -33.5 149t-98.5 94.5t-160 32.5q-94 0 -158.5 -31t-98 -89.5t-33.5 -141.5q0 -90 32 -151.5t96.5 -93t161.5 -31.5z" />
    <glyph glyph-name="r.sc" unicode="r" horiz-adv-x="1426" 
d="M132 0v1148q107 24 245.5 41t262.5 17q323 0 487.5 -102t164.5 -314q0 -138 -76 -231t-212 -140t-316 -47q-19 0 -44.5 1.5t-49.5 2.5v-376h-462zM912 0l-386 542h506l396 -542h-516zM708 668q74 0 112 28t38 94q0 62 -43 93t-127 31q-15 0 -44 -2.5t-50 -7.5v-230
q32 -3 58 -4.5t56 -1.5z" />
    <glyph glyph-name="s.sc" unicode="s" horiz-adv-x="1248" 
d="M564 -16q-132 0 -247 15t-211 37v342q72 -18 155 -31t161 -20t134 -7q80 0 119 5t51 14.5t12 22.5q0 11 -7 20.5t-31 17.5t-74 16l-138 22q-223 36 -322.5 129.5t-99.5 238.5q0 111 68 202t219 144.5t399 53.5q96 0 187.5 -9t164.5 -23v-342q-85 18 -175.5 29t-188.5 11
q-103 0 -152 -7.5t-63.5 -18.5t-14.5 -22q0 -13 15.5 -23t76.5 -21l138 -22q154 -25 251.5 -72t144 -121t46.5 -179q0 -111 -67 -202t-204 -145.5t-347 -54.5z" />
    <glyph glyph-name="t.sc" unicode="t" horiz-adv-x="1360" 
d="M444 0v850h-422v340h1316v-340h-422v-850h-472z" />
    <glyph glyph-name="u.sc" unicode="u" horiz-adv-x="1602" 
d="M806 -16q-243 0 -392 72.5t-217.5 205.5t-68.5 316v612h472v-638q0 -109 52 -162.5t154 -53.5t154 53.5t52 162.5v638h464v-612q0 -183 -68.5 -316t-216.5 -205.5t-385 -72.5z" />
    <glyph glyph-name="v.sc" unicode="v" horiz-adv-x="1552" 
d="M434 0l-426 1190h490l344 -1020h-114l352 1020h464l-426 -1190h-684z" />
    <glyph glyph-name="w.sc" unicode="w" horiz-adv-x="2450" 
d="M394 0l-370 1190h472l280 -974h-104l308 974h514l290 -974h-92l292 974h442l-370 -1190h-594l-294 972h128l-308 -972h-594z" />
    <glyph glyph-name="x.sc" unicode="x" horiz-adv-x="1414" 
d="M960 0l-260 346l-270 280l-452 564h522l210 -276l270 -282l502 -632h-522zM-66 0l496 626l280 288l204 276h504l-438 -558l-280 -286l-252 -346h-514z" />
    <glyph glyph-name="y.sc" unicode="y" horiz-adv-x="1360" 
d="M448 0v640l90 -296l-594 846h492l320 -464h-132l312 464h460l-566 -846l90 292v-636h-472z" />
    <glyph glyph-name="z.sc" unicode="z" horiz-adv-x="1326" 
d="M86 0v238l608 688l-2 -76h-598v340h1138v-238l-606 -688l2 76h612v-340h-1154z" />
    <glyph glyph-name="braceleft.sc" unicode="{" horiz-adv-x="874" 
d="M682 -260q-244 0 -368 113t-124 321v160q0 53 -32.5 85.5t-85.5 32.5h-74v360h74q53 0 85.5 33t32.5 85v136q0 209 124 321.5t368 112.5q63 0 115.5 -4t98.5 -10v-352h-136q-57 0 -86.5 -22.5t-29.5 -81.5v-118q0 -147 -95 -225.5t-307 -78.5v48q212 0 307 -78.5
t95 -225.5v-142q0 -58 29.5 -81t86.5 -23h136v-352q-46 -6 -98.5 -10t-115.5 -4z" />
    <glyph glyph-name="bar" unicode="|" horiz-adv-x="680" 
d="M130 -440v2056h420v-2056h-420z" />
    <glyph glyph-name="braceright.sc" unicode="}" horiz-adv-x="874" 
d="M192 -260q-63 0 -115 4t-99 10v352h136q57 0 86.5 23t29.5 81v142q0 147 95.5 225.5t306.5 78.5v-48q-211 0 -306.5 78.5t-95.5 225.5v118q0 59 -29.5 81.5t-86.5 22.5h-136v352q47 6 99 10t115 4q245 0 368.5 -112.5t123.5 -321.5v-136q0 -52 33 -85t85 -33h74v-360h-74
q-52 0 -85 -32.5t-33 -85.5v-160q0 -208 -123.5 -321t-368.5 -113z" />
    <glyph glyph-name="asciitilde" unicode="~" horiz-adv-x="1196" 
d="M814 534q-64 0 -124.5 20t-117.5 43q-52 21 -102 38t-97 17q-76 0 -135 -25.5t-124 -84.5v342q103 102 268 102q65 0 125 -20t117 -43q52 -21 101.5 -38t97.5 -17q77 0 136 26t123 84v-342q-101 -102 -268 -102z" />
    <glyph glyph-name="uni00A0" unicode="&#xa0;" horiz-adv-x="584" 
 />
    <glyph glyph-name="exclamdown" unicode="&#xa1;" horiz-adv-x="736" 
d="M232 528h278l102 -444v-464h-488v464zM369 1120q136 0 212.5 -70t76.5 -186q0 -115 -75 -185.5t-214 -70.5q-140 0 -215.5 69t-75.5 187q0 119 77 187.5t214 68.5z" />
    <glyph glyph-name="cent" unicode="&#xa2;" horiz-adv-x="1202" 
d="M792 -22q-237 0 -398.5 67t-244.5 194t-83 307t85 308t251 196t410 68q90 0 167.5 -7.5t146.5 -22.5v-348q-73 11 -135 16.5t-131 5.5q-115 0 -186 -25t-103.5 -73.5t-32.5 -117.5q0 -68 34 -115.5t101 -72t167 -24.5q68 0 130.5 8t155.5 26v-348q-61 -18 -147 -30
t-187 -12zM536 -240v300h400v-300h-400zM536 1040v300h400v-300h-400z" />
    <glyph glyph-name="sterling" unicode="&#xa3;" horiz-adv-x="1584" 
d="M290 124v822q0 272 187 413t569 141q119 0 224 -12t184 -30v-368q-75 21 -182 34.5t-202 13.5q-130 0 -200.5 -16t-98 -52.5t-27.5 -97.5v-848h-454zM90 0v350h1424v-350h-1424zM90 590v320h1124v-320h-1124z" />
    <glyph glyph-name="currency" unicode="&#xa4;" horiz-adv-x="1440" 
d="M496 800l-236 204l-142 140l198 198l140 -142l204 -236zM944 800l-164 164l204 236l140 142l198 -198l-142 -140zM1124 138l-140 142l-204 236l164 164l236 -204l142 -140zM316 138l-198 198l142 140l236 204l164 -164l-204 -236zM720 356q-110 0 -198.5 48t-140 134.5
t-51.5 201.5q0 114 51.5 200t140 134t198.5 48t198.5 -48t140 -134t51.5 -200q0 -115 -51.5 -201.5t-140 -134.5t-198.5 -48zM720 580q63 0 105.5 42.5t42.5 117.5q0 69 -40.5 114.5t-105.5 45.5q-64 0 -107 -42.5t-43 -117.5t42.5 -117.5t105.5 -42.5z" />
    <glyph glyph-name="yen" unicode="&#xa5;" horiz-adv-x="1528" 
d="M530 0v782l92 -316l-684 1014h502l402 -608h-132l392 608h468l-656 -1014l92 310v-776h-476zM200 222v250h1136v-250h-1136zM200 576v250h1136v-250h-1136z" />
    <glyph glyph-name="brokenbar" unicode="&#xa6;" horiz-adv-x="680" 
d="M130 836v780h420v-780h-420zM130 -440v780h420v-780h-420z" />
    <glyph glyph-name="section" unicode="&#xa7;" horiz-adv-x="1364" 
d="M574 -22q-93 0 -208 12t-210 34v290q99 -24 203.5 -35t206.5 -11q92 0 139 7.5t63 20t16 26.5q0 20 -14.5 31t-47.5 15l-306 48q-141 23 -232.5 98.5t-91.5 217.5q0 95 54 162.5t150 113.5l224 -148q-28 -34 -38 -57.5t-10 -38.5q0 -25 20.5 -45t75.5 -29l308 -50
q146 -24 234 -92.5t88 -197.5q0 -172 -151.5 -272t-472.5 -100zM1046 460l-238 138q45 36 64.5 59t19.5 51q0 27 -19 48t-75 30l-306 50q-159 26 -252.5 96t-93.5 190q0 114 66 198.5t214.5 131t395.5 46.5q84 0 174.5 -8t159.5 -22v-290q-72 15 -146.5 22.5t-149.5 7.5
q-130 0 -194 -9.5t-85 -23t-21 -25.5q0 -18 16.5 -27.5t49.5 -14.5l326 -46q144 -21 232 -94.5t88 -217.5q0 -100 -60.5 -171t-165.5 -119z" />
    <glyph glyph-name="dieresis" unicode="&#xa8;" horiz-adv-x="1200" 
d="M887 1210q-122 0 -178.5 55.5t-56.5 152.5q0 98 56.5 153t178.5 55q121 0 177 -55t56 -153q0 -97 -56 -152.5t-177 -55.5zM315 1210q-122 0 -178.5 55.5t-56.5 152.5q0 98 56.5 153t178.5 55q121 0 177 -55t56 -153q0 -97 -56 -152.5t-177 -55.5z" />
    <glyph glyph-name="copyright" unicode="&#xa9;" horiz-adv-x="1668" 
d="M834 -22q-226 0 -394.5 95t-262 266.5t-93.5 400.5t93.5 400.5t262 266.5t394.5 95t394.5 -95t262 -266.5t93.5 -400.5t-93.5 -400.5t-262 -266.5t-394.5 -95zM904 324q-204 0 -325 107.5t-121 300.5q0 195 124 303.5t334 108.5q56 0 103 -5.5t89 -16.5v-250
q-45 8 -83.5 12t-80.5 4q-97 0 -141.5 -40.5t-44.5 -115.5q0 -73 45 -112.5t129 -39.5q42 0 80 5.5t96 18.5v-250q-37 -13 -89.5 -21.5t-114.5 -8.5zM834 190q169 0 287 66.5t179.5 190t61.5 293.5t-61.5 293.5t-179.5 190t-287 66.5t-287 -66.5t-179.5 -190t-61.5 -293.5
t61.5 -293.5t179.5 -190t287 -66.5z" />
    <glyph glyph-name="ordfeminine" unicode="&#xaa;" horiz-adv-x="1126" 
d="M392 592q-193 0 -277.5 77t-84.5 191q0 134 104.5 203.5t335.5 76.5l228 8l46 -180l-200 -6q-51 -1 -70.5 -16.5t-19.5 -41.5q0 -24 21.5 -40t70.5 -16q17 0 39 2t43 6v262q0 30 -14.5 51t-60 32t-137.5 11q-67 0 -145.5 -9.5t-144.5 -26.5v284q92 23 189.5 32.5
t178.5 9.5q201 0 325.5 -43t181.5 -143t57 -270v-436h-360l-30 74h-18q-45 -48 -113 -70t-145 -22z" />
    <glyph glyph-name="guillemotleft" unicode="&#xab;" horiz-adv-x="1558" 
d="M370 130l-298 440l298 440h480l-298 -440l298 -440h-480zM1046 130l-298 440l298 440h480l-298 -440l298 -440h-480z" />
    <glyph glyph-name="logicalnot" unicode="&#xac;" horiz-adv-x="1424" 
d="M960 210v380h-846v340h1202v-720h-356z" />
    <glyph glyph-name="uni00AD" unicode="&#xad;" horiz-adv-x="1150" 
d="M114 384v372h922v-372h-922z" />
    <glyph glyph-name="registered" unicode="&#xae;" horiz-adv-x="1432" 
d="M716 268q-181 0 -318.5 77.5t-214.5 216t-77 320.5t77 321t214.5 217t318.5 78t318.5 -78t214.5 -217t77 -321t-77 -320.5t-214.5 -216t-318.5 -77.5zM822 600l-134 194l164 26l152 -220h-182zM716 424q134 0 233.5 56.5t154 159.5t54.5 242q0 140 -54.5 243.5t-154 160
t-233.5 56.5t-233.5 -56.5t-154 -160t-54.5 -243.5q0 -139 54.5 -242t154 -159.5t233.5 -56.5zM494 600v592h214q134 0 199 -50t65 -153q0 -104 -64.5 -153.5t-199.5 -49.5h-42l-6 -186h-166zM666 918h68q76 0 76 70q0 72 -76 72h-68v-142z" />
    <glyph glyph-name="macron" unicode="&#xaf;" horiz-adv-x="1200" 
d="M184 1294v250h832v-250h-832z" />
    <glyph glyph-name="degree" unicode="&#xb0;" horiz-adv-x="1024" 
d="M512 702q-117 0 -209 51.5t-144.5 141.5t-52.5 207q0 116 52.5 206t144.5 141t209 51t209 -51t144.5 -141t52.5 -206q0 -117 -52.5 -207t-144.5 -141.5t-209 -51.5zM513 950q59 0 100 41t41 111q0 72 -41.5 111t-99.5 39q-59 0 -101 -39t-42 -111q0 -70 41 -111t102 -41z
" />
    <glyph glyph-name="plusminus" unicode="&#xb1;" horiz-adv-x="1196" 
d="M420 410v260h-306v340h306v260h356v-260h306v-340h-306v-260h-356zM114 0v340h968v-340h-968z" />
    <glyph glyph-name="uni00B2" unicode="&#xb2;" horiz-adv-x="980" 
d="M68 616v180l330 326q59 57 83.5 92.5t24.5 65.5q0 41 -36 61.5t-140 20.5q-75 0 -150.5 -14.5t-123.5 -31.5v274q65 20 151 30t173 10q254 0 370 -76.5t116 -231.5q0 -78 -39 -150t-123 -152l-234 -220l16 90h424v-274h-842z" />
    <glyph glyph-name="uni00B3" unicode="&#xb3;" horiz-adv-x="980" 
d="M400 602q-91 0 -175.5 9t-162.5 27v246q77 -18 160.5 -28t155.5 -10q98 0 136 21.5t38 58.5q0 38 -32 58t-124 20h-240v244h220q78 0 103 18.5t25 45.5q0 35 -33.5 55.5t-122.5 20.5q-61 0 -138 -12t-134 -32v246q54 17 142 28.5t166 11.5q243 0 355.5 -76t112.5 -216
q0 -78 -44.5 -135t-121.5 -75v6q90 -16 147 -71t57 -159q0 -136 -113 -219t-377 -83z" />
    <glyph glyph-name="acute" unicode="&#xb4;" horiz-adv-x="1200" 
d="M380 1220l258 396h508l-326 -396h-440z" />
    <glyph glyph-name="uni00B5" unicode="&#xb5;" horiz-adv-x="1452" 
d="M672 -18q-104 0 -183.5 52.5t-124 165t-44.5 292.5v208h252v-182q0 -87 33.5 -119.5t94.5 -32.5q33 0 65 8t59.5 22.5t47.5 33.5v670h464v-1100h-378l-28 96h-16q-49 -54 -111.5 -84t-130.5 -30zM108 -440v1538h464v-1538h-464z" />
    <glyph glyph-name="paragraph" unicode="&#xb6;" horiz-adv-x="1528" 
d="M612 0v390q-16 -1 -34 -1.5t-36 -0.5q-228 0 -346 139.5t-118 416.5q0 290 126.5 423t393.5 133q84 0 167.5 -4.5t164.5 -15.5v-1480h-318zM1080 0v1480h318v-1480h-318z" />
    <glyph glyph-name="periodcentered" unicode="&#xb7;" horiz-adv-x="696" 
d="M349 304q-137 0 -214 69t-77 187q0 119 75.5 187.5t215.5 68.5q139 0 214 -70t75 -186q0 -115 -76.5 -185.5t-212.5 -70.5z" />
    <glyph glyph-name="cedilla" unicode="&#xb8;" horiz-adv-x="1200" 
d="M594 -460q-58 0 -111 8.5t-97 23.5v154q39 -15 93 -22.5t93 -7.5q47 0 71.5 13.5t24.5 46.5q0 60 -94 60h-62v204h202v-142l-96 56q144 0 209 -55t65 -145t-75.5 -142t-222.5 -52z" />
    <glyph glyph-name="uni00B9" unicode="&#xb9;" horiz-adv-x="980" 
d="M358 656v788l120 -124l-352 -214v300l352 214h248v-964h-368zM126 616v274h818v-274h-818z" />
    <glyph glyph-name="ordmasculine" unicode="&#xba;" horiz-adv-x="1222" 
d="M610 592q-279 0 -428.5 127t-149.5 331t149.5 328t429.5 124q278 0 428.5 -124t150.5 -328q0 -136 -67.5 -239t-197 -161t-315.5 -58zM610 906q49 0 83.5 17t52.5 49.5t18 77.5t-18 76t-52.5 46.5t-83.5 15.5q-47 0 -81 -15.5t-52.5 -46.5t-18.5 -76t18.5 -77.5
t52.5 -49.5t81 -17z" />
    <glyph glyph-name="guillemotright" unicode="&#xbb;" horiz-adv-x="1558" 
d="M32 130l298 440l-298 440h480l298 -440l-298 -440h-480zM708 130l298 440l-298 440h480l298 -440l-298 -440h-480z" />
    <glyph glyph-name="onequarter" unicode="&#xbc;" horiz-adv-x="2476" 
d="M358 656v788l120 -124l-352 -214v300l352 214h248v-964h-368zM126 616v274h818v-274h-818zM600 -136l894 1752h382l-894 -1752h-382zM1516 26v186l288 652h330l-288 -652l-18 82h628v-268h-940zM2012 -136v430l50 232h270v-662h-320z" />
    <glyph glyph-name="onehalf" unicode="&#xbd;" horiz-adv-x="2476" 
d="M358 656v788l120 -124l-352 -214v300l352 214h248v-964h-368zM126 616v274h818v-274h-818zM600 -136l894 1752h382l-894 -1752h-382zM1564 -136v180l330 326q59 57 83.5 92.5t24.5 65.5q0 41 -36 61.5t-140 20.5q-75 0 -150.5 -14.5t-123.5 -31.5v274q65 20 151 30
t173 10q254 0 370 -76.5t116 -231.5q0 -78 -39 -150t-123 -152l-234 -220l16 90h424v-274h-842z" />
    <glyph glyph-name="threequarters" unicode="&#xbe;" horiz-adv-x="2476" 
d="M400 602q-91 0 -175.5 9t-162.5 27v246q77 -18 160.5 -28t155.5 -10q98 0 136 21.5t38 58.5q0 38 -32 58t-124 20h-240v244h220q78 0 103 18.5t25 45.5q0 35 -33.5 55.5t-122.5 20.5q-61 0 -138 -12t-134 -32v246q54 17 142 28.5t166 11.5q243 0 355.5 -76t112.5 -216
q0 -78 -44.5 -135t-121.5 -75v6q90 -16 147 -71t57 -159q0 -136 -113 -219t-377 -83zM600 -136l894 1752h382l-894 -1752h-382zM1516 26v186l288 652h330l-288 -652l-18 82h628v-268h-940zM2012 -136v430l50 232h270v-662h-320z" />
    <glyph glyph-name="questiondown" unicode="&#xbf;" horiz-adv-x="1188" 
d="M782 568l80 -346q-139 -13 -215 -37.5t-105.5 -56t-29.5 -64.5q0 -54 55.5 -85t190.5 -31q95 0 199 17t189 45v-350q-54 -17 -128 -30.5t-154.5 -21.5t-153.5 -8q-333 0 -491.5 113t-158.5 321q0 111 52 191.5t145.5 134t218.5 82.5l28 126h278zM642 1120
q137 0 213.5 -63t76.5 -173q0 -109 -75 -172.5t-215 -63.5q-139 0 -214.5 65t-75.5 171q0 107 77 171.5t213 64.5z" />
    <glyph glyph-name="Agrave" unicode="&#xc0;" horiz-adv-x="1760" 
d="M16 0l520 1480h688l520 -1480h-464l-422 1284h40l-422 -1284h-460zM500 334l110 350h538l108 -350h-756zM668 1586l-272 316h488l204 -316h-420z" />
    <glyph glyph-name="Aacute" unicode="&#xc1;" horiz-adv-x="1760" 
d="M16 0l520 1480h688l520 -1480h-464l-422 1284h40l-422 -1284h-460zM500 334l110 350h538l108 -350h-756zM664 1586l204 316h488l-272 -316h-420z" />
    <glyph glyph-name="Acircumflex" unicode="&#xc2;" horiz-adv-x="1760" 
d="M16 0l520 1480h688l520 -1480h-464l-422 1284h40l-422 -1284h-460zM500 334l110 350h538l108 -350h-756zM354 1586l332 316h384l332 -316h-364l-198 192h76l-198 -192h-364z" />
    <glyph glyph-name="Atilde" unicode="&#xc3;" horiz-adv-x="1760" 
d="M16 0l520 1480h688l520 -1480h-464l-422 1284h40l-422 -1284h-460zM500 334l110 350h538l108 -350h-756zM1076 1586q-61 0 -113 12t-102 25q-46 14 -93 24.5t-100 10.5q-70 0 -123.5 -15.5t-110.5 -48.5v232q50 39 107.5 57.5t138.5 18.5q62 0 114 -12t101 -26
q47 -13 94 -24.5t99 -11.5q71 0 124 15.5t110 48.5v-232q-49 -39 -107 -56.5t-139 -17.5z" />
    <glyph glyph-name="Adieresis" unicode="&#xc4;" horiz-adv-x="1760" 
d="M16 0l520 1480h688l520 -1480h-464l-422 1284h40l-422 -1284h-460zM500 334l110 350h538l108 -350h-756zM1174 1570q-120 0 -174 48t-54 132t54 132t174 48t174 -48t54 -132t-54 -132t-174 -48zM582 1570q-120 0 -174 48t-54 132t54 132t174 48t174 -48t54 -132t-54 -132
t-174 -48z" />
    <glyph glyph-name="Aring" unicode="&#xc5;" horiz-adv-x="1760" 
d="M16 0l520 1480h688l520 -1480h-464l-422 1284h40l-422 -1284h-460zM500 334l110 350h538l108 -350h-756zM878 1570q-99 0 -163.5 62t-64.5 158t64.5 158t163.5 62t163.5 -62t64.5 -158t-64.5 -158t-163.5 -62zM878 1708q35 0 56.5 22.5t21.5 59.5q0 38 -21.5 60t-55.5 22
q-35 0 -57 -22t-22 -60q0 -37 22 -59.5t56 -22.5z" />
    <glyph glyph-name="AE" unicode="&#xc6;" horiz-adv-x="2382" 
d="M16 0l520 1480h666v-350h-356l-370 -1130h-460zM500 334l110 350h584v-350h-694zM1116 0l-128 1480h1298v-350h-802l78 -780h734v-350h-1180zM1242 580v350h938v-350h-938z" />
    <glyph glyph-name="Ccedilla" unicode="&#xc7;" horiz-adv-x="1488" 
d="M1048 -20q-240 0 -420.5 48.5t-301.5 144t-181.5 237t-60.5 326.5q0 233 109.5 404.5t326 265.5t538.5 94q95 0 184 -7.5t174 -24.5v-376q-73 14 -152 21t-166 7q-185 0 -298.5 -44t-165.5 -129t-52 -207t51 -207t160.5 -129t284.5 -44q93 0 179 10.5t159 25.5v-376
q-81 -18 -176.5 -29t-191.5 -11zM834 -460q-67 0 -122 8.5t-106 23.5v154q48 -15 103 -22.5t103 -7.5q57 0 86.5 13.5t29.5 44.5q0 35 -29 48.5t-85 13.5h-62v204h202v-142l-96 56q156 0 225 -52.5t69 -141.5q0 -91 -79.5 -145.5t-238.5 -54.5z" />
    <glyph glyph-name="Egrave" unicode="&#xc8;" horiz-adv-x="1498" 
d="M130 0v1480h1272v-350h-802v-780h812v-350h-1282zM358 580v350h938v-350h-938zM578 1586l-272 316h488l204 -316h-420z" />
    <glyph glyph-name="Eacute" unicode="&#xc9;" horiz-adv-x="1498" 
d="M130 0v1480h1272v-350h-802v-780h812v-350h-1282zM358 580v350h938v-350h-938zM574 1586l204 316h488l-272 -316h-420z" />
    <glyph glyph-name="Ecircumflex" unicode="&#xca;" horiz-adv-x="1498" 
d="M130 0v1480h1272v-350h-802v-780h812v-350h-1282zM358 580v350h938v-350h-938zM264 1586l332 316h384l332 -316h-364l-198 192h76l-198 -192h-364z" />
    <glyph glyph-name="Edieresis" unicode="&#xcb;" horiz-adv-x="1498" 
d="M130 0v1480h1272v-350h-802v-780h812v-350h-1282zM358 580v350h938v-350h-938zM1084 1570q-120 0 -174 48t-54 132t54 132t174 48t174 -48t54 -132t-54 -132t-174 -48zM492 1570q-120 0 -174 48t-54 132t54 132t174 48t174 -48t54 -132t-54 -132t-174 -48z" />
    <glyph glyph-name="Igrave" unicode="&#xcc;" horiz-adv-x="736" 
d="M130 0v1480h476v-1480h-476zM158 1586l-272 316h488l204 -316h-420z" />
    <glyph glyph-name="Iacute" unicode="&#xcd;" horiz-adv-x="736" 
d="M130 0v1480h476v-1480h-476zM154 1586l204 316h488l-272 -316h-420z" />
    <glyph glyph-name="Icircumflex" unicode="&#xce;" horiz-adv-x="736" 
d="M130 0v1480h476v-1480h-476zM-156 1586l332 316h384l332 -316h-364l-198 192h76l-198 -192h-364z" />
    <glyph glyph-name="Idieresis" unicode="&#xcf;" horiz-adv-x="736" 
d="M130 0v1480h476v-1480h-476zM664 1570q-120 0 -174 48t-54 132t54 132t174 48t174 -48t54 -132t-54 -132t-174 -48zM72 1570q-120 0 -174 48t-54 132t54 132t174 48t174 -48t54 -132t-54 -132t-174 -48z" />
    <glyph glyph-name="Eth" unicode="&#xd0;" horiz-adv-x="1800" 
d="M8 622v280h872v-280h-872zM632 -14q-69 0 -155.5 3t-176.5 9t-170 16v1418q81 19 185 33t214.5 21.5t210.5 7.5q480 0 728 -182.5t248 -571.5q0 -271 -119 -437t-359.5 -241.5t-605.5 -75.5zM762 356q165 0 269 40t152.5 125.5t48.5 222.5q0 133 -51 217.5t-155 124.5
t-264 40q-34 0 -78.5 -4t-77.5 -10v-752q36 -3 74.5 -3.5t81.5 -0.5z" />
    <glyph glyph-name="Ntilde" unicode="&#xd1;" horiz-adv-x="1804" 
d="M130 0v1480h476l694 -934h-74v934h448v-1480h-476l-694 934h74v-934h-448zM1100 1586q-61 0 -113 12t-102 25q-46 14 -93 24.5t-100 10.5q-70 0 -123.5 -15.5t-110.5 -48.5v232q50 39 107.5 57.5t138.5 18.5q62 0 114 -12t101 -26q47 -13 94 -24.5t99 -11.5
q71 0 124 15.5t110 48.5v-232q-49 -39 -107 -56.5t-139 -17.5z" />
    <glyph glyph-name="Ograve" unicode="&#xd2;" horiz-adv-x="1892" 
d="M946 -20q-267 0 -460 92t-297.5 262.5t-104.5 405.5t104 405.5t297 262.5t461 92t461 -93t297 -263.5t104 -403.5t-104 -403.5t-297.5 -263.5t-460.5 -93zM946 348q123 0 207.5 44.5t127.5 130.5t43 209q0 131 -44.5 220t-129 134.5t-204.5 45.5t-204.5 -43.5t-129 -129
t-44.5 -211.5q0 -134 43.5 -223t127.5 -133t207 -44zM736 1586l-272 316h488l204 -316h-420z" />
    <glyph glyph-name="Oacute" unicode="&#xd3;" horiz-adv-x="1892" 
d="M946 -20q-267 0 -460 92t-297.5 262.5t-104.5 405.5t104 405.5t297 262.5t461 92t461 -93t297 -263.5t104 -403.5t-104 -403.5t-297.5 -263.5t-460.5 -93zM946 348q123 0 207.5 44.5t127.5 130.5t43 209q0 131 -44.5 220t-129 134.5t-204.5 45.5t-204.5 -43.5t-129 -129
t-44.5 -211.5q0 -134 43.5 -223t127.5 -133t207 -44zM732 1586l204 316h488l-272 -316h-420z" />
    <glyph glyph-name="Ocircumflex" unicode="&#xd4;" horiz-adv-x="1892" 
d="M946 -20q-267 0 -460 92t-297.5 262.5t-104.5 405.5t104 405.5t297 262.5t461 92t461 -93t297 -263.5t104 -403.5t-104 -403.5t-297.5 -263.5t-460.5 -93zM946 348q123 0 207.5 44.5t127.5 130.5t43 209q0 131 -44.5 220t-129 134.5t-204.5 45.5t-204.5 -43.5t-129 -129
t-44.5 -211.5q0 -134 43.5 -223t127.5 -133t207 -44zM422 1586l332 316h384l332 -316h-364l-198 192h76l-198 -192h-364z" />
    <glyph glyph-name="Otilde" unicode="&#xd5;" horiz-adv-x="1892" 
d="M946 -20q-267 0 -460 92t-297.5 262.5t-104.5 405.5t104 405.5t297 262.5t461 92t461 -93t297 -263.5t104 -403.5t-104 -403.5t-297.5 -263.5t-460.5 -93zM946 348q123 0 207.5 44.5t127.5 130.5t43 209q0 131 -44.5 220t-129 134.5t-204.5 45.5t-204.5 -43.5t-129 -129
t-44.5 -211.5q0 -134 43.5 -223t127.5 -133t207 -44zM1144 1586q-61 0 -113 12t-102 25q-46 14 -93 24.5t-100 10.5q-70 0 -123.5 -15.5t-110.5 -48.5v232q50 39 107.5 57.5t138.5 18.5q62 0 114 -12t101 -26q47 -13 94 -24.5t99 -11.5q71 0 124 15.5t110 48.5v-232
q-49 -39 -107 -56.5t-139 -17.5z" />
    <glyph glyph-name="Odieresis" unicode="&#xd6;" horiz-adv-x="1892" 
d="M946 -20q-267 0 -460 92t-297.5 262.5t-104.5 405.5t104 405.5t297 262.5t461 92t461 -93t297 -263.5t104 -403.5t-104 -403.5t-297.5 -263.5t-460.5 -93zM946 348q123 0 207.5 44.5t127.5 130.5t43 209q0 131 -44.5 220t-129 134.5t-204.5 45.5t-204.5 -43.5t-129 -129
t-44.5 -211.5q0 -134 43.5 -223t127.5 -133t207 -44zM1242 1570q-120 0 -174 48t-54 132t54 132t174 48t174 -48t54 -132t-54 -132t-174 -48zM650 1570q-120 0 -174 48t-54 132t54 132t174 48t174 -48t54 -132t-54 -132t-174 -48z" />
    <glyph glyph-name="multiply" unicode="&#xd7;" horiz-adv-x="1128" 
d="M314 270l-240 240l250 250l-250 250l240 240l250 -250l250 250l240 -240l-250 -250l250 -250l-240 -240l-250 250z" />
    <glyph glyph-name="Oslash" unicode="&#xd8;" horiz-adv-x="1892" 
d="M408 0h-312l1388 1480h312zM946 -20q-267 0 -460 92t-297.5 262.5t-104.5 405.5t104 405.5t297 262.5t461 92t461 -93t297 -263.5t104 -403.5t-104 -403.5t-297.5 -263.5t-460.5 -93zM946 348q123 0 207.5 44.5t127.5 130.5t43 209q0 131 -44.5 220t-129 134.5
t-204.5 45.5t-204.5 -43.5t-129 -129t-44.5 -211.5q0 -134 43.5 -223t127.5 -133t207 -44z" />
    <glyph glyph-name="Ugrave" unicode="&#xd9;" horiz-adv-x="1756" 
d="M882 -20q-271 0 -438 85t-243.5 245t-76.5 384v786h476v-824q0 -154 70.5 -227t211.5 -73t211.5 73t70.5 227v824h468v-786q0 -224 -76.5 -384t-242 -245t-431.5 -85zM672 1586l-272 316h488l204 -316h-420z" />
    <glyph glyph-name="Uacute" unicode="&#xda;" horiz-adv-x="1756" 
d="M882 -20q-271 0 -438 85t-243.5 245t-76.5 384v786h476v-824q0 -154 70.5 -227t211.5 -73t211.5 73t70.5 227v824h468v-786q0 -224 -76.5 -384t-242 -245t-431.5 -85zM668 1586l204 316h488l-272 -316h-420z" />
    <glyph glyph-name="Ucircumflex" unicode="&#xdb;" horiz-adv-x="1756" 
d="M882 -20q-271 0 -438 85t-243.5 245t-76.5 384v786h476v-824q0 -154 70.5 -227t211.5 -73t211.5 73t70.5 227v824h468v-786q0 -224 -76.5 -384t-242 -245t-431.5 -85zM358 1586l332 316h384l332 -316h-364l-198 192h76l-198 -192h-364z" />
    <glyph glyph-name="Udieresis" unicode="&#xdc;" horiz-adv-x="1756" 
d="M882 -20q-271 0 -438 85t-243.5 245t-76.5 384v786h476v-824q0 -154 70.5 -227t211.5 -73t211.5 73t70.5 227v824h468v-786q0 -224 -76.5 -384t-242 -245t-431.5 -85zM1178 1570q-120 0 -174 48t-54 132t54 132t174 48t174 -48t54 -132t-54 -132t-174 -48zM586 1570
q-120 0 -174 48t-54 132t54 132t174 48t174 -48t54 -132t-54 -132t-174 -48z" />
    <glyph glyph-name="Yacute" unicode="&#xdd;" horiz-adv-x="1532" 
d="M532 0v782l92 -316l-684 1014h502l402 -608h-132l392 608h468l-656 -1014l92 310v-776h-476zM550 1586l204 316h488l-272 -316h-420z" />
    <glyph glyph-name="Thorn" unicode="&#xde;" horiz-adv-x="1538" 
d="M130 0v1480h476v-166q18 1 40 1.5t40 0.5q386 0 575 -133t189 -423q0 -277 -182.5 -416.5t-533.5 -139.5q-31 0 -65 1t-63 2v-207h-476zM734 530q132 0 195 50.5t63 179.5q0 122 -64.5 176t-205.5 54q-33 0 -60 -1.5t-56 -6.5v-446q35 -3 63.5 -4.5t64.5 -1.5z" />
    <glyph glyph-name="germandbls.sc" unicode="&#xdf;" horiz-adv-x="1643" 
d="M1417 1107v-238l-343 -283l-25 128q33 6 64 9t61 3q125 0 215.5 -46t139 -123t48.5 -172q0 -113 -57.5 -204t-176 -144t-303.5 -53q-104 0 -191.5 13.5t-159.5 32.5v326q41 -12 97 -22.5t112.5 -17t99.5 -6.5q62 0 92 25t30 62q0 38 -30.5 62.5t-99.5 24.5q-52 0 -103 -4
t-116 -15v223l365 328l-67 -154q-39 14 -84.5 21t-107.5 7q-116 0 -186 -29t-100.5 -82.5t-30.5 -125.5v-653h-476v661q0 161 82.5 283.5t252.5 192t430 69.5q180 0 323.5 -30t244.5 -69z" />
    <glyph glyph-name="agrave.sc" unicode="&#xe0;" horiz-adv-x="1572" 
d="M18 0l426 1190h684l426 -1190h-460l-330 1024h40l-330 -1024h-456zM464 238l108 318h426l106 -318h-640zM574 1296l-272 316h488l204 -316h-420z" />
    <glyph glyph-name="aacute.sc" unicode="&#xe1;" horiz-adv-x="1572" 
d="M18 0l426 1190h684l426 -1190h-460l-330 1024h40l-330 -1024h-456zM464 238l108 318h426l106 -318h-640zM570 1296l204 316h488l-272 -316h-420z" />
    <glyph glyph-name="acircumflex.sc" unicode="&#xe2;" horiz-adv-x="1572" 
d="M18 0l426 1190h684l426 -1190h-460l-330 1024h40l-330 -1024h-456zM464 238l108 318h426l106 -318h-640zM260 1296l332 316h384l332 -316h-364l-198 192h76l-198 -192h-364z" />
    <glyph glyph-name="atilde.sc" unicode="&#xe3;" horiz-adv-x="1572" 
d="M18 0l426 1190h684l426 -1190h-460l-330 1024h40l-330 -1024h-456zM464 238l108 318h426l106 -318h-640zM982 1296q-61 0 -113 12t-102 25q-46 14 -93 24.5t-100 10.5q-70 0 -123.5 -15.5t-110.5 -48.5v232q50 39 107.5 57.5t138.5 18.5q62 0 114 -12t101 -26
q47 -13 94 -24.5t99 -11.5q71 0 124 15.5t110 48.5v-232q-49 -39 -107 -56.5t-139 -17.5z" />
    <glyph glyph-name="adieresis.sc" unicode="&#xe4;" horiz-adv-x="1572" 
d="M18 0l426 1190h684l426 -1190h-460l-330 1024h40l-330 -1024h-456zM464 238l108 318h426l106 -318h-640zM1080 1280q-120 0 -174 48t-54 132t54 132t174 48t174 -48t54 -132t-54 -132t-174 -48zM488 1280q-120 0 -174 48t-54 132t54 132t174 48t174 -48t54 -132t-54 -132
t-174 -48z" />
    <glyph glyph-name="aring.sc" unicode="&#xe5;" horiz-adv-x="1572" 
d="M18 0l426 1190h684l426 -1190h-460l-330 1024h40l-330 -1024h-456zM464 238l108 318h426l106 -318h-640zM784 1280q-99 0 -163.5 62t-64.5 158t64.5 158t163.5 62t163.5 -62t64.5 -158t-64.5 -158t-163.5 -62zM784 1418q35 0 56.5 22.5t21.5 59.5q0 38 -21.5 60t-55.5 22
q-35 0 -57 -22t-22 -60q0 -37 22 -59.5t56 -22.5z" />
    <glyph glyph-name="ae.sc" unicode="&#xe6;" horiz-adv-x="2128" 
d="M18 0l424 1190h640v-314h-328l-282 -876h-454zM462 244l110 314h486v-314h-596zM978 0l-110 1190h1164v-314h-684l60 -562h632v-314h-1062zM1108 446v314h832v-314h-832z" />
    <glyph glyph-name="ccedilla.sc" unicode="&#xe7;" horiz-adv-x="1316" 
d="M932 -16q-293 0 -485.5 71.5t-287.5 207.5t-95 329q0 182 97 320.5t291.5 216t487.5 77.5q75 0 152.5 -5t149.5 -17v-352q-60 9 -124.5 14.5t-135.5 5.5q-157 0 -249.5 -31.5t-132.5 -89.5t-40 -137q0 -76 39 -133.5t127.5 -90t237.5 -32.5q77 0 149 8.5t129 17.5v-352
q-67 -12 -150 -20t-160 -8zM722 -460q-67 0 -122 8.5t-106 23.5v154q48 -15 103 -22.5t103 -7.5q57 0 86.5 13.5t29.5 44.5q0 35 -29 48.5t-85 13.5h-62v204h202v-142l-96 56q156 0 225 -52.5t69 -141.5q0 -91 -79.5 -145.5t-238.5 -54.5z" />
    <glyph glyph-name="egrave.sc" unicode="&#xe8;" horiz-adv-x="1366" 
d="M132 0v1190h1138v-314h-680v-562h688v-314h-1146zM358 446v314h820v-314h-820zM510 1296l-272 316h488l204 -316h-420z" />
    <glyph glyph-name="eacute.sc" unicode="&#xe9;" horiz-adv-x="1366" 
d="M132 0v1190h1138v-314h-680v-562h688v-314h-1146zM358 446v314h820v-314h-820zM506 1296l204 316h488l-272 -316h-420z" />
    <glyph glyph-name="ecircumflex.sc" unicode="&#xea;" horiz-adv-x="1366" 
d="M132 0v1190h1138v-314h-680v-562h688v-314h-1146zM358 446v314h820v-314h-820zM196 1296l332 316h384l332 -316h-364l-198 192h76l-198 -192h-364z" />
    <glyph glyph-name="edieresis.sc" unicode="&#xeb;" horiz-adv-x="1366" 
d="M132 0v1190h1138v-314h-680v-562h688v-314h-1146zM358 446v314h820v-314h-820zM1016 1280q-120 0 -174 48t-54 132t54 132t174 48t174 -48t54 -132t-54 -132t-174 -48zM424 1280q-120 0 -174 48t-54 132t54 132t174 48t174 -48t54 -132t-54 -132t-174 -48z" />
    <glyph glyph-name="igrave.sc" unicode="&#xec;" horiz-adv-x="736" 
d="M132 0v1190h472v-1190h-472zM158 1296l-272 316h488l204 -316h-420z" />
    <glyph glyph-name="iacute.sc" unicode="&#xed;" horiz-adv-x="736" 
d="M132 0v1190h472v-1190h-472zM154 1296l204 316h488l-272 -316h-420z" />
    <glyph glyph-name="icircumflex.sc" unicode="&#xee;" horiz-adv-x="736" 
d="M132 0v1190h472v-1190h-472zM-156 1296l332 316h384l332 -316h-364l-198 192h76l-198 -192h-364z" />
    <glyph glyph-name="idieresis.sc" unicode="&#xef;" horiz-adv-x="736" 
d="M132 0v1190h472v-1190h-472zM664 1280q-120 0 -174 48t-54 132t54 132t174 48t174 -48t54 -132t-54 -132t-174 -48zM72 1280q-120 0 -174 48t-54 132t54 132t174 48t174 -48t54 -132t-54 -132t-174 -48z" />
    <glyph glyph-name="eth.sc" unicode="&#xf0;" horiz-adv-x="1616" 
d="M2 482v252h812v-252h-812zM600 -12q-105 0 -234.5 5t-233.5 17v1138q71 16 165 28t192.5 19t182.5 7q437 0 658.5 -146.5t221.5 -461.5q0 -221 -105.5 -354t-317 -192.5t-529.5 -59.5zM712 332q129 0 209 27.5t117.5 86t37.5 152.5q0 91 -39.5 148.5t-120.5 84.5t-206 27
q-22 0 -54 -2.5t-52 -5.5v-516q27 -1 53.5 -1.5t54.5 -0.5z" />
    <glyph glyph-name="ntilde.sc" unicode="&#xf1;" horiz-adv-x="1642" 
d="M132 0v1190h464l540 -664h-60v664h434v-1190h-462l-542 664h60v-664h-434zM1018 1296q-61 0 -113 12t-102 25q-46 14 -93 24.5t-100 10.5q-70 0 -123.5 -15.5t-110.5 -48.5v232q50 39 107.5 57.5t138.5 18.5q62 0 114 -12t101 -26q47 -13 94 -24.5t99 -11.5
q71 0 124 15.5t110 48.5v-232q-49 -39 -107 -56.5t-139 -17.5z" />
    <glyph glyph-name="ograve.sc" unicode="&#xf2;" horiz-adv-x="1670" 
d="M834 -16q-240 0 -412.5 76t-265 213.5t-92.5 320.5t92 321t264.5 214.5t413.5 76.5t414 -77t265.5 -215t92.5 -320q0 -181 -92.5 -318.5t-265.5 -214.5t-414 -77zM834 326q98 0 163 32t97 91t32 139q0 87 -33.5 149t-98.5 94.5t-160 32.5q-94 0 -158.5 -31t-98 -89.5
t-33.5 -141.5q0 -90 32 -151.5t96.5 -93t161.5 -31.5zM624 1296l-272 316h488l204 -316h-420z" />
    <glyph glyph-name="oacute.sc" unicode="&#xf3;" horiz-adv-x="1670" 
d="M834 -16q-240 0 -412.5 76t-265 213.5t-92.5 320.5t92 321t264.5 214.5t413.5 76.5t414 -77t265.5 -215t92.5 -320q0 -181 -92.5 -318.5t-265.5 -214.5t-414 -77zM834 326q98 0 163 32t97 91t32 139q0 87 -33.5 149t-98.5 94.5t-160 32.5q-94 0 -158.5 -31t-98 -89.5
t-33.5 -141.5q0 -90 32 -151.5t96.5 -93t161.5 -31.5zM620 1296l204 316h488l-272 -316h-420z" />
    <glyph glyph-name="ocircumflex.sc" unicode="&#xf4;" horiz-adv-x="1670" 
d="M834 -16q-240 0 -412.5 76t-265 213.5t-92.5 320.5t92 321t264.5 214.5t413.5 76.5t414 -77t265.5 -215t92.5 -320q0 -181 -92.5 -318.5t-265.5 -214.5t-414 -77zM834 326q98 0 163 32t97 91t32 139q0 87 -33.5 149t-98.5 94.5t-160 32.5q-94 0 -158.5 -31t-98 -89.5
t-33.5 -141.5q0 -90 32 -151.5t96.5 -93t161.5 -31.5zM310 1296l332 316h384l332 -316h-364l-198 192h76l-198 -192h-364z" />
    <glyph glyph-name="otilde.sc" unicode="&#xf5;" horiz-adv-x="1670" 
d="M834 -16q-240 0 -412.5 76t-265 213.5t-92.5 320.5t92 321t264.5 214.5t413.5 76.5t414 -77t265.5 -215t92.5 -320q0 -181 -92.5 -318.5t-265.5 -214.5t-414 -77zM834 326q98 0 163 32t97 91t32 139q0 87 -33.5 149t-98.5 94.5t-160 32.5q-94 0 -158.5 -31t-98 -89.5
t-33.5 -141.5q0 -90 32 -151.5t96.5 -93t161.5 -31.5zM1032 1296q-61 0 -113 12t-102 25q-46 14 -93 24.5t-100 10.5q-70 0 -123.5 -15.5t-110.5 -48.5v232q50 39 107.5 57.5t138.5 18.5q62 0 114 -12t101 -26q47 -13 94 -24.5t99 -11.5q71 0 124 15.5t110 48.5v-232
q-49 -39 -107 -56.5t-139 -17.5z" />
    <glyph glyph-name="odieresis.sc" unicode="&#xf6;" horiz-adv-x="1670" 
d="M834 -16q-240 0 -412.5 76t-265 213.5t-92.5 320.5t92 321t264.5 214.5t413.5 76.5t414 -77t265.5 -215t92.5 -320q0 -181 -92.5 -318.5t-265.5 -214.5t-414 -77zM834 326q98 0 163 32t97 91t32 139q0 87 -33.5 149t-98.5 94.5t-160 32.5q-94 0 -158.5 -31t-98 -89.5
t-33.5 -141.5q0 -90 32 -151.5t96.5 -93t161.5 -31.5zM1130 1280q-120 0 -174 48t-54 132t54 132t174 48t174 -48t54 -132t-54 -132t-174 -48zM538 1280q-120 0 -174 48t-54 132t54 132t174 48t174 -48t54 -132t-54 -132t-174 -48z" />
    <glyph glyph-name="divide" unicode="&#xf7;" horiz-adv-x="1196" 
d="M114 590v340h968v-340h-968zM598 54q-126 0 -197 63.5t-71 172.5q0 110 69.5 173t198.5 63t198.5 -64.5t69.5 -171.5q0 -106 -71 -171t-197 -65zM598 994q-126 0 -197 63.5t-71 172.5q0 110 69.5 173t198.5 63t198.5 -64.5t69.5 -171.5q0 -106 -71 -171t-197 -65z" />
    <glyph glyph-name="oslash.sc" unicode="&#xf8;" horiz-adv-x="1670" 
d="M379 -46h-302l1214 1281h302zM834 -16q-240 0 -412.5 76t-265 213.5t-92.5 320.5t92 321t264.5 214.5t413.5 76.5t414 -77t265.5 -215t92.5 -320q0 -181 -92.5 -318.5t-265.5 -214.5t-414 -77zM834 326q98 0 163 32t97 91t32 139q0 87 -33.5 149t-98.5 94.5t-160 32.5
q-94 0 -158.5 -31t-98 -89.5t-33.5 -141.5q0 -90 32 -151.5t96.5 -93t161.5 -31.5z" />
    <glyph glyph-name="ugrave.sc" unicode="&#xf9;" horiz-adv-x="1602" 
d="M806 -16q-243 0 -392 72.5t-217.5 205.5t-68.5 316v612h472v-638q0 -109 52 -162.5t154 -53.5t154 53.5t52 162.5v638h464v-612q0 -183 -68.5 -316t-216.5 -205.5t-385 -72.5zM596 1296l-272 316h488l204 -316h-420z" />
    <glyph glyph-name="uacute.sc" unicode="&#xfa;" horiz-adv-x="1602" 
d="M806 -16q-243 0 -392 72.5t-217.5 205.5t-68.5 316v612h472v-638q0 -109 52 -162.5t154 -53.5t154 53.5t52 162.5v638h464v-612q0 -183 -68.5 -316t-216.5 -205.5t-385 -72.5zM592 1296l204 316h488l-272 -316h-420z" />
    <glyph glyph-name="ucircumflex.sc" unicode="&#xfb;" horiz-adv-x="1602" 
d="M806 -16q-243 0 -392 72.5t-217.5 205.5t-68.5 316v612h472v-638q0 -109 52 -162.5t154 -53.5t154 53.5t52 162.5v638h464v-612q0 -183 -68.5 -316t-216.5 -205.5t-385 -72.5zM282 1296l332 316h384l332 -316h-364l-198 192h76l-198 -192h-364z" />
    <glyph glyph-name="udieresis.sc" unicode="&#xfc;" horiz-adv-x="1602" 
d="M806 -16q-243 0 -392 72.5t-217.5 205.5t-68.5 316v612h472v-638q0 -109 52 -162.5t154 -53.5t154 53.5t52 162.5v638h464v-612q0 -183 -68.5 -316t-216.5 -205.5t-385 -72.5zM1102 1280q-120 0 -174 48t-54 132t54 132t174 48t174 -48t54 -132t-54 -132t-174 -48z
M510 1280q-120 0 -174 48t-54 132t54 132t174 48t174 -48t54 -132t-54 -132t-174 -48z" />
    <glyph glyph-name="yacute.sc" unicode="&#xfd;" horiz-adv-x="1360" 
d="M448 0v640l90 -296l-594 846h492l320 -464h-132l312 464h460l-566 -846l90 292v-636h-472zM464 1296l204 316h488l-272 -316h-420z" />
    <glyph glyph-name="thorn.sc" unicode="&#xfe;" horiz-adv-x="1400" 
d="M132 0v1190h472v-122h15h13q345 0 512.5 -109.5t167.5 -348.5q0 -229 -161 -342.5t-461 -113.5h-44h-42v-154h-472zM690 448q84 0 126 34t42 128q0 87 -43.5 125.5t-144.5 38.5q-18 0 -34.5 -1t-31.5 -3v-316q26 -3 44 -4.5t42 -1.5z" />
    <glyph glyph-name="ydieresis.sc" unicode="&#xff;" horiz-adv-x="1360" 
d="M448 0v640l90 -296l-594 846h492l320 -464h-132l312 464h460l-566 -846l90 292v-636h-472zM974 1280q-120 0 -174 48t-54 132t54 132t174 48t174 -48t54 -132t-54 -132t-174 -48zM382 1280q-120 0 -174 48t-54 132t54 132t174 48t174 -48t54 -132t-54 -132t-174 -48z" />
    <glyph glyph-name="Amacron" unicode="&#x100;" horiz-adv-x="1760" 
d="M16 0l520 1480h688l520 -1480h-464l-422 1284h40l-422 -1284h-460zM500 334l110 350h538l108 -350h-756zM434 1620v250h888v-250h-888z" />
    <glyph glyph-name="amacron.sc" unicode="&#x101;" horiz-adv-x="1572" 
d="M18 0l426 1190h684l426 -1190h-460l-330 1024h40l-330 -1024h-456zM464 238l108 318h426l106 -318h-640zM340 1330v250h888v-250h-888z" />
    <glyph glyph-name="Abreve" unicode="&#x102;" horiz-adv-x="1760" 
d="M16 0l520 1480h688l520 -1480h-464l-422 1284h40l-422 -1284h-460zM500 334l110 350h538l108 -350h-756zM878 1586q-156 0 -258 42.5t-156.5 114t-69.5 159.5h274q15 -46 64.5 -77t145.5 -31t145.5 31t64.5 77h274q-15 -88 -70 -159.5t-156.5 -114t-257.5 -42.5z" />
    <glyph glyph-name="abreve.sc" unicode="&#x103;" horiz-adv-x="1572" 
d="M18 0l426 1190h684l426 -1190h-460l-330 1024h40l-330 -1024h-456zM464 238l108 318h426l106 -318h-640zM784 1296q-156 0 -258 42.5t-156.5 114t-69.5 159.5h274q15 -46 64.5 -77t145.5 -31t145.5 31t64.5 77h274q-15 -88 -70 -159.5t-156.5 -114t-257.5 -42.5z" />
    <glyph glyph-name="Aogonek" unicode="&#x104;" horiz-adv-x="1760" 
d="M16 0l520 1480h688l520 -1480h-464l-422 1284h40l-422 -1284h-460zM500 334l110 350h538l108 -350h-756zM1574 -460q-169 0 -250.5 62t-81.5 164q0 65 36 124.5t121 107.5t233 80l112 -78q-92 -30 -146 -61t-77 -64.5t-23 -70.5q0 -45 35 -71.5t113 -26.5q24 0 57 5.5
t75 18.5v-160q-43 -13 -92 -21.5t-112 -8.5z" />
    <glyph glyph-name="aogonek.sc" unicode="&#x105;" horiz-adv-x="1572" 
d="M18 0l426 1190h684l426 -1190h-460l-330 1024h40l-330 -1024h-456zM464 238l108 318h426l106 -318h-640zM1468 -460q-169 0 -250.5 62t-81.5 164q0 65 36 124.5t121 107.5t233 80l112 -78q-92 -30 -146 -61t-77 -64.5t-23 -70.5q0 -45 35 -71.5t113 -26.5q24 0 57 5.5
t75 18.5v-160q-43 -13 -92 -21.5t-112 -8.5z" />
    <glyph glyph-name="Cacute" unicode="&#x106;" horiz-adv-x="1488" 
d="M1048 -20q-240 0 -420.5 48.5t-301.5 144t-181.5 237t-60.5 326.5q0 233 109.5 404.5t326 265.5t538.5 94q95 0 184 -7.5t174 -24.5v-376q-73 14 -152 21t-166 7q-185 0 -298.5 -44t-165.5 -129t-52 -207t51 -207t160.5 -129t284.5 -44q93 0 179 10.5t159 25.5v-376
q-81 -18 -176.5 -29t-191.5 -11zM666 1586l204 316h488l-272 -316h-420z" />
    <glyph glyph-name="cacute.sc" unicode="&#x107;" horiz-adv-x="1316" 
d="M932 -16q-293 0 -485.5 71.5t-287.5 207.5t-95 329q0 182 97 320.5t291.5 216t487.5 77.5q75 0 152.5 -5t149.5 -17v-352q-60 9 -124.5 14.5t-135.5 5.5q-157 0 -249.5 -31.5t-132.5 -89.5t-40 -137q0 -76 39 -133.5t127.5 -90t237.5 -32.5q77 0 149 8.5t129 17.5v-352
q-67 -12 -150 -20t-160 -8zM558 1296l204 316h488l-272 -316h-420z" />
    <glyph glyph-name="Ccircumflex" unicode="&#x108;" horiz-adv-x="1488" 
d="M1048 -20q-240 0 -420.5 48.5t-301.5 144t-181.5 237t-60.5 326.5q0 233 109.5 404.5t326 265.5t538.5 94q95 0 184 -7.5t174 -24.5v-376q-73 14 -152 21t-166 7q-185 0 -298.5 -44t-165.5 -129t-52 -207t51 -207t160.5 -129t284.5 -44q93 0 179 10.5t159 25.5v-376
q-81 -18 -176.5 -29t-191.5 -11zM356 1586l332 316h384l332 -316h-364l-198 192h76l-198 -192h-364z" />
    <glyph glyph-name="ccircumflex.sc" unicode="&#x109;" horiz-adv-x="1316" 
d="M932 -16q-293 0 -485.5 71.5t-287.5 207.5t-95 329q0 182 97 320.5t291.5 216t487.5 77.5q75 0 152.5 -5t149.5 -17v-352q-60 9 -124.5 14.5t-135.5 5.5q-157 0 -249.5 -31.5t-132.5 -89.5t-40 -137q0 -76 39 -133.5t127.5 -90t237.5 -32.5q77 0 149 8.5t129 17.5v-352
q-67 -12 -150 -20t-160 -8zM248 1296l332 316h384l332 -316h-364l-198 192h76l-198 -192h-364z" />
    <glyph glyph-name="Cdotaccent" unicode="&#x10a;" horiz-adv-x="1488" 
d="M1048 -20q-240 0 -420.5 48.5t-301.5 144t-181.5 237t-60.5 326.5q0 233 109.5 404.5t326 265.5t538.5 94q95 0 184 -7.5t174 -24.5v-376q-73 14 -152 21t-166 7q-185 0 -298.5 -44t-165.5 -129t-52 -207t51 -207t160.5 -129t284.5 -44q93 0 179 10.5t159 25.5v-376
q-81 -18 -176.5 -29t-191.5 -11zM880 1570q-144 0 -206 50.5t-62 129.5q0 80 62 130t206 50t206 -50t62 -130q0 -79 -62 -129.5t-206 -50.5z" />
    <glyph glyph-name="cdotaccent.sc" unicode="&#x10b;" horiz-adv-x="1316" 
d="M932 -16q-293 0 -485.5 71.5t-287.5 207.5t-95 329q0 182 97 320.5t291.5 216t487.5 77.5q75 0 152.5 -5t149.5 -17v-352q-60 9 -124.5 14.5t-135.5 5.5q-157 0 -249.5 -31.5t-132.5 -89.5t-40 -137q0 -76 39 -133.5t127.5 -90t237.5 -32.5q77 0 149 8.5t129 17.5v-352
q-67 -12 -150 -20t-160 -8zM772 1280q-144 0 -206 50.5t-62 129.5q0 80 62 130t206 50t206 -50t62 -130q0 -79 -62 -129.5t-206 -50.5z" />
    <glyph glyph-name="Ccaron" unicode="&#x10c;" horiz-adv-x="1488" 
d="M1048 -20q-240 0 -420.5 48.5t-301.5 144t-181.5 237t-60.5 326.5q0 233 109.5 404.5t326 265.5t538.5 94q95 0 184 -7.5t174 -24.5v-376q-73 14 -152 21t-166 7q-185 0 -298.5 -44t-165.5 -129t-52 -207t51 -207t160.5 -129t284.5 -44q93 0 179 10.5t159 25.5v-376
q-81 -18 -176.5 -29t-191.5 -11zM688 1586l-332 316h364l198 -192h-76l198 192h364l-332 -316h-384z" />
    <glyph glyph-name="ccaron.sc" unicode="&#x10d;" horiz-adv-x="1316" 
d="M932 -16q-293 0 -485.5 71.5t-287.5 207.5t-95 329q0 182 97 320.5t291.5 216t487.5 77.5q75 0 152.5 -5t149.5 -17v-352q-60 9 -124.5 14.5t-135.5 5.5q-157 0 -249.5 -31.5t-132.5 -89.5t-40 -137q0 -76 39 -133.5t127.5 -90t237.5 -32.5q77 0 149 8.5t129 17.5v-352
q-67 -12 -150 -20t-160 -8zM580 1296l-332 316h364l198 -192h-76l198 192h364l-332 -316h-384z" />
    <glyph glyph-name="Dcaron" unicode="&#x10e;" horiz-adv-x="1800" 
d="M632 -14q-69 0 -155.5 3t-176.5 9t-170 16v1418q81 19 185 33t214.5 21.5t210.5 7.5q480 0 728 -182.5t248 -571.5q0 -271 -119 -437t-359.5 -241.5t-605.5 -75.5zM762 356q165 0 269 40t152.5 125.5t48.5 222.5q0 133 -51 217.5t-155 124.5t-264 40q-34 0 -78.5 -4
t-77.5 -10v-752q36 -3 74.5 -3.5t81.5 -0.5zM582 1586l-332 316h364l198 -192h-76l198 192h364l-332 -316h-384z" />
    <glyph glyph-name="dcaron.sc" unicode="&#x10f;" horiz-adv-x="1616" 
d="M600 -12q-105 0 -234.5 5t-233.5 17v1138q71 16 165 28t192.5 19t182.5 7q437 0 658.5 -146.5t221.5 -461.5q0 -221 -105.5 -354t-317 -192.5t-529.5 -59.5zM712 332q129 0 209 27.5t117.5 86t37.5 152.5q0 91 -39.5 148.5t-120.5 84.5t-206 27q-22 0 -54 -2.5t-52 -5.5
v-516q27 -1 53.5 -1.5t54.5 -0.5zM514 1296l-332 316h364l198 -192h-76l198 192h364l-332 -316h-384z" />
    <glyph glyph-name="Dcroat" unicode="&#x110;" horiz-adv-x="1800" 
d="M8 622v280h872v-280h-872zM632 -14q-69 0 -155.5 3t-176.5 9t-170 16v1418q81 19 185 33t214.5 21.5t210.5 7.5q480 0 728 -182.5t248 -571.5q0 -271 -119 -437t-359.5 -241.5t-605.5 -75.5zM762 356q165 0 269 40t152.5 125.5t48.5 222.5q0 133 -51 217.5t-155 124.5
t-264 40q-34 0 -78.5 -4t-77.5 -10v-752q36 -3 74.5 -3.5t81.5 -0.5z" />
    <glyph glyph-name="dcroat.sc" unicode="&#x111;" horiz-adv-x="1616" 
d="M2 482v252h812v-252h-812zM600 -12q-105 0 -234.5 5t-233.5 17v1138q71 16 165 28t192.5 19t182.5 7q437 0 658.5 -146.5t221.5 -461.5q0 -221 -105.5 -354t-317 -192.5t-529.5 -59.5zM712 332q129 0 209 27.5t117.5 86t37.5 152.5q0 91 -39.5 148.5t-120.5 84.5t-206 27
q-22 0 -54 -2.5t-52 -5.5v-516q27 -1 53.5 -1.5t54.5 -0.5z" />
    <glyph glyph-name="Emacron" unicode="&#x112;" horiz-adv-x="1498" 
d="M130 0v1480h1272v-350h-802v-780h812v-350h-1282zM358 580v350h938v-350h-938zM344 1620v250h888v-250h-888z" />
    <glyph glyph-name="emacron.sc" unicode="&#x113;" horiz-adv-x="1366" 
d="M132 0v1190h1138v-314h-680v-562h688v-314h-1146zM358 446v314h820v-314h-820zM276 1330v250h888v-250h-888z" />
    <glyph glyph-name="Ebreve" unicode="&#x114;" horiz-adv-x="1498" 
d="M130 0v1480h1272v-350h-802v-780h812v-350h-1282zM358 580v350h938v-350h-938zM788 1586q-156 0 -258 42.5t-156.5 114t-69.5 159.5h274q15 -46 64.5 -77t145.5 -31t145.5 31t64.5 77h274q-15 -88 -70 -159.5t-156.5 -114t-257.5 -42.5z" />
    <glyph glyph-name="ebreve.sc" unicode="&#x115;" horiz-adv-x="1366" 
d="M132 0v1190h1138v-314h-680v-562h688v-314h-1146zM358 446v314h820v-314h-820zM720 1296q-156 0 -258 42.5t-156.5 114t-69.5 159.5h274q15 -46 64.5 -77t145.5 -31t145.5 31t64.5 77h274q-15 -88 -70 -159.5t-156.5 -114t-257.5 -42.5z" />
    <glyph glyph-name="Edotaccent" unicode="&#x116;" horiz-adv-x="1498" 
d="M130 0v1480h1272v-350h-802v-780h812v-350h-1282zM358 580v350h938v-350h-938zM788 1570q-144 0 -206 50.5t-62 129.5q0 80 62 130t206 50t206 -50t62 -130q0 -79 -62 -129.5t-206 -50.5z" />
    <glyph glyph-name="edotaccent.sc" unicode="&#x117;" horiz-adv-x="1366" 
d="M132 0v1190h1138v-314h-680v-562h688v-314h-1146zM358 446v314h820v-314h-820zM720 1280q-144 0 -206 50.5t-62 129.5q0 80 62 130t206 50t206 -50t62 -130q0 -79 -62 -129.5t-206 -50.5z" />
    <glyph glyph-name="Eogonek" unicode="&#x118;" horiz-adv-x="1498" 
d="M130 0v1480h1272v-350h-802v-780h812v-350h-1282zM358 580v350h938v-350h-938zM1242 -460q-169 0 -250.5 62t-81.5 164q0 65 36 124.5t121 107.5t233 80l112 -78q-92 -30 -146 -61t-77 -64.5t-23 -70.5q0 -45 35 -71.5t113 -26.5q24 0 57 5.5t75 18.5v-160
q-43 -13 -92 -21.5t-112 -8.5z" />
    <glyph glyph-name="eogonek.sc" unicode="&#x119;" horiz-adv-x="1366" 
d="M132 0v1190h1138v-314h-680v-562h688v-314h-1146zM358 446v314h820v-314h-820zM1192 -460q-169 0 -250.5 62t-81.5 164q0 65 36 124.5t121 107.5t233 80l112 -78q-92 -30 -146 -61t-77 -64.5t-23 -70.5q0 -45 35 -71.5t113 -26.5q24 0 57 5.5t75 18.5v-160
q-43 -13 -92 -21.5t-112 -8.5z" />
    <glyph glyph-name="Ecaron" unicode="&#x11a;" horiz-adv-x="1498" 
d="M130 0v1480h1272v-350h-802v-780h812v-350h-1282zM358 580v350h938v-350h-938zM596 1586l-332 316h364l198 -192h-76l198 192h364l-332 -316h-384z" />
    <glyph glyph-name="ecaron.sc" unicode="&#x11b;" horiz-adv-x="1366" 
d="M132 0v1190h1138v-314h-680v-562h688v-314h-1146zM358 446v314h820v-314h-820zM528 1296l-332 316h364l198 -192h-76l198 192h364l-332 -316h-384z" />
    <glyph glyph-name="Gcircumflex" unicode="&#x11c;" horiz-adv-x="1678" 
d="M1096 -20q-344 0 -568.5 86t-334 253.5t-109.5 412.5q0 235 113 407.5t342.5 266.5t580.5 94q83 0 179 -7.5t183 -24.5v-376q-73 14 -156.5 21t-169.5 7q-213 0 -339.5 -45t-182.5 -133.5t-56 -217.5q0 -114 51 -196.5t159 -127t280 -44.5q69 0 146.5 5.5t141.5 14.5
l-258 -222v566h442v-700q-109 -18 -219.5 -29t-224.5 -11zM416 1586l332 316h384l332 -316h-364l-198 192h76l-198 -192h-364z" />
    <glyph glyph-name="gcircumflex.sc" unicode="&#x11d;" horiz-adv-x="1490" 
d="M980 -18q-314 0 -517 70t-301 205t-98 331q0 183 99 322.5t305.5 217.5t529.5 78q75 0 157.5 -5.5t148.5 -16.5v-352q-55 8 -125.5 14t-144.5 6q-184 0 -288 -33t-147 -94t-43 -145q0 -73 39 -129t122.5 -87.5t218.5 -31.5q54 0 120 4.5t120 11.5l-258 -208v438h438v-562
q-93 -15 -189.5 -24.5t-186.5 -9.5zM302 1296l332 316h384l332 -316h-364l-198 192h76l-198 -192h-364z" />
    <glyph glyph-name="Gbreve" unicode="&#x11e;" horiz-adv-x="1678" 
d="M1096 -20q-344 0 -568.5 86t-334 253.5t-109.5 412.5q0 235 113 407.5t342.5 266.5t580.5 94q83 0 179 -7.5t183 -24.5v-376q-73 14 -156.5 21t-169.5 7q-213 0 -339.5 -45t-182.5 -133.5t-56 -217.5q0 -114 51 -196.5t159 -127t280 -44.5q69 0 146.5 5.5t141.5 14.5
l-258 -222v566h442v-700q-109 -18 -219.5 -29t-224.5 -11zM940 1586q-156 0 -258 42.5t-156.5 114t-69.5 159.5h274q15 -46 64.5 -77t145.5 -31t145.5 31t64.5 77h274q-15 -88 -70 -159.5t-156.5 -114t-257.5 -42.5z" />
    <glyph glyph-name="gbreve.sc" unicode="&#x11f;" horiz-adv-x="1490" 
d="M980 -18q-314 0 -517 70t-301 205t-98 331q0 183 99 322.5t305.5 217.5t529.5 78q75 0 157.5 -5.5t148.5 -16.5v-352q-55 8 -125.5 14t-144.5 6q-184 0 -288 -33t-147 -94t-43 -145q0 -73 39 -129t122.5 -87.5t218.5 -31.5q54 0 120 4.5t120 11.5l-258 -208v438h438v-562
q-93 -15 -189.5 -24.5t-186.5 -9.5zM826 1296q-156 0 -258 42.5t-156.5 114t-69.5 159.5h274q15 -46 64.5 -77t145.5 -31t145.5 31t64.5 77h274q-15 -88 -70 -159.5t-156.5 -114t-257.5 -42.5z" />
    <glyph glyph-name="Gdotaccent" unicode="&#x120;" horiz-adv-x="1678" 
d="M1096 -20q-344 0 -568.5 86t-334 253.5t-109.5 412.5q0 235 113 407.5t342.5 266.5t580.5 94q83 0 179 -7.5t183 -24.5v-376q-73 14 -156.5 21t-169.5 7q-213 0 -339.5 -45t-182.5 -133.5t-56 -217.5q0 -114 51 -196.5t159 -127t280 -44.5q69 0 146.5 5.5t141.5 14.5
l-258 -222v566h442v-700q-109 -18 -219.5 -29t-224.5 -11zM940 1570q-144 0 -206 50.5t-62 129.5q0 80 62 130t206 50t206 -50t62 -130q0 -79 -62 -129.5t-206 -50.5z" />
    <glyph glyph-name="gdotaccent.sc" unicode="&#x121;" horiz-adv-x="1490" 
d="M980 -18q-314 0 -517 70t-301 205t-98 331q0 183 99 322.5t305.5 217.5t529.5 78q75 0 157.5 -5.5t148.5 -16.5v-352q-55 8 -125.5 14t-144.5 6q-184 0 -288 -33t-147 -94t-43 -145q0 -73 39 -129t122.5 -87.5t218.5 -31.5q54 0 120 4.5t120 11.5l-258 -208v438h438v-562
q-93 -15 -189.5 -24.5t-186.5 -9.5zM826 1280q-144 0 -206 50.5t-62 129.5q0 80 62 130t206 50t206 -50t62 -130q0 -79 -62 -129.5t-206 -50.5z" />
    <glyph glyph-name="uni0122" unicode="&#x122;" horiz-adv-x="1678" 
d="M1096 -20q-344 0 -568.5 86t-334 253.5t-109.5 412.5q0 235 113 407.5t342.5 266.5t580.5 94q83 0 179 -7.5t183 -24.5v-376q-73 14 -156.5 21t-169.5 7q-213 0 -339.5 -45t-182.5 -133.5t-56 -217.5q0 -114 51 -196.5t159 -127t280 -44.5q69 0 146.5 5.5t141.5 14.5
l-258 -222v566h442v-700q-109 -18 -219.5 -29t-224.5 -11zM812 -520q41 71 56.5 120t15.5 104l84 -78h-28q-139 0 -193.5 36.5t-54.5 97.5q0 65 58 100.5t190 35.5t190 -47t58 -131q0 -61 -26 -127t-70 -111h-280z" />
    <glyph glyph-name="uni0123.sc" unicode="&#x123;" horiz-adv-x="1490" 
d="M980 -18q-314 0 -517 70t-301 205t-98 331q0 183 99 322.5t305.5 217.5t529.5 78q75 0 157.5 -5.5t148.5 -16.5v-352q-55 8 -125.5 14t-144.5 6q-184 0 -288 -33t-147 -94t-43 -145q0 -73 39 -129t122.5 -87.5t218.5 -31.5q54 0 120 4.5t120 11.5l-258 -208v438h438v-562
q-93 -15 -189.5 -24.5t-186.5 -9.5zM698 -520q41 71 56.5 120t15.5 104l84 -78h-28q-139 0 -193.5 36.5t-54.5 97.5q0 65 58 100.5t190 35.5t190 -47t58 -131q0 -61 -26 -127t-70 -111h-280z" />
    <glyph glyph-name="Hcircumflex" unicode="&#x124;" horiz-adv-x="1794" 
d="M130 0v1480h476v-524h582v524h476v-1480h-476v554h-582v-554h-476zM374 1586l332 316h384l332 -316h-364l-198 192h76l-198 -192h-364z" />
    <glyph glyph-name="hcircumflex.sc" unicode="&#x125;" horiz-adv-x="1636" 
d="M132 0v1190h472v-396h428v396h472v-1190h-472v420h-428v-420h-472zM296 1296l332 316h384l332 -316h-364l-198 192h76l-198 -192h-364z" />
    <glyph glyph-name="Hbar" unicode="&#x126;" horiz-adv-x="1794" 
d="M8 1082v280h1778v-280h-1778zM130 0v1480h476v-524h582v524h476v-1480h-476v554h-582v-554h-476z" />
    <glyph glyph-name="hbar.sc" unicode="&#x127;" horiz-adv-x="1636" 
d="M2 884v224h1632v-224h-1632zM132 0v1190h472v-396h428v396h472v-1190h-472v420h-428v-420h-472z" />
    <glyph glyph-name="Itilde" unicode="&#x128;" horiz-adv-x="736" 
d="M130 0v1480h476v-1480h-476zM566 1586q-61 0 -113 12t-102 25q-46 14 -93 24.5t-100 10.5q-70 0 -123.5 -15.5t-110.5 -48.5v232q50 39 107.5 57.5t138.5 18.5q62 0 114 -12t101 -26q47 -13 94 -24.5t99 -11.5q71 0 124 15.5t110 48.5v-232q-49 -39 -107 -56.5
t-139 -17.5z" />
    <glyph glyph-name="itilde.sc" unicode="&#x129;" horiz-adv-x="736" 
d="M132 0v1190h472v-1190h-472zM566 1296q-61 0 -113 12t-102 25q-46 14 -93 24.5t-100 10.5q-70 0 -123.5 -15.5t-110.5 -48.5v232q50 39 107.5 57.5t138.5 18.5q62 0 114 -12t101 -26q47 -13 94 -24.5t99 -11.5q71 0 124 15.5t110 48.5v-232q-49 -39 -107 -56.5
t-139 -17.5z" />
    <glyph glyph-name="Imacron" unicode="&#x12a;" horiz-adv-x="736" 
d="M130 0v1480h476v-1480h-476zM-76 1620v250h888v-250h-888z" />
    <glyph glyph-name="imacron.sc" unicode="&#x12b;" horiz-adv-x="736" 
d="M132 0v1190h472v-1190h-472zM-76 1330v250h888v-250h-888z" />
    <glyph glyph-name="Ibreve" unicode="&#x12c;" horiz-adv-x="736" 
d="M130 0v1480h476v-1480h-476zM368 1586q-156 0 -258 42.5t-156.5 114t-69.5 159.5h274q15 -46 64.5 -77t145.5 -31t145.5 31t64.5 77h274q-15 -88 -70 -159.5t-156.5 -114t-257.5 -42.5z" />
    <glyph glyph-name="ibreve.sc" unicode="&#x12d;" horiz-adv-x="736" 
d="M132 0v1190h472v-1190h-472zM368 1296q-156 0 -258 42.5t-156.5 114t-69.5 159.5h274q15 -46 64.5 -77t145.5 -31t145.5 31t64.5 77h274q-15 -88 -70 -159.5t-156.5 -114t-257.5 -42.5z" />
    <glyph glyph-name="Iogonek" unicode="&#x12e;" horiz-adv-x="736" 
d="M130 0v1480h476v-1480h-476zM436 -460q-169 0 -250.5 62t-81.5 164q0 65 36 124.5t121 107.5t233 80l112 -78q-92 -30 -146 -61t-77 -64.5t-23 -70.5q0 -45 35 -71.5t113 -26.5q24 0 57 5.5t75 18.5v-160q-43 -13 -92 -21.5t-112 -8.5z" />
    <glyph glyph-name="iogonek.sc" unicode="&#x12f;" horiz-adv-x="736" 
d="M132 0v1190h472v-1190h-472zM518 -460q-169 0 -250.5 62t-81.5 164q0 65 36 124.5t121 107.5t233 80l112 -78q-92 -30 -146 -61t-77 -64.5t-23 -70.5q0 -45 35 -71.5t113 -26.5q24 0 57 5.5t75 18.5v-160q-43 -13 -92 -21.5t-112 -8.5z" />
    <glyph glyph-name="Idotaccent" unicode="&#x130;" horiz-adv-x="736" 
d="M130 0v1480h476v-1480h-476zM368 1570q-144 0 -206 50.5t-62 129.5q0 80 62 130t206 50t206 -50t62 -130q0 -79 -62 -129.5t-206 -50.5z" />
    <glyph glyph-name="dotlessi.sc" unicode="&#x131;" horiz-adv-x="736" 
d="M132 0v1190h472v-1190h-472z" />
    <glyph glyph-name="Jcircumflex" unicode="&#x134;" horiz-adv-x="736" 
d="M280 -358l-292 196q55 66 87 133.5t45.5 147.5t13.5 183v1178h472v-1162q0 -125 -30.5 -238t-102 -221t-193.5 -217zM-154 1586l332 316h384l332 -316h-364l-198 192h76l-198 -192h-364z" />
    <glyph glyph-name="jcircumflex.sc" unicode="&#x135;" horiz-adv-x="736" 
d="M310 -290l-288 182q43 50 67 100.5t33.5 111.5t9.5 142v944h472v-924q0 -102 -27 -195.5t-91.5 -182.5t-175.5 -178zM-156 1296l332 316h384l332 -316h-364l-198 192h76l-198 -192h-364z" />
    <glyph glyph-name="uni0136" unicode="&#x136;" horiz-adv-x="1546" 
d="M1082 0l-520 754l488 726h498l-522 -778l12 110l560 -812h-516zM130 0v1480h476v-1480h-476zM542 554v402h210v-402h-210zM688 -520q41 71 56.5 120t15.5 104l84 -78h-28q-139 0 -193.5 36.5t-54.5 97.5q0 65 58 100.5t190 35.5t190 -47t58 -131q0 -61 -26 -127t-70 -111
h-280z" />
    <glyph glyph-name="uni0137.sc" unicode="&#x137;" horiz-adv-x="1394" 
d="M938 0l-418 606l392 584h490l-424 -634l12 104l456 -660h-508zM132 0v1190h472v-1190h-472zM542 418v374h156v-374h-156zM626 -520q41 71 56.5 120t15.5 104l84 -78h-28q-139 0 -193.5 36.5t-54.5 97.5q0 65 58 100.5t190 35.5t190 -47t58 -131q0 -61 -26 -127t-70 -111
h-280z" />
    <glyph glyph-name="Lacute" unicode="&#x139;" horiz-adv-x="1362" 
d="M130 0v1480h476v-1112h744v-368h-1220zM154 1586l204 316h488l-272 -316h-420z" />
    <glyph glyph-name="lacute.sc" unicode="&#x13a;" horiz-adv-x="1236" 
d="M132 0v1190h472v-850h618v-340h-1090zM154 1296l204 316h488l-272 -316h-420z" />
    <glyph glyph-name="uni013B" unicode="&#x13b;" horiz-adv-x="1362" 
d="M130 0v1480h476v-1112h744v-368h-1220zM612 -520q41 71 56.5 120t15.5 104l84 -78h-28q-139 0 -193.5 36.5t-54.5 97.5q0 65 58 100.5t190 35.5t190 -47t58 -131q0 -61 -26 -127t-70 -111h-280z" />
    <glyph glyph-name="uni013C.sc" unicode="&#x13c;" horiz-adv-x="1236" 
d="M132 0v1190h472v-850h618v-340h-1090zM548 -520q41 71 56.5 120t15.5 104l84 -78h-28q-139 0 -193.5 36.5t-54.5 97.5q0 65 58 100.5t190 35.5t190 -47t58 -131q0 -61 -26 -127t-70 -111h-280z" />
    <glyph glyph-name="Lcaron" unicode="&#x13d;" horiz-adv-x="1362" 
d="M130 0v1480h476v-1112h744v-368h-1220zM884 1140q12 77 19 147t10 148.5t3 180.5h294q0 -157 -25 -275t-61 -201h-240z" />
    <glyph glyph-name="lcaron.sc" unicode="&#x13e;" horiz-adv-x="1236" 
d="M132 0v1190h472v-850h618v-340h-1090zM812 714q12 77 19 147t10 148.5t3 180.5h294q0 -157 -25 -275t-61 -201h-240z" />
    <glyph glyph-name="Ldot" unicode="&#x13f;" horiz-adv-x="1362" 
d="M130 0v1480h476v-1112h744v-368h-1220zM1038 718q-142 0 -208 54.5t-66 157.5q0 104 66 158t208 54q143 0 208.5 -54t65.5 -158q0 -103 -65.5 -157.5t-208.5 -54.5z" />
    <glyph glyph-name="ldot.sc" unicode="&#x140;" horiz-adv-x="1236" 
d="M132 0v1190h472v-850h618v-340h-1090zM959 560q-143 0 -209 54.5t-66 157.5q0 104 66 158t209 54q142 0 207.5 -54t65.5 -158q0 -103 -65.5 -157.5t-207.5 -54.5z" />
    <glyph glyph-name="Lslash" unicode="&#x141;" horiz-adv-x="1362" 
d="M-2 523v317l964 460v-317zM130 0v1480h476v-1112h744v-368h-1220z" />
    <glyph glyph-name="lslash.sc" unicode="&#x142;" horiz-adv-x="1236" 
d="M132 0v1190h472v-850h618v-340h-1090zM6 389l-2 278l924 384v-276z" />
    <glyph glyph-name="Nacute" unicode="&#x143;" horiz-adv-x="1804" 
d="M130 0v1480h476l694 -934h-74v934h448v-1480h-476l-694 934h74v-934h-448zM688 1586l204 316h488l-272 -316h-420z" />
    <glyph glyph-name="nacute.sc" unicode="&#x144;" horiz-adv-x="1642" 
d="M132 0v1190h464l540 -664h-60v664h434v-1190h-462l-542 664h60v-664h-434zM606 1296l204 316h488l-272 -316h-420z" />
    <glyph glyph-name="uni0145" unicode="&#x145;" horiz-adv-x="1804" 
d="M130 0v1480h476l694 -934h-74v934h448v-1480h-476l-694 934h74v-934h-448zM774 -520q41 71 56.5 120t15.5 104l84 -78h-28q-139 0 -193.5 36.5t-54.5 97.5q0 65 58 100.5t190 35.5t190 -47t58 -131q0 -61 -26 -127t-70 -111h-280z" />
    <glyph glyph-name="uni0146.sc" unicode="&#x146;" horiz-adv-x="1642" 
d="M132 0v1190h464l540 -664h-60v664h434v-1190h-462l-542 664h60v-664h-434zM692 -520q41 71 56.5 120t15.5 104l84 -78h-28q-139 0 -193.5 36.5t-54.5 97.5q0 65 58 100.5t190 35.5t190 -47t58 -131q0 -61 -26 -127t-70 -111h-280z" />
    <glyph glyph-name="Ncaron" unicode="&#x147;" horiz-adv-x="1804" 
d="M130 0v1480h476l694 -934h-74v934h448v-1480h-476l-694 934h74v-934h-448zM710 1586l-332 316h364l198 -192h-76l198 192h364l-332 -316h-384z" />
    <glyph glyph-name="ncaron.sc" unicode="&#x148;" horiz-adv-x="1642" 
d="M132 0v1190h464l540 -664h-60v664h434v-1190h-462l-542 664h60v-664h-434zM628 1296l-332 316h364l198 -192h-76l198 192h364l-332 -316h-384z" />
    <glyph glyph-name="Eng" unicode="&#x14a;" horiz-adv-x="1804" 
d="M1278 -104l-774 1038h74v-934h-448v1480h476l766 -1030zM1352 -476l-288 192q55 66 91 133.5t53.5 147.5t17.5 183v1300h448v-1244q0 -145 -30.5 -265.5t-101 -229t-190.5 -217.5z" />
    <glyph glyph-name="eng.sc" unicode="&#x14b;" horiz-adv-x="1642" 
d="M132 0v1190h464l540 -664l-54 -568l-576 706h60v-664h-434zM1236 -476l-276 182q43 50 68.5 100.5t36.5 111.5t11 142v1130h434v-1110q0 -102 -22 -195.5t-81.5 -182.5t-170.5 -178z" />
    <glyph glyph-name="Omacron" unicode="&#x14c;" horiz-adv-x="1892" 
d="M946 -20q-267 0 -460 92t-297.5 262.5t-104.5 405.5t104 405.5t297 262.5t461 92t461 -93t297 -263.5t104 -403.5t-104 -403.5t-297.5 -263.5t-460.5 -93zM946 348q123 0 207.5 44.5t127.5 130.5t43 209q0 131 -44.5 220t-129 134.5t-204.5 45.5t-204.5 -43.5t-129 -129
t-44.5 -211.5q0 -134 43.5 -223t127.5 -133t207 -44zM502 1620v250h888v-250h-888z" />
    <glyph glyph-name="omacron.sc" unicode="&#x14d;" horiz-adv-x="1670" 
d="M834 -16q-240 0 -412.5 76t-265 213.5t-92.5 320.5t92 321t264.5 214.5t413.5 76.5t414 -77t265.5 -215t92.5 -320q0 -181 -92.5 -318.5t-265.5 -214.5t-414 -77zM834 326q98 0 163 32t97 91t32 139q0 87 -33.5 149t-98.5 94.5t-160 32.5q-94 0 -158.5 -31t-98 -89.5
t-33.5 -141.5q0 -90 32 -151.5t96.5 -93t161.5 -31.5zM390 1330v250h888v-250h-888z" />
    <glyph glyph-name="Obreve" unicode="&#x14e;" horiz-adv-x="1892" 
d="M946 -20q-267 0 -460 92t-297.5 262.5t-104.5 405.5t104 405.5t297 262.5t461 92t461 -93t297 -263.5t104 -403.5t-104 -403.5t-297.5 -263.5t-460.5 -93zM946 348q123 0 207.5 44.5t127.5 130.5t43 209q0 131 -44.5 220t-129 134.5t-204.5 45.5t-204.5 -43.5t-129 -129
t-44.5 -211.5q0 -134 43.5 -223t127.5 -133t207 -44zM946 1586q-156 0 -258 42.5t-156.5 114t-69.5 159.5h274q15 -46 64.5 -77t145.5 -31t145.5 31t64.5 77h274q-15 -88 -70 -159.5t-156.5 -114t-257.5 -42.5z" />
    <glyph glyph-name="obreve.sc" unicode="&#x14f;" horiz-adv-x="1670" 
d="M834 -16q-240 0 -412.5 76t-265 213.5t-92.5 320.5t92 321t264.5 214.5t413.5 76.5t414 -77t265.5 -215t92.5 -320q0 -181 -92.5 -318.5t-265.5 -214.5t-414 -77zM834 326q98 0 163 32t97 91t32 139q0 87 -33.5 149t-98.5 94.5t-160 32.5q-94 0 -158.5 -31t-98 -89.5
t-33.5 -141.5q0 -90 32 -151.5t96.5 -93t161.5 -31.5zM834 1296q-156 0 -258 42.5t-156.5 114t-69.5 159.5h274q15 -46 64.5 -77t145.5 -31t145.5 31t64.5 77h274q-15 -88 -70 -159.5t-156.5 -114t-257.5 -42.5z" />
    <glyph glyph-name="Ohungarumlaut" unicode="&#x150;" horiz-adv-x="1892" 
d="M946 -20q-267 0 -460 92t-297.5 262.5t-104.5 405.5t104 405.5t297 262.5t461 92t461 -93t297 -263.5t104 -403.5t-104 -403.5t-297.5 -263.5t-460.5 -93zM946 348q123 0 207.5 44.5t127.5 130.5t43 209q0 131 -44.5 220t-129 134.5t-204.5 45.5t-204.5 -43.5t-129 -129
t-44.5 -211.5q0 -134 43.5 -223t127.5 -133t207 -44zM1020 1586l164 316h348l-188 -316h-324zM548 1586l164 316h348l-188 -316h-324z" />
    <glyph glyph-name="ohungarumlaut.sc" unicode="&#x151;" horiz-adv-x="1670" 
d="M834 -16q-240 0 -412.5 76t-265 213.5t-92.5 320.5t92 321t264.5 214.5t413.5 76.5t414 -77t265.5 -215t92.5 -320q0 -181 -92.5 -318.5t-265.5 -214.5t-414 -77zM834 326q98 0 163 32t97 91t32 139q0 87 -33.5 149t-98.5 94.5t-160 32.5q-94 0 -158.5 -31t-98 -89.5
t-33.5 -141.5q0 -90 32 -151.5t96.5 -93t161.5 -31.5zM908 1296l164 316h348l-188 -316h-324zM436 1296l164 316h348l-188 -316h-324z" />
    <glyph glyph-name="OE" unicode="&#x152;" horiz-adv-x="2506" 
d="M1152 -14q-368 0 -604.5 75.5t-350 241.5t-113.5 437q0 261 117 428t350 246.5t581 79.5q86 0 183 -7t193 -7h902v-350h-762v-780h772v-350h-912q-63 0 -126 -3.5t-121.5 -7t-108.5 -3.5zM1022 358q35 0 77.5 0.5t78.5 3.5v756q-36 3 -74 3.5t-82 0.5q-156 0 -257 -40
t-150 -125t-49 -221q0 -132 49 -215.5t150 -123t257 -39.5zM1406 580v350h898v-350h-898z" />
    <glyph glyph-name="oe.sc" unicode="&#x153;" horiz-adv-x="2202" 
d="M1024 -12q-333 0 -545.5 59.5t-313.5 192.5t-101 354q0 212 104.5 346.5t313.5 198t522 63.5q74 0 157 -6t167 -6h778v-314h-646v-562h654v-314h-790q-84 0 -160.5 -6t-139.5 -6zM892 334q18 0 50 0.5t60 1.5v518q-24 2 -52 2h-58q-122 0 -199.5 -27t-114 -85.5
t-36.5 -151.5q0 -135 83.5 -196.5t266.5 -61.5zM1224 446v314h790v-314h-790z" />
    <glyph glyph-name="Racute" unicode="&#x154;" horiz-adv-x="1578" 
d="M130 0v1432q79 19 178 34.5t201 24.5t189 9q357 0 545.5 -120.5t188.5 -381.5q0 -167 -86 -279.5t-243 -169.5t-369 -57q-31 0 -66.5 1.5t-71.5 2.5v-496h-466zM1060 0l-492 680h514l500 -680h-522zM754 820q117 0 177.5 40.5t60.5 137.5q0 61 -27.5 100.5t-83 58.5
t-139.5 19q-33 0 -73 -4t-73 -10v-332q25 -3 52.5 -5.5t54.5 -3.5t51 -1zM582 1586l204 316h488l-272 -316h-420z" />
    <glyph glyph-name="racute.sc" unicode="&#x155;" horiz-adv-x="1426" 
d="M132 0v1148q107 24 245.5 41t262.5 17q323 0 487.5 -102t164.5 -314q0 -138 -76 -231t-212 -140t-316 -47q-19 0 -44.5 1.5t-49.5 2.5v-376h-462zM912 0l-386 542h506l396 -542h-516zM708 668q74 0 112 28t38 94q0 62 -43 93t-127 31q-15 0 -44 -2.5t-50 -7.5v-230
q32 -3 58 -4.5t56 -1.5zM480 1296l204 316h488l-272 -316h-420z" />
    <glyph glyph-name="uni0156" unicode="&#x156;" horiz-adv-x="1578" 
d="M130 0v1432q79 19 178 34.5t201 24.5t189 9q357 0 545.5 -120.5t188.5 -381.5q0 -167 -86 -279.5t-243 -169.5t-369 -57q-31 0 -66.5 1.5t-71.5 2.5v-496h-466zM1060 0l-492 680h514l500 -680h-522zM754 820q117 0 177.5 40.5t60.5 137.5q0 61 -27.5 100.5t-83 58.5
t-139.5 19q-33 0 -73 -4t-73 -10v-332q25 -3 52.5 -5.5t54.5 -3.5t51 -1zM690 -520q41 71 56.5 120t15.5 104l84 -78h-28q-139 0 -193.5 36.5t-54.5 97.5q0 65 58 100.5t190 35.5t190 -47t58 -131q0 -61 -26 -127t-70 -111h-280z" />
    <glyph glyph-name="uni0157.sc" unicode="&#x157;" horiz-adv-x="1426" 
d="M132 0v1148q107 24 245.5 41t262.5 17q323 0 487.5 -102t164.5 -314q0 -138 -76 -231t-212 -140t-316 -47q-19 0 -44.5 1.5t-49.5 2.5v-376h-462zM912 0l-386 542h506l396 -542h-516zM708 668q74 0 112 28t38 94q0 62 -43 93t-127 31q-15 0 -44 -2.5t-50 -7.5v-230
q32 -3 58 -4.5t56 -1.5zM614 -520q41 71 56.5 120t15.5 104l84 -78h-28q-139 0 -193.5 36.5t-54.5 97.5q0 65 58 100.5t190 35.5t190 -47t58 -131q0 -61 -26 -127t-70 -111h-280z" />
    <glyph glyph-name="Rcaron" unicode="&#x158;" horiz-adv-x="1578" 
d="M130 0v1432q79 19 178 34.5t201 24.5t189 9q357 0 545.5 -120.5t188.5 -381.5q0 -167 -86 -279.5t-243 -169.5t-369 -57q-31 0 -66.5 1.5t-71.5 2.5v-496h-466zM1060 0l-492 680h514l500 -680h-522zM754 820q117 0 177.5 40.5t60.5 137.5q0 61 -27.5 100.5t-83 58.5
t-139.5 19q-33 0 -73 -4t-73 -10v-332q25 -3 52.5 -5.5t54.5 -3.5t51 -1zM604 1586l-332 316h364l198 -192h-76l198 192h364l-332 -316h-384z" />
    <glyph glyph-name="rcaron.sc" unicode="&#x159;" horiz-adv-x="1426" 
d="M132 0v1148q107 24 245.5 41t262.5 17q323 0 487.5 -102t164.5 -314q0 -138 -76 -231t-212 -140t-316 -47q-19 0 -44.5 1.5t-49.5 2.5v-376h-462zM912 0l-386 542h506l396 -542h-516zM708 668q74 0 112 28t38 94q0 62 -43 93t-127 31q-15 0 -44 -2.5t-50 -7.5v-230
q32 -3 58 -4.5t56 -1.5zM502 1296l-332 316h364l198 -192h-76l198 192h364l-332 -316h-384z" />
    <glyph glyph-name="Sacute" unicode="&#x15a;" horiz-adv-x="1378" 
d="M616 -20q-151 0 -277 19.5t-233 50.5v368q70 -24 161.5 -41t184.5 -26t168 -9q140 0 184 27.5t44 72.5q0 39 -31 61t-135 41l-144 28q-256 50 -365 160t-109 288q0 231 185.5 355.5t560.5 124.5q126 0 232.5 -13t185.5 -33v-368q-75 23 -184.5 37.5t-219.5 14.5
q-118 0 -181.5 -13.5t-88 -36.5t-24.5 -52q0 -34 26 -53.5t108 -36.5l144 -28q187 -36 298 -98t159.5 -150.5t48.5 -203.5q0 -150 -84.5 -259t-241 -168t-372.5 -59zM490 1586l204 316h488l-272 -316h-420z" />
    <glyph glyph-name="sacute.sc" unicode="&#x15b;" horiz-adv-x="1248" 
d="M564 -16q-132 0 -247 15t-211 37v342q72 -18 155 -31t161 -20t134 -7q80 0 119 5t51 14.5t12 22.5q0 11 -7 20.5t-31 17.5t-74 16l-138 22q-223 36 -322.5 129.5t-99.5 238.5q0 111 68 202t219 144.5t399 53.5q96 0 187.5 -9t164.5 -23v-342q-85 18 -175.5 29t-188.5 11
q-103 0 -152 -7.5t-63.5 -18.5t-14.5 -22q0 -13 15.5 -23t76.5 -21l138 -22q154 -25 251.5 -72t144 -121t46.5 -179q0 -111 -67 -202t-204 -145.5t-347 -54.5zM400 1296l204 316h488l-272 -316h-420z" />
    <glyph glyph-name="Scircumflex" unicode="&#x15c;" horiz-adv-x="1378" 
d="M616 -20q-151 0 -277 19.5t-233 50.5v368q70 -24 161.5 -41t184.5 -26t168 -9q140 0 184 27.5t44 72.5q0 39 -31 61t-135 41l-144 28q-256 50 -365 160t-109 288q0 231 185.5 355.5t560.5 124.5q126 0 232.5 -13t185.5 -33v-368q-75 23 -184.5 37.5t-219.5 14.5
q-118 0 -181.5 -13.5t-88 -36.5t-24.5 -52q0 -34 26 -53.5t108 -36.5l144 -28q187 -36 298 -98t159.5 -150.5t48.5 -203.5q0 -150 -84.5 -259t-241 -168t-372.5 -59zM180 1586l332 316h384l332 -316h-364l-198 192h76l-198 -192h-364z" />
    <glyph glyph-name="scircumflex.sc" unicode="&#x15d;" horiz-adv-x="1248" 
d="M564 -16q-132 0 -247 15t-211 37v342q72 -18 155 -31t161 -20t134 -7q80 0 119 5t51 14.5t12 22.5q0 11 -7 20.5t-31 17.5t-74 16l-138 22q-223 36 -322.5 129.5t-99.5 238.5q0 111 68 202t219 144.5t399 53.5q96 0 187.5 -9t164.5 -23v-342q-85 18 -175.5 29t-188.5 11
q-103 0 -152 -7.5t-63.5 -18.5t-14.5 -22q0 -13 15.5 -23t76.5 -21l138 -22q154 -25 251.5 -72t144 -121t46.5 -179q0 -111 -67 -202t-204 -145.5t-347 -54.5zM90 1296l332 316h384l332 -316h-364l-198 192h76l-198 -192h-364z" />
    <glyph glyph-name="Scedilla" unicode="&#x15e;" horiz-adv-x="1378" 
d="M616 -20q-151 0 -277 19.5t-233 50.5v368q70 -24 161.5 -41t184.5 -26t168 -9q140 0 184 27.5t44 72.5q0 39 -31 61t-135 41l-144 28q-256 50 -365 160t-109 288q0 231 185.5 355.5t560.5 124.5q126 0 232.5 -13t185.5 -33v-368q-75 23 -184.5 37.5t-219.5 14.5
q-118 0 -181.5 -13.5t-88 -36.5t-24.5 -52q0 -34 26 -53.5t108 -36.5l144 -28q187 -36 298 -98t159.5 -150.5t48.5 -203.5q0 -150 -84.5 -259t-241 -168t-372.5 -59zM658 -460q-67 0 -122 8.5t-106 23.5v154q48 -15 103 -22.5t103 -7.5q57 0 86.5 13.5t29.5 44.5
q0 35 -29 48.5t-85 13.5h-62v204h202v-142l-96 56q156 0 225 -52.5t69 -141.5q0 -91 -79.5 -145.5t-238.5 -54.5z" />
    <glyph glyph-name="scedilla.sc" unicode="&#x15f;" horiz-adv-x="1248" 
d="M564 -16q-132 0 -247 15t-211 37v342q72 -18 155 -31t161 -20t134 -7q80 0 119 5t51 14.5t12 22.5q0 11 -7 20.5t-31 17.5t-74 16l-138 22q-223 36 -322.5 129.5t-99.5 238.5q0 111 68 202t219 144.5t399 53.5q96 0 187.5 -9t164.5 -23v-342q-85 18 -175.5 29t-188.5 11
q-103 0 -152 -7.5t-63.5 -18.5t-14.5 -22q0 -13 15.5 -23t76.5 -21l138 -22q154 -25 251.5 -72t144 -121t46.5 -179q0 -111 -67 -202t-204 -145.5t-347 -54.5zM588 -460q-67 0 -122 8.5t-106 23.5v154q48 -15 103 -22.5t103 -7.5q57 0 86.5 13.5t29.5 44.5q0 35 -29 48.5
t-85 13.5h-62v204h202v-142l-96 56q156 0 225 -52.5t69 -141.5q0 -91 -79.5 -145.5t-238.5 -54.5z" />
    <glyph glyph-name="Scaron" unicode="&#x160;" horiz-adv-x="1378" 
d="M616 -20q-151 0 -277 19.5t-233 50.5v368q70 -24 161.5 -41t184.5 -26t168 -9q140 0 184 27.5t44 72.5q0 39 -31 61t-135 41l-144 28q-256 50 -365 160t-109 288q0 231 185.5 355.5t560.5 124.5q126 0 232.5 -13t185.5 -33v-368q-75 23 -184.5 37.5t-219.5 14.5
q-118 0 -181.5 -13.5t-88 -36.5t-24.5 -52q0 -34 26 -53.5t108 -36.5l144 -28q187 -36 298 -98t159.5 -150.5t48.5 -203.5q0 -150 -84.5 -259t-241 -168t-372.5 -59zM512 1586l-332 316h364l198 -192h-76l198 192h364l-332 -316h-384z" />
    <glyph glyph-name="scaron.sc" unicode="&#x161;" horiz-adv-x="1248" 
d="M564 -16q-132 0 -247 15t-211 37v342q72 -18 155 -31t161 -20t134 -7q80 0 119 5t51 14.5t12 22.5q0 11 -7 20.5t-31 17.5t-74 16l-138 22q-223 36 -322.5 129.5t-99.5 238.5q0 111 68 202t219 144.5t399 53.5q96 0 187.5 -9t164.5 -23v-342q-85 18 -175.5 29t-188.5 11
q-103 0 -152 -7.5t-63.5 -18.5t-14.5 -22q0 -13 15.5 -23t76.5 -21l138 -22q154 -25 251.5 -72t144 -121t46.5 -179q0 -111 -67 -202t-204 -145.5t-347 -54.5zM422 1296l-332 316h364l198 -192h-76l198 192h364l-332 -316h-384z" />
    <glyph glyph-name="uni0162" unicode="&#x162;" horiz-adv-x="1532" 
d="M528 0v1112h-506v368h1488v-368h-506v-1112h-476zM720 -460q-67 0 -122 8.5t-106 23.5v154q48 -15 103 -22.5t103 -7.5q57 0 86.5 13.5t29.5 44.5q0 35 -29 48.5t-85 13.5h-62v204h202v-142l-96 56q156 0 225 -52.5t69 -141.5q0 -91 -79.5 -145.5t-238.5 -54.5z" />
    <glyph glyph-name="uni0163.sc" unicode="&#x163;" horiz-adv-x="1360" 
d="M444 0v850h-422v340h1316v-340h-422v-850h-472zM634 -460q-67 0 -122 8.5t-106 23.5v154q48 -15 103 -22.5t103 -7.5q57 0 86.5 13.5t29.5 44.5q0 35 -29 48.5t-85 13.5h-62v204h202v-142l-96 56q156 0 225 -52.5t69 -141.5q0 -91 -79.5 -145.5t-238.5 -54.5z" />
    <glyph glyph-name="Tcaron" unicode="&#x164;" horiz-adv-x="1532" 
d="M528 0v1112h-506v368h1488v-368h-506v-1112h-476zM574 1586l-332 316h364l198 -192h-76l198 192h364l-332 -316h-384z" />
    <glyph glyph-name="tcaron.sc" unicode="&#x165;" horiz-adv-x="1360" 
d="M444 0v850h-422v340h1316v-340h-422v-850h-472zM488 1296l-332 316h364l198 -192h-76l198 192h364l-332 -316h-384z" />
    <glyph glyph-name="Tbar" unicode="&#x166;" horiz-adv-x="1532" 
d="M202 560v280h1128v-280h-1128zM528 0v1112h-506v368h1488v-368h-506v-1112h-476z" />
    <glyph glyph-name="tbar.sc" unicode="&#x167;" horiz-adv-x="1360" 
d="M444 0v850h-422v340h1316v-340h-422v-850h-472zM174 341v276h1012v-276h-1012z" />
    <glyph glyph-name="Utilde" unicode="&#x168;" horiz-adv-x="1756" 
d="M882 -20q-271 0 -438 85t-243.5 245t-76.5 384v786h476v-824q0 -154 70.5 -227t211.5 -73t211.5 73t70.5 227v824h468v-786q0 -224 -76.5 -384t-242 -245t-431.5 -85zM1080 1586q-61 0 -113 12t-102 25q-46 14 -93 24.5t-100 10.5q-70 0 -123.5 -15.5t-110.5 -48.5v232
q50 39 107.5 57.5t138.5 18.5q62 0 114 -12t101 -26q47 -13 94 -24.5t99 -11.5q71 0 124 15.5t110 48.5v-232q-49 -39 -107 -56.5t-139 -17.5z" />
    <glyph glyph-name="utilde.sc" unicode="&#x169;" horiz-adv-x="1602" 
d="M806 -16q-243 0 -392 72.5t-217.5 205.5t-68.5 316v612h472v-638q0 -109 52 -162.5t154 -53.5t154 53.5t52 162.5v638h464v-612q0 -183 -68.5 -316t-216.5 -205.5t-385 -72.5zM1004 1296q-61 0 -113 12t-102 25q-46 14 -93 24.5t-100 10.5q-70 0 -123.5 -15.5
t-110.5 -48.5v232q50 39 107.5 57.5t138.5 18.5q62 0 114 -12t101 -26q47 -13 94 -24.5t99 -11.5q71 0 124 15.5t110 48.5v-232q-49 -39 -107 -56.5t-139 -17.5z" />
    <glyph glyph-name="Umacron" unicode="&#x16a;" horiz-adv-x="1756" 
d="M882 -20q-271 0 -438 85t-243.5 245t-76.5 384v786h476v-824q0 -154 70.5 -227t211.5 -73t211.5 73t70.5 227v824h468v-786q0 -224 -76.5 -384t-242 -245t-431.5 -85zM438 1620v250h888v-250h-888z" />
    <glyph glyph-name="umacron.sc" unicode="&#x16b;" horiz-adv-x="1602" 
d="M806 -16q-243 0 -392 72.5t-217.5 205.5t-68.5 316v612h472v-638q0 -109 52 -162.5t154 -53.5t154 53.5t52 162.5v638h464v-612q0 -183 -68.5 -316t-216.5 -205.5t-385 -72.5zM362 1330v250h888v-250h-888z" />
    <glyph glyph-name="Ubreve" unicode="&#x16c;" horiz-adv-x="1756" 
d="M882 -20q-271 0 -438 85t-243.5 245t-76.5 384v786h476v-824q0 -154 70.5 -227t211.5 -73t211.5 73t70.5 227v824h468v-786q0 -224 -76.5 -384t-242 -245t-431.5 -85zM882 1586q-156 0 -258 42.5t-156.5 114t-69.5 159.5h274q15 -46 64.5 -77t145.5 -31t145.5 31t64.5 77
h274q-15 -88 -70 -159.5t-156.5 -114t-257.5 -42.5z" />
    <glyph glyph-name="ubreve.sc" unicode="&#x16d;" horiz-adv-x="1602" 
d="M806 -16q-243 0 -392 72.5t-217.5 205.5t-68.5 316v612h472v-638q0 -109 52 -162.5t154 -53.5t154 53.5t52 162.5v638h464v-612q0 -183 -68.5 -316t-216.5 -205.5t-385 -72.5zM806 1296q-156 0 -258 42.5t-156.5 114t-69.5 159.5h274q15 -46 64.5 -77t145.5 -31t145.5 31
t64.5 77h274q-15 -88 -70 -159.5t-156.5 -114t-257.5 -42.5z" />
    <glyph glyph-name="Uring" unicode="&#x16e;" horiz-adv-x="1756" 
d="M882 -20q-271 0 -438 85t-243.5 245t-76.5 384v786h476v-824q0 -154 70.5 -227t211.5 -73t211.5 73t70.5 227v824h468v-786q0 -224 -76.5 -384t-242 -245t-431.5 -85zM882 1570q-99 0 -163.5 62t-64.5 158t64.5 158t163.5 62t163.5 -62t64.5 -158t-64.5 -158t-163.5 -62z
M882 1708q35 0 56.5 22.5t21.5 59.5q0 38 -21.5 60t-55.5 22q-35 0 -57 -22t-22 -60q0 -37 22 -59.5t56 -22.5z" />
    <glyph glyph-name="uring.sc" unicode="&#x16f;" horiz-adv-x="1602" 
d="M806 -16q-243 0 -392 72.5t-217.5 205.5t-68.5 316v612h472v-638q0 -109 52 -162.5t154 -53.5t154 53.5t52 162.5v638h464v-612q0 -183 -68.5 -316t-216.5 -205.5t-385 -72.5zM806 1280q-99 0 -163.5 62t-64.5 158t64.5 158t163.5 62t163.5 -62t64.5 -158t-64.5 -158
t-163.5 -62zM806 1418q35 0 56.5 22.5t21.5 59.5q0 38 -21.5 60t-55.5 22q-35 0 -57 -22t-22 -60q0 -37 22 -59.5t56 -22.5z" />
    <glyph glyph-name="Uhungarumlaut" unicode="&#x170;" horiz-adv-x="1756" 
d="M882 -20q-271 0 -438 85t-243.5 245t-76.5 384v786h476v-824q0 -154 70.5 -227t211.5 -73t211.5 73t70.5 227v824h468v-786q0 -224 -76.5 -384t-242 -245t-431.5 -85zM956 1586l164 316h348l-188 -316h-324zM484 1586l164 316h348l-188 -316h-324z" />
    <glyph glyph-name="uhungarumlaut.sc" unicode="&#x171;" horiz-adv-x="1602" 
d="M806 -16q-243 0 -392 72.5t-217.5 205.5t-68.5 316v612h472v-638q0 -109 52 -162.5t154 -53.5t154 53.5t52 162.5v638h464v-612q0 -183 -68.5 -316t-216.5 -205.5t-385 -72.5zM880 1296l164 316h348l-188 -316h-324zM408 1296l164 316h348l-188 -316h-324z" />
    <glyph glyph-name="Uogonek" unicode="&#x172;" horiz-adv-x="1756" 
d="M970 -460q-169 0 -250.5 62t-81.5 164q0 92 73 171.5t265 130.5l-38 -88h-56q-271 0 -438 85t-243.5 245t-76.5 384v786h476v-824q0 -154 70.5 -227t211.5 -73t211.5 73t70.5 227v824h468v-786q0 -258 -101.5 -430.5t-326.5 -241.5q-124 -38 -191 -73t-93 -70.5
t-26 -74.5q0 -45 35 -71.5t113 -26.5q24 0 57 5.5t75 18.5v-160q-43 -13 -92 -21.5t-112 -8.5z" />
    <glyph glyph-name="uogonek.sc" unicode="&#x173;" horiz-adv-x="1602" 
d="M1012 1190h464v-612q0 -216 -95.5 -362t-308.5 -202q-105 -27 -165 -59.5t-85.5 -69t-25.5 -75.5q0 -48 35 -76t113 -28q24 0 57 5.5t75 18.5v-160q-43 -13 -92 -21.5t-112 -8.5q-169 0 -250.5 62t-81.5 164q0 61 32 118.5t109.5 104.5t212.5 77l-26 -82h-62
q-243 0 -392 72.5t-217.5 205.5t-68.5 316v612h472v-638q0 -109 52 -162.5t154 -53.5t154 53.5t52 162.5v638z" />
    <glyph glyph-name="Wcircumflex" unicode="&#x174;" horiz-adv-x="2748" 
d="M466 0l-442 1480h480l348 -1244h-106l380 1244h520l362 -1244h-92l356 1244h452l-442 -1480h-600l-366 1236h130l-380 -1236h-600zM850 1586l332 316h384l332 -316h-364l-198 192h76l-198 -192h-364z" />
    <glyph glyph-name="wcircumflex.sc" unicode="&#x175;" horiz-adv-x="2450" 
d="M394 0l-370 1190h472l280 -974h-104l308 974h514l290 -974h-92l292 974h442l-370 -1190h-594l-294 972h128l-308 -972h-594zM700 1296l332 316h384l332 -316h-364l-198 192h76l-198 -192h-364z" />
    <glyph glyph-name="Ycircumflex" unicode="&#x176;" horiz-adv-x="1532" 
d="M532 0v782l92 -316l-684 1014h502l402 -608h-132l392 608h468l-656 -1014l92 310v-776h-476zM240 1586l332 316h384l332 -316h-364l-198 192h76l-198 -192h-364z" />
    <glyph glyph-name="ycircumflex.sc" unicode="&#x177;" horiz-adv-x="1360" 
d="M448 0v640l90 -296l-594 846h492l320 -464h-132l312 464h460l-566 -846l90 292v-636h-472zM154 1296l332 316h384l332 -316h-364l-198 192h76l-198 -192h-364z" />
    <glyph glyph-name="Ydieresis" unicode="&#x178;" horiz-adv-x="1532" 
d="M532 0v782l92 -316l-684 1014h502l402 -608h-132l392 608h468l-656 -1014l92 310v-776h-476zM1060 1570q-120 0 -174 48t-54 132t54 132t174 48t174 -48t54 -132t-54 -132t-174 -48zM468 1570q-120 0 -174 48t-54 132t54 132t174 48t174 -48t54 -132t-54 -132t-174 -48z
" />
    <glyph glyph-name="Zacute" unicode="&#x179;" horiz-adv-x="1482" 
d="M84 0v254l760 946v-88h-750v368h1294v-254l-760 -946v88h770v-368h-1314zM528 1586l204 316h488l-272 -316h-420z" />
    <glyph glyph-name="zacute.sc" unicode="&#x17a;" horiz-adv-x="1326" 
d="M86 0v238l608 688l-2 -76h-598v340h1138v-238l-606 -688l2 76h612v-340h-1154zM450 1296l204 316h488l-272 -316h-420z" />
    <glyph glyph-name="Zdotaccent" unicode="&#x17b;" horiz-adv-x="1482" 
d="M84 0v254l760 946v-88h-750v368h1294v-254l-760 -946v88h770v-368h-1314zM742 1570q-144 0 -206 50.5t-62 129.5q0 80 62 130t206 50t206 -50t62 -130q0 -79 -62 -129.5t-206 -50.5z" />
    <glyph glyph-name="zdotaccent.sc" unicode="&#x17c;" horiz-adv-x="1326" 
d="M86 0v238l608 688l-2 -76h-598v340h1138v-238l-606 -688l2 76h612v-340h-1154zM664 1280q-144 0 -206 50.5t-62 129.5q0 80 62 130t206 50t206 -50t62 -130q0 -79 -62 -129.5t-206 -50.5z" />
    <glyph glyph-name="Zcaron" unicode="&#x17d;" horiz-adv-x="1482" 
d="M84 0v254l760 946v-88h-750v368h1294v-254l-760 -946v88h770v-368h-1314zM550 1586l-332 316h364l198 -192h-76l198 192h364l-332 -316h-384z" />
    <glyph glyph-name="zcaron.sc" unicode="&#x17e;" horiz-adv-x="1326" 
d="M86 0v238l608 688l-2 -76h-598v340h1138v-238l-606 -688l2 76h612v-340h-1154zM472 1296l-332 316h364l198 -192h-76l198 192h364l-332 -316h-384z" />
    <glyph glyph-name="uni018F" unicode="&#x18f;" horiz-adv-x="1858" 
d="M938 -20q-269 0 -462.5 92t-297.5 262.5t-104 405.5v132h1364v-322h-1032l148 162q0 -139 40.5 -224.5t126.5 -124.5t223 -39q123 0 204.5 36.5t122.5 121.5t41 230q0 157 -73.5 249.5t-216.5 132.5t-350 40q-114 0 -240 -11.5t-236 -32.5v368q122 21 254 31.5t256 10.5
q359 0 596 -84.5t354.5 -257.5t117.5 -438q0 -223 -98.5 -389.5t-285.5 -258.5t-452 -92z" />
    <glyph glyph-name="florin" unicode="&#x192;" horiz-adv-x="980" 
d="M88 -460q-58 0 -99 3t-91 9v348q30 -3 56 -4.5t54 -1.5q117 0 169.5 43.5t52.5 124.5v1038q0 162 72.5 282.5t208.5 187t325 66.5q59 0 100 -3t90 -9v-348q-30 3 -55.5 4.5t-54.5 1.5q-117 0 -169.5 -43.5t-52.5 -124.5v-1038q0 -162 -73 -282.5t-208.5 -187
t-324.5 -66.5zM50 740v360h920v-360h-920z" />
    <glyph glyph-name="Ohorn" unicode="&#x1a0;" horiz-adv-x="1892" 
d="M946 -20q-267 0 -460 92t-297.5 262.5t-104.5 405.5t104 405.5t297 262.5t461 92q58 0 124 -5t129 -10t111 -5q111 0 164.5 34t53.5 122q0 27 -2 59t-10 81h290q12 -48 15 -84t3 -68q0 -115 -43.5 -191t-123 -113.5t-187.5 -37.5v88q164 -93 251 -255t87 -375
q0 -233 -104 -403.5t-297.5 -263.5t-460.5 -93zM946 348q123 0 207.5 44.5t127.5 130.5t43 209q0 131 -44.5 220t-129 134.5t-204.5 45.5t-204.5 -43.5t-129 -129t-44.5 -211.5q0 -134 43.5 -223t127.5 -133t207 -44z" />
    <glyph glyph-name="ohorn.sc" unicode="&#x1a1;" horiz-adv-x="1670" 
d="M834 -16q-240 0 -412.5 76t-265 213.5t-92.5 320.5t92 321t264.5 214.5t413.5 76.5q49 0 108 -3.5t113.5 -7t90.5 -3.5q96 0 141 26t45 98q0 20 -1 45t-7 67h284q9 -40 11.5 -70t2.5 -54q0 -148 -85.5 -220t-226.5 -72l2 82q143 -78 218.5 -207t75.5 -293
q0 -181 -92.5 -318.5t-265.5 -214.5t-414 -77zM834 326q98 0 163 32t97 91t32 139q0 87 -33.5 149t-98.5 94.5t-160 32.5q-94 0 -158.5 -31t-98 -89.5t-33.5 -141.5q0 -90 32 -151.5t96.5 -93t161.5 -31.5z" />
    <glyph glyph-name="Uhorn" unicode="&#x1af;" horiz-adv-x="1756" 
d="M882 -20q-271 0 -438 85t-243.5 245t-76.5 384v786h476v-824q0 -154 70.5 -227t211.5 -73t211.5 73t70.5 227v824h136q111 0 164.5 34t53.5 122q0 27 -2 59t-10 81h290q12 -48 15 -84t3 -68q0 -120 -48 -198t-134 -114v-618q0 -224 -76.5 -384t-242 -245t-431.5 -85z" />
    <glyph glyph-name="uhorn.sc" unicode="&#x1b0;" horiz-adv-x="1602" 
d="M806 -16q-243 0 -392 72.5t-217.5 205.5t-68.5 316v612h472v-638q0 -109 52 -162.5t154 -53.5t154 53.5t52 162.5v638h132q96 0 141 27t45 99q0 20 -1 45t-7 67h284q9 -40 11.5 -70t2.5 -54q0 -100 -38 -165.5t-106 -100.5v-460q0 -183 -68.5 -316t-216.5 -205.5
t-385 -72.5z" />
    <glyph glyph-name="uni01C4" unicode="&#x1c4;" horiz-adv-x="3224" 
d="M632 -14q-69 0 -155.5 3t-176.5 9t-170 16v1418q81 19 185 33t214.5 21.5t210.5 7.5q480 0 728 -182.5t248 -571.5q0 -271 -119 -437t-359.5 -241.5t-605.5 -75.5zM762 356q165 0 269 40t152.5 125.5t48.5 222.5q0 133 -51 217.5t-155 124.5t-264 40q-34 0 -78.5 -4
t-77.5 -10v-752q36 -3 74.5 -3.5t81.5 -0.5zM1826 0v254l760 946v-88h-750v368h1294v-254l-760 -946v88h770v-368h-1314zM2292 1586l-332 316h364l198 -192h-76l198 192h364l-332 -316h-384z" />
    <glyph glyph-name="uni01C6.sc" unicode="&#x1c6;" horiz-adv-x="2884" 
d="M600 -12q-105 0 -234.5 5t-233.5 17v1138q71 16 165 28t192.5 19t182.5 7q437 0 658.5 -146.5t221.5 -461.5q0 -221 -105.5 -354t-317 -192.5t-529.5 -59.5zM712 332q129 0 209 27.5t117.5 86t37.5 152.5q0 91 -39.5 148.5t-120.5 84.5t-206 27q-22 0 -54 -2.5t-52 -5.5
v-516q27 -1 53.5 -1.5t54.5 -0.5zM1644 0v238l608 688l-2 -76h-598v340h1138v-238l-606 -688l2 76h612v-340h-1154zM2030 1296l-332 316h364l198 -192h-76l198 192h364l-332 -316h-384z" />
    <glyph glyph-name="uni01C7" unicode="&#x1c7;" horiz-adv-x="2098" 
d="M130 0v1480h476v-1112h744v-368h-1220zM1642 -358l-292 196q55 66 87 133.5t45.5 147.5t13.5 183v1178h472v-1162q0 -125 -30.5 -238t-102 -221t-193.5 -217z" />
    <glyph glyph-name="uni01C9.sc" unicode="&#x1c9;" horiz-adv-x="1972" 
d="M132 0v1190h472v-850h618v-340h-1090zM1546 -290l-288 182q43 50 67 100.5t33.5 111.5t9.5 142v944h472v-924q0 -102 -27 -195.5t-91.5 -182.5t-175.5 -178z" />
    <glyph glyph-name="uni01CA" unicode="&#x1ca;" horiz-adv-x="2540" 
d="M130 0v1480h476l694 -934h-74v934h448v-1480h-476l-694 934h74v-934h-448zM2084 -358l-292 196q55 66 87 133.5t45.5 147.5t13.5 183v1178h472v-1162q0 -125 -30.5 -238t-102 -221t-193.5 -217z" />
    <glyph glyph-name="uni01CC.sc" unicode="&#x1cc;" horiz-adv-x="2378" 
d="M132 0v1190h464l540 -664h-60v664h434v-1190h-462l-542 664h60v-664h-434zM1952 -290l-288 182q43 50 67 100.5t33.5 111.5t9.5 142v944h472v-924q0 -102 -27 -195.5t-91.5 -182.5t-175.5 -178z" />
    <glyph glyph-name="Gcaron" unicode="&#x1e6;" horiz-adv-x="1678" 
d="M1096 -20q-344 0 -568.5 86t-334 253.5t-109.5 412.5q0 235 113 407.5t342.5 266.5t580.5 94q83 0 179 -7.5t183 -24.5v-376q-73 14 -156.5 21t-169.5 7q-213 0 -339.5 -45t-182.5 -133.5t-56 -217.5q0 -114 51 -196.5t159 -127t280 -44.5q69 0 146.5 5.5t141.5 14.5
l-258 -222v566h442v-700q-109 -18 -219.5 -29t-224.5 -11zM748 1586l-332 316h364l198 -192h-76l198 192h364l-332 -316h-384z" />
    <glyph glyph-name="gcaron.sc" unicode="&#x1e7;" horiz-adv-x="1490" 
d="M980 -18q-314 0 -517 70t-301 205t-98 331q0 183 99 322.5t305.5 217.5t529.5 78q75 0 157.5 -5.5t148.5 -16.5v-352q-55 8 -125.5 14t-144.5 6q-184 0 -288 -33t-147 -94t-43 -145q0 -73 39 -129t122.5 -87.5t218.5 -31.5q54 0 120 4.5t120 11.5l-258 -208v438h438v-562
q-93 -15 -189.5 -24.5t-186.5 -9.5zM634 1296l-332 316h364l198 -192h-76l198 192h364l-332 -316h-384z" />
    <glyph glyph-name="uni01EA" unicode="&#x1ea;" horiz-adv-x="1892" 
d="M996 -460q-169 0 -250.5 62t-81.5 164q0 93 70 170.5t244 123.5l-22 -80h-40q-258 0 -444.5 94t-287 264.5t-100.5 401.5q0 235 104 405.5t297 262.5t461 92t461 -93t297 -263.5t104 -403.5q0 -216 -82.5 -367t-219 -241.5t-298.5 -125.5q-115 -25 -177.5 -58.5
t-86.5 -70.5t-24 -73q0 -45 35 -71.5t113 -26.5q24 0 57 5.5t75 18.5v-160q-43 -13 -92 -21.5t-112 -8.5zM946 348q123 0 207.5 44.5t127.5 130.5t43 209q0 131 -44.5 220t-129 134.5t-204.5 45.5t-204.5 -43.5t-129 -129t-44.5 -211.5q0 -134 43.5 -223t127.5 -133t207 -44
z" />
    <glyph glyph-name="uni01EB.sc" unicode="&#x1eb;" horiz-adv-x="1670" 
d="M912 -460q-169 0 -250.5 62t-81.5 164q0 61 31.5 117.5t107.5 104t211 80.5l-32 -84h-64q-240 0 -412.5 76t-265 213.5t-92.5 320.5t92 321t264.5 214.5t413.5 76.5t414 -77t265.5 -215t92.5 -320q0 -145 -58 -260.5t-168.5 -196t-267.5 -121.5q-110 -29 -170 -62.5
t-83 -70t-23 -73.5q0 -49 35 -76.5t113 -27.5q24 0 57 5.5t75 18.5v-160q-43 -13 -92 -21.5t-112 -8.5zM834 326q98 0 163 32t97 91t32 139q0 87 -33.5 149t-98.5 94.5t-160 32.5q-94 0 -158.5 -31t-98 -89.5t-33.5 -141.5q0 -90 32 -151.5t96.5 -93t161.5 -31.5z" />
    <glyph glyph-name="uni01F1" unicode="&#x1f1;" horiz-adv-x="3224" 
d="M632 -14q-69 0 -155.5 3t-176.5 9t-170 16v1418q81 19 185 33t214.5 21.5t210.5 7.5q480 0 728 -182.5t248 -571.5q0 -271 -119 -437t-359.5 -241.5t-605.5 -75.5zM762 356q165 0 269 40t152.5 125.5t48.5 222.5q0 133 -51 217.5t-155 124.5t-264 40q-34 0 -78.5 -4
t-77.5 -10v-752q36 -3 74.5 -3.5t81.5 -0.5zM1826 0v254l760 946v-88h-750v368h1294v-254l-760 -946v88h770v-368h-1314z" />
    <glyph glyph-name="uni01F3.sc" unicode="&#x1f3;" horiz-adv-x="2884" 
d="M600 -12q-105 0 -234.5 5t-233.5 17v1138q71 16 165 28t192.5 19t182.5 7q437 0 658.5 -146.5t221.5 -461.5q0 -221 -105.5 -354t-317 -192.5t-529.5 -59.5zM712 332q129 0 209 27.5t117.5 86t37.5 152.5q0 91 -39.5 148.5t-120.5 84.5t-206 27q-22 0 -54 -2.5t-52 -5.5
v-516q27 -1 53.5 -1.5t54.5 -0.5zM1644 0v238l608 688l-2 -76h-598v340h1138v-238l-606 -688l2 76h612v-340h-1154z" />
    <glyph glyph-name="uni01F4" unicode="&#x1f4;" horiz-adv-x="1678" 
d="M1096 -20q-344 0 -568.5 86t-334 253.5t-109.5 412.5q0 235 113 407.5t342.5 266.5t580.5 94q83 0 179 -7.5t183 -24.5v-376q-73 14 -156.5 21t-169.5 7q-213 0 -339.5 -45t-182.5 -133.5t-56 -217.5q0 -114 51 -196.5t159 -127t280 -44.5q69 0 146.5 5.5t141.5 14.5
l-258 -222v566h442v-700q-109 -18 -219.5 -29t-224.5 -11zM726 1586l204 316h488l-272 -316h-420z" />
    <glyph glyph-name="uni01F5.sc" unicode="&#x1f5;" horiz-adv-x="1490" 
d="M980 -18q-314 0 -517 70t-301 205t-98 331q0 183 99 322.5t305.5 217.5t529.5 78q75 0 157.5 -5.5t148.5 -16.5v-352q-55 8 -125.5 14t-144.5 6q-184 0 -288 -33t-147 -94t-43 -145q0 -73 39 -129t122.5 -87.5t218.5 -31.5q54 0 120 4.5t120 11.5l-258 -208v438h438v-562
q-93 -15 -189.5 -24.5t-186.5 -9.5zM612 1296l204 316h488l-272 -316h-420z" />
    <glyph glyph-name="Aringacute" unicode="&#x1fa;" horiz-adv-x="1760" 
d="M16 0l520 1480h688l520 -1480h-464l-422 1284h40l-422 -1284h-460zM500 334l110 350h538l108 -350h-756zM878 1570q-99 0 -163.5 62t-64.5 158t64.5 158t163.5 62t163.5 -62t64.5 -158t-64.5 -158t-163.5 -62zM878 1708q35 0 56.5 22.5t21.5 59.5q0 38 -21.5 60t-56.5 22
q-34 0 -56 -22t-22 -60q0 -37 22 -59.5t56 -22.5zM1040 1844l-180 114l136 178h296z" />
    <glyph glyph-name="aringacute.sc" unicode="&#x1fb;" horiz-adv-x="1572" 
d="M18 0l426 1190h684l426 -1190h-460l-330 1024h40l-330 -1024h-456zM464 238l108 318h426l106 -318h-640zM784 1280q-99 0 -163.5 62t-64.5 158t64.5 158t163.5 62t163.5 -62t64.5 -158t-64.5 -158t-163.5 -62zM784 1418q35 0 56.5 22.5t21.5 59.5q0 38 -21.5 60t-56.5 22
q-34 0 -56 -22t-22 -60q0 -37 22 -59.5t56 -22.5zM946 1554l-180 114l136 178h296z" />
    <glyph glyph-name="AEacute" unicode="&#x1fc;" horiz-adv-x="2382" 
d="M16 0l520 1480h666v-350h-356l-370 -1130h-460zM500 334l110 350h584v-350h-694zM1116 0l-128 1480h1298v-350h-802l78 -780h734v-350h-1180zM1242 580v350h938v-350h-938zM1022 1586l204 316h488l-272 -316h-420z" />
    <glyph glyph-name="aeacute.sc" unicode="&#x1fd;" horiz-adv-x="2128" 
d="M18 0l424 1190h640v-314h-328l-282 -876h-454zM462 244l110 314h486v-314h-596zM978 0l-110 1190h1164v-314h-684l60 -562h632v-314h-1062zM1108 446v314h832v-314h-832zM900 1296l204 316h488l-272 -316h-420z" />
    <glyph glyph-name="Oslashacute" unicode="&#x1fe;" horiz-adv-x="1892" 
d="M408 0h-312l1388 1480h312zM946 -20q-267 0 -460 92t-297.5 262.5t-104.5 405.5t104 405.5t297 262.5t461 92t461 -93t297 -263.5t104 -403.5t-104 -403.5t-297.5 -263.5t-460.5 -93zM946 348q123 0 207.5 44.5t127.5 130.5t43 209q0 131 -44.5 220t-129 134.5
t-204.5 45.5t-204.5 -43.5t-129 -129t-44.5 -211.5q0 -134 43.5 -223t127.5 -133t207 -44zM728 1586l204 316h488l-272 -316h-420z" />
    <glyph glyph-name="oslashacute.sc" unicode="&#x1ff;" horiz-adv-x="1670" 
d="M379 -46h-302l1214 1281h302zM834 -16q-240 0 -412.5 76t-265 213.5t-92.5 320.5t92 321t264.5 214.5t413.5 76.5t414 -77t265.5 -215t92.5 -320q0 -181 -92.5 -318.5t-265.5 -214.5t-414 -77zM834 326q98 0 163 32t97 91t32 139q0 87 -33.5 149t-98.5 94.5t-160 32.5
q-94 0 -158.5 -31t-98 -89.5t-33.5 -141.5q0 -90 32 -151.5t96.5 -93t161.5 -31.5zM620 1296l204 316h488l-272 -316h-420z" />
    <glyph glyph-name="uni0200" unicode="&#x200;" horiz-adv-x="1760" 
d="M16 0l520 1480h688l520 -1480h-464l-422 1284h40l-422 -1284h-460zM500 334l110 350h538l108 -350h-756zM952 1586l-188 316h348l164 -316h-324zM480 1586l-188 316h348l164 -316h-324z" />
    <glyph glyph-name="uni0201.sc" unicode="&#x201;" horiz-adv-x="1572" 
d="M18 0l426 1190h684l426 -1190h-460l-330 1024h40l-330 -1024h-456zM464 238l108 318h426l106 -318h-640zM858 1296l-188 316h348l164 -316h-324zM386 1296l-188 316h348l164 -316h-324z" />
    <glyph glyph-name="uni0202" unicode="&#x202;" horiz-adv-x="1760" 
d="M16 0l520 1480h688l520 -1480h-464l-422 1284h40l-422 -1284h-460zM500 334l110 350h538l108 -350h-756zM394 1586q15 88 69.5 159.5t156.5 114t258 42.5t257.5 -42.5t156.5 -114t70 -159.5h-274q-15 47 -64.5 77.5t-145.5 30.5t-145.5 -30.5t-64.5 -77.5h-274z" />
    <glyph glyph-name="uni0203.sc" unicode="&#x203;" horiz-adv-x="1572" 
d="M18 0l426 1190h684l426 -1190h-460l-330 1024h40l-330 -1024h-456zM464 238l108 318h426l106 -318h-640zM300 1296q15 88 69.5 159.5t156.5 114t258 42.5t257.5 -42.5t156.5 -114t70 -159.5h-274q-15 47 -64.5 77.5t-145.5 30.5t-145.5 -30.5t-64.5 -77.5h-274z" />
    <glyph glyph-name="uni0204" unicode="&#x204;" horiz-adv-x="1498" 
d="M130 0v1480h1272v-350h-802v-780h812v-350h-1282zM358 580v350h938v-350h-938zM862 1586l-188 316h348l164 -316h-324zM390 1586l-188 316h348l164 -316h-324z" />
    <glyph glyph-name="uni0205.sc" unicode="&#x205;" horiz-adv-x="1366" 
d="M132 0v1190h1138v-314h-680v-562h688v-314h-1146zM358 446v314h820v-314h-820zM794 1296l-188 316h348l164 -316h-324zM322 1296l-188 316h348l164 -316h-324z" />
    <glyph glyph-name="uni0206" unicode="&#x206;" horiz-adv-x="1498" 
d="M130 0v1480h1272v-350h-802v-780h812v-350h-1282zM358 580v350h938v-350h-938zM304 1586q15 88 69.5 159.5t156.5 114t258 42.5t257.5 -42.5t156.5 -114t70 -159.5h-274q-15 47 -64.5 77.5t-145.5 30.5t-145.5 -30.5t-64.5 -77.5h-274z" />
    <glyph glyph-name="uni0207.sc" unicode="&#x207;" horiz-adv-x="1366" 
d="M132 0v1190h1138v-314h-680v-562h688v-314h-1146zM358 446v314h820v-314h-820zM236 1296q15 88 69.5 159.5t156.5 114t258 42.5t257.5 -42.5t156.5 -114t70 -159.5h-274q-15 47 -64.5 77.5t-145.5 30.5t-145.5 -30.5t-64.5 -77.5h-274z" />
    <glyph glyph-name="uni0208" unicode="&#x208;" horiz-adv-x="736" 
d="M130 0v1480h476v-1480h-476zM442 1586l-188 316h348l164 -316h-324zM-30 1586l-188 316h348l164 -316h-324z" />
    <glyph glyph-name="uni0209.sc" unicode="&#x209;" horiz-adv-x="736" 
d="M132 0v1190h472v-1190h-472zM442 1296l-188 316h348l164 -316h-324zM-30 1296l-188 316h348l164 -316h-324z" />
    <glyph glyph-name="uni020A" unicode="&#x20a;" horiz-adv-x="736" 
d="M130 0v1480h476v-1480h-476zM-116 1586q15 88 69.5 159.5t156.5 114t258 42.5t257.5 -42.5t156.5 -114t70 -159.5h-274q-15 47 -64.5 77.5t-145.5 30.5t-145.5 -30.5t-64.5 -77.5h-274z" />
    <glyph glyph-name="uni020B.sc" unicode="&#x20b;" horiz-adv-x="736" 
d="M132 0v1190h472v-1190h-472zM-116 1296q15 88 69.5 159.5t156.5 114t258 42.5t257.5 -42.5t156.5 -114t70 -159.5h-274q-15 47 -64.5 77.5t-145.5 30.5t-145.5 -30.5t-64.5 -77.5h-274z" />
    <glyph glyph-name="uni020C" unicode="&#x20c;" horiz-adv-x="1892" 
d="M946 -20q-267 0 -460 92t-297.5 262.5t-104.5 405.5t104 405.5t297 262.5t461 92t461 -93t297 -263.5t104 -403.5t-104 -403.5t-297.5 -263.5t-460.5 -93zM946 348q123 0 207.5 44.5t127.5 130.5t43 209q0 131 -44.5 220t-129 134.5t-204.5 45.5t-204.5 -43.5t-129 -129
t-44.5 -211.5q0 -134 43.5 -223t127.5 -133t207 -44zM1020 1586l-188 316h348l164 -316h-324zM548 1586l-188 316h348l164 -316h-324z" />
    <glyph glyph-name="uni020D.sc" unicode="&#x20d;" horiz-adv-x="1670" 
d="M834 -16q-240 0 -412.5 76t-265 213.5t-92.5 320.5t92 321t264.5 214.5t413.5 76.5t414 -77t265.5 -215t92.5 -320q0 -181 -92.5 -318.5t-265.5 -214.5t-414 -77zM834 326q98 0 163 32t97 91t32 139q0 87 -33.5 149t-98.5 94.5t-160 32.5q-94 0 -158.5 -31t-98 -89.5
t-33.5 -141.5q0 -90 32 -151.5t96.5 -93t161.5 -31.5zM908 1296l-188 316h348l164 -316h-324zM436 1296l-188 316h348l164 -316h-324z" />
    <glyph glyph-name="uni020E" unicode="&#x20e;" horiz-adv-x="1892" 
d="M946 -20q-267 0 -460 92t-297.5 262.5t-104.5 405.5t104 405.5t297 262.5t461 92t461 -93t297 -263.5t104 -403.5t-104 -403.5t-297.5 -263.5t-460.5 -93zM946 348q123 0 207.5 44.5t127.5 130.5t43 209q0 131 -44.5 220t-129 134.5t-204.5 45.5t-204.5 -43.5t-129 -129
t-44.5 -211.5q0 -134 43.5 -223t127.5 -133t207 -44zM462 1586q15 88 69.5 159.5t156.5 114t258 42.5t257.5 -42.5t156.5 -114t70 -159.5h-274q-15 47 -64.5 77.5t-145.5 30.5t-145.5 -30.5t-64.5 -77.5h-274z" />
    <glyph glyph-name="uni020F.sc" unicode="&#x20f;" horiz-adv-x="1670" 
d="M834 -16q-240 0 -412.5 76t-265 213.5t-92.5 320.5t92 321t264.5 214.5t413.5 76.5t414 -77t265.5 -215t92.5 -320q0 -181 -92.5 -318.5t-265.5 -214.5t-414 -77zM834 326q98 0 163 32t97 91t32 139q0 87 -33.5 149t-98.5 94.5t-160 32.5q-94 0 -158.5 -31t-98 -89.5
t-33.5 -141.5q0 -90 32 -151.5t96.5 -93t161.5 -31.5zM350 1296q15 88 69.5 159.5t156.5 114t258 42.5t257.5 -42.5t156.5 -114t70 -159.5h-274q-15 47 -64.5 77.5t-145.5 30.5t-145.5 -30.5t-64.5 -77.5h-274z" />
    <glyph glyph-name="uni0210" unicode="&#x210;" horiz-adv-x="1578" 
d="M130 0v1432q79 19 178 34.5t201 24.5t189 9q357 0 545.5 -120.5t188.5 -381.5q0 -167 -86 -279.5t-243 -169.5t-369 -57q-31 0 -66.5 1.5t-71.5 2.5v-496h-466zM1060 0l-492 680h514l500 -680h-522zM754 820q117 0 177.5 40.5t60.5 137.5q0 61 -27.5 100.5t-83 58.5
t-139.5 19q-33 0 -73 -4t-73 -10v-332q25 -3 52.5 -5.5t54.5 -3.5t51 -1zM870 1586l-188 316h348l164 -316h-324zM398 1586l-188 316h348l164 -316h-324z" />
    <glyph glyph-name="uni0211.sc" unicode="&#x211;" horiz-adv-x="1426" 
d="M132 0v1148q107 24 245.5 41t262.5 17q323 0 487.5 -102t164.5 -314q0 -138 -76 -231t-212 -140t-316 -47q-19 0 -44.5 1.5t-49.5 2.5v-376h-462zM912 0l-386 542h506l396 -542h-516zM708 668q74 0 112 28t38 94q0 62 -43 93t-127 31q-15 0 -44 -2.5t-50 -7.5v-230
q32 -3 58 -4.5t56 -1.5zM768 1296l-188 316h348l164 -316h-324zM296 1296l-188 316h348l164 -316h-324z" />
    <glyph glyph-name="uni0212" unicode="&#x212;" horiz-adv-x="1578" 
d="M130 0v1432q79 19 178 34.5t201 24.5t189 9q357 0 545.5 -120.5t188.5 -381.5q0 -167 -86 -279.5t-243 -169.5t-369 -57q-31 0 -66.5 1.5t-71.5 2.5v-496h-466zM1060 0l-492 680h514l500 -680h-522zM754 820q117 0 177.5 40.5t60.5 137.5q0 61 -27.5 100.5t-83 58.5
t-139.5 19q-33 0 -73 -4t-73 -10v-332q25 -3 52.5 -5.5t54.5 -3.5t51 -1zM312 1586q15 88 69.5 159.5t156.5 114t258 42.5t257.5 -42.5t156.5 -114t70 -159.5h-274q-15 47 -64.5 77.5t-145.5 30.5t-145.5 -30.5t-64.5 -77.5h-274z" />
    <glyph glyph-name="uni0213.sc" unicode="&#x213;" horiz-adv-x="1426" 
d="M132 0v1148q107 24 245.5 41t262.5 17q323 0 487.5 -102t164.5 -314q0 -138 -76 -231t-212 -140t-316 -47q-19 0 -44.5 1.5t-49.5 2.5v-376h-462zM912 0l-386 542h506l396 -542h-516zM708 668q74 0 112 28t38 94q0 62 -43 93t-127 31q-15 0 -44 -2.5t-50 -7.5v-230
q32 -3 58 -4.5t56 -1.5zM210 1296q15 88 69.5 159.5t156.5 114t258 42.5t257.5 -42.5t156.5 -114t70 -159.5h-274q-15 47 -64.5 77.5t-145.5 30.5t-145.5 -30.5t-64.5 -77.5h-274z" />
    <glyph glyph-name="uni0214" unicode="&#x214;" horiz-adv-x="1756" 
d="M882 -20q-271 0 -438 85t-243.5 245t-76.5 384v786h476v-824q0 -154 70.5 -227t211.5 -73t211.5 73t70.5 227v824h468v-786q0 -224 -76.5 -384t-242 -245t-431.5 -85zM956 1586l-188 316h348l164 -316h-324zM484 1586l-188 316h348l164 -316h-324z" />
    <glyph glyph-name="uni0215.sc" unicode="&#x215;" horiz-adv-x="1602" 
d="M806 -16q-243 0 -392 72.5t-217.5 205.5t-68.5 316v612h472v-638q0 -109 52 -162.5t154 -53.5t154 53.5t52 162.5v638h464v-612q0 -183 -68.5 -316t-216.5 -205.5t-385 -72.5zM880 1296l-188 316h348l164 -316h-324zM408 1296l-188 316h348l164 -316h-324z" />
    <glyph glyph-name="uni0216" unicode="&#x216;" horiz-adv-x="1756" 
d="M882 -20q-271 0 -438 85t-243.5 245t-76.5 384v786h476v-824q0 -154 70.5 -227t211.5 -73t211.5 73t70.5 227v824h468v-786q0 -224 -76.5 -384t-242 -245t-431.5 -85zM398 1586q15 88 69.5 159.5t156.5 114t258 42.5t257.5 -42.5t156.5 -114t70 -159.5h-274
q-15 47 -64.5 77.5t-145.5 30.5t-145.5 -30.5t-64.5 -77.5h-274z" />
    <glyph glyph-name="uni0217.sc" unicode="&#x217;" horiz-adv-x="1602" 
d="M806 -16q-243 0 -392 72.5t-217.5 205.5t-68.5 316v612h472v-638q0 -109 52 -162.5t154 -53.5t154 53.5t52 162.5v638h464v-612q0 -183 -68.5 -316t-216.5 -205.5t-385 -72.5zM322 1296q15 88 69.5 159.5t156.5 114t258 42.5t257.5 -42.5t156.5 -114t70 -159.5h-274
q-15 47 -64.5 77.5t-145.5 30.5t-145.5 -30.5t-64.5 -77.5h-274z" />
    <glyph glyph-name="uni0218" unicode="&#x218;" horiz-adv-x="1378" 
d="M616 -20q-151 0 -277 19.5t-233 50.5v368q70 -24 161.5 -41t184.5 -26t168 -9q140 0 184 27.5t44 72.5q0 39 -31 61t-135 41l-144 28q-256 50 -365 160t-109 288q0 231 185.5 355.5t560.5 124.5q126 0 232.5 -13t185.5 -33v-368q-75 23 -184.5 37.5t-219.5 14.5
q-118 0 -181.5 -13.5t-88 -36.5t-24.5 -52q0 -34 26 -53.5t108 -36.5l144 -28q187 -36 298 -98t159.5 -150.5t48.5 -203.5q0 -150 -84.5 -259t-241 -168t-372.5 -59zM576 -520q41 71 56.5 120t15.5 104l84 -78h-28q-139 0 -193.5 36.5t-54.5 97.5q0 65 58 100.5t190 35.5
t190 -47t58 -131q0 -61 -26 -127t-70 -111h-280z" />
    <glyph glyph-name="uni0219.sc" unicode="&#x219;" horiz-adv-x="1248" 
d="M564 -16q-132 0 -247 15t-211 37v342q72 -18 155 -31t161 -20t134 -7q80 0 119 5t51 14.5t12 22.5q0 11 -7 20.5t-31 17.5t-74 16l-138 22q-223 36 -322.5 129.5t-99.5 238.5q0 111 68 202t219 144.5t399 53.5q96 0 187.5 -9t164.5 -23v-342q-85 18 -175.5 29t-188.5 11
q-103 0 -152 -7.5t-63.5 -18.5t-14.5 -22q0 -13 15.5 -23t76.5 -21l138 -22q154 -25 251.5 -72t144 -121t46.5 -179q0 -111 -67 -202t-204 -145.5t-347 -54.5zM506 -520q41 71 56.5 120t15.5 104l84 -78h-28q-139 0 -193.5 36.5t-54.5 97.5q0 65 58 100.5t190 35.5t190 -47
t58 -131q0 -61 -26 -127t-70 -111h-280z" />
    <glyph glyph-name="uni021A" unicode="&#x21a;" horiz-adv-x="1532" 
d="M528 0v1112h-506v368h1488v-368h-506v-1112h-476zM638 -520q41 71 56.5 120t15.5 104l84 -78h-28q-139 0 -193.5 36.5t-54.5 97.5q0 65 58 100.5t190 35.5t190 -47t58 -131q0 -61 -26 -127t-70 -111h-280z" />
    <glyph glyph-name="uni021B.sc" unicode="&#x21b;" horiz-adv-x="1360" 
d="M444 0v850h-422v340h1316v-340h-422v-850h-472zM552 -520q41 71 56.5 120t15.5 104l84 -78h-28q-139 0 -193.5 36.5t-54.5 97.5q0 65 58 100.5t190 35.5t190 -47t58 -131q0 -61 -26 -127t-70 -111h-280z" />
    <glyph glyph-name="uni022A" unicode="&#x22a;" horiz-adv-x="1892" 
d="M946 -20q-267 0 -460 92t-297.5 262.5t-104.5 405.5t104 405.5t297 262.5t461 92t461 -93t297 -263.5t104 -403.5t-104 -403.5t-297.5 -263.5t-460.5 -93zM946 348q123 0 207.5 44.5t127.5 130.5t43 209q0 131 -44.5 220t-129 134.5t-204.5 45.5t-204.5 -43.5t-129 -129
t-44.5 -211.5q0 -134 43.5 -223t127.5 -133t207 -44zM1242 1570q-120 0 -174 48t-54 132t54 132t174 48t174 -48t54 -132t-54 -132t-174 -48zM650 1570q-120 0 -174 48t-54 132t54 132t174 48t174 -48t54 -132t-54 -132t-174 -48zM502 2020v250h888v-250h-888z" />
    <glyph glyph-name="uni022B.sc" unicode="&#x22b;" horiz-adv-x="1670" 
d="M834 -16q-240 0 -412.5 76t-265 213.5t-92.5 320.5t92 321t264.5 214.5t413.5 76.5t414 -77t265.5 -215t92.5 -320q0 -181 -92.5 -318.5t-265.5 -214.5t-414 -77zM834 326q98 0 163 32t97 91t32 139q0 87 -33.5 149t-98.5 94.5t-160 32.5q-94 0 -158.5 -31t-98 -89.5
t-33.5 -141.5q0 -90 32 -151.5t96.5 -93t161.5 -31.5zM1130 1280q-120 0 -174 48t-54 132t54 132t174 48t174 -48t54 -132t-54 -132t-174 -48zM538 1280q-120 0 -174 48t-54 132t54 132t174 48t174 -48t54 -132t-54 -132t-174 -48zM390 1730v250h888v-250h-888z" />
    <glyph glyph-name="uni022C" unicode="&#x22c;" horiz-adv-x="1892" 
d="M946 -20q-267 0 -460 92t-297.5 262.5t-104.5 405.5t104 405.5t297 262.5t461 92t461 -93t297 -263.5t104 -403.5t-104 -403.5t-297.5 -263.5t-460.5 -93zM946 348q123 0 207.5 44.5t127.5 130.5t43 209q0 131 -44.5 220t-129 134.5t-204.5 45.5t-204.5 -43.5t-129 -129
t-44.5 -211.5q0 -134 43.5 -223t127.5 -133t207 -44zM1144 1586q-61 0 -113 12t-102 25q-46 14 -93 24.5t-100 10.5q-70 0 -123.5 -15.5t-110.5 -48.5v232q50 39 107.5 57.5t138.5 18.5q62 0 114 -12t101 -26q47 -13 94 -24.5t99 -11.5q71 0 124 15.5t110 48.5v-232
q-49 -39 -107 -56.5t-139 -17.5zM502 2020v250h888v-250h-888z" />
    <glyph glyph-name="uni022D.sc" unicode="&#x22d;" horiz-adv-x="1670" 
d="M834 -16q-240 0 -412.5 76t-265 213.5t-92.5 320.5t92 321t264.5 214.5t413.5 76.5t414 -77t265.5 -215t92.5 -320q0 -181 -92.5 -318.5t-265.5 -214.5t-414 -77zM834 326q98 0 163 32t97 91t32 139q0 87 -33.5 149t-98.5 94.5t-160 32.5q-94 0 -158.5 -31t-98 -89.5
t-33.5 -141.5q0 -90 32 -151.5t96.5 -93t161.5 -31.5zM1032 1296q-61 0 -113 12t-102 25q-46 14 -93 24.5t-100 10.5q-70 0 -123.5 -15.5t-110.5 -48.5v232q50 39 107.5 57.5t138.5 18.5q62 0 114 -12t101 -26q47 -13 94 -24.5t99 -11.5q71 0 124 15.5t110 48.5v-232
q-49 -39 -107 -56.5t-139 -17.5zM390 1730v250h888v-250h-888z" />
    <glyph glyph-name="uni0230" unicode="&#x230;" horiz-adv-x="1892" 
d="M946 -20q-267 0 -460 92t-297.5 262.5t-104.5 405.5t104 405.5t297 262.5t461 92t461 -93t297 -263.5t104 -403.5t-104 -403.5t-297.5 -263.5t-460.5 -93zM946 348q123 0 207.5 44.5t127.5 130.5t43 209q0 131 -44.5 220t-129 134.5t-204.5 45.5t-204.5 -43.5t-129 -129
t-44.5 -211.5q0 -134 43.5 -223t127.5 -133t207 -44zM946 1570q-144 0 -206 50.5t-62 129.5q0 80 62 130t206 50t206 -50t62 -130q0 -79 -62 -129.5t-206 -50.5zM502 2020v250h888v-250h-888z" />
    <glyph glyph-name="uni0231.sc" unicode="&#x231;" horiz-adv-x="1670" 
d="M834 -16q-240 0 -412.5 76t-265 213.5t-92.5 320.5t92 321t264.5 214.5t413.5 76.5t414 -77t265.5 -215t92.5 -320q0 -181 -92.5 -318.5t-265.5 -214.5t-414 -77zM834 326q98 0 163 32t97 91t32 139q0 87 -33.5 149t-98.5 94.5t-160 32.5q-94 0 -158.5 -31t-98 -89.5
t-33.5 -141.5q0 -90 32 -151.5t96.5 -93t161.5 -31.5zM834 1280q-144 0 -206 50.5t-62 129.5q0 80 62 130t206 50t206 -50t62 -130q0 -79 -62 -129.5t-206 -50.5zM390 1730v250h888v-250h-888z" />
    <glyph glyph-name="uni0232" unicode="&#x232;" horiz-adv-x="1532" 
d="M532 0v782l92 -316l-684 1014h502l402 -608h-132l392 608h468l-656 -1014l92 310v-776h-476zM320 1620v250h888v-250h-888z" />
    <glyph glyph-name="uni0233.sc" unicode="&#x233;" horiz-adv-x="1360" 
d="M448 0v640l90 -296l-594 846h492l320 -464h-132l312 464h460l-566 -846l90 292v-636h-472zM234 1330v250h888v-250h-888z" />
    <glyph glyph-name="uni0259.sc" unicode="&#x259;" horiz-adv-x="1632" 
d="M824 -16q-240 0 -412.5 76.5t-265 214.5t-92.5 323v112h1180v-282h-850l138 140q0 -95 29.5 -155t96.5 -88.5t180 -28.5q101 0 164.5 26t93.5 85.5t30 160.5q0 111 -59.5 176t-175 93.5t-283.5 28.5q-115 0 -227 -9.5t-207 -26.5v344q104 17 222 24.5t226 7.5
q325 0 537 -68.5t315.5 -208.5t103.5 -353q0 -172 -87.5 -305.5t-254 -210t-402.5 -76.5z" />
    <glyph glyph-name="uni02BB" unicode="&#x2bb;" horiz-adv-x="1200" 
d="M600 1212q-132 0 -190 47t-58 131q0 62 26.5 127.5t69.5 110.5h280q-40 -70 -56 -119t-16 -105l-84 78h28q140 0 194 -36t54 -98q0 -64 -58 -100t-190 -36z" />
    <glyph glyph-name="uni02BC" unicode="&#x2bc;" horiz-adv-x="1200" 
d="M720 1212q41 71 56.5 120t15.5 104l84 -78h-28q-139 0 -193.5 36.5t-54.5 97.5q0 65 58 100.5t190 35.5t190 -47t58 -131q0 -61 -26 -127t-70 -111h-280z" />
    <glyph glyph-name="uni02BE" unicode="&#x2be;" horiz-adv-x="1200" 
d="M600 1214v138q35 0 56.5 22.5t21.5 59.5q0 38 -21.5 60t-56.5 22v138q99 0 163.5 -62t64.5 -158t-64.5 -158t-163.5 -62z" />
    <glyph glyph-name="uni02BF" unicode="&#x2bf;" horiz-adv-x="1200" 
d="M600 1214q-99 0 -163.5 62t-64.5 158t64.5 158t163.5 62v-138q-34 0 -56 -22t-22 -60q0 -37 22 -59.5t56 -22.5v-138z" />
    <glyph glyph-name="circumflex" unicode="&#x2c6;" horiz-adv-x="1200" 
d="M136 1220l286 396h356l286 -396h-334l-164 236h68l-164 -236h-334z" />
    <glyph glyph-name="caron" unicode="&#x2c7;" horiz-adv-x="1200" 
d="M422 1220l-286 396h334l164 -236h-68l164 236h334l-286 -396h-356z" />
    <glyph glyph-name="uni02C8" unicode="&#x2c8;" horiz-adv-x="1200" 
d="M510 1218v400h180v-400h-180z" />
    <glyph glyph-name="uni02C9" unicode="&#x2c9;" horiz-adv-x="1200" 
d="M184 1294v250h832v-250h-832z" />
    <glyph glyph-name="uni02CA" unicode="&#x2ca;" horiz-adv-x="1200" 
d="M370 1220l258 396h528l-326 -396h-460z" />
    <glyph glyph-name="uni02CB" unicode="&#x2cb;" horiz-adv-x="1200" 
d="M370 1220l-326 396h528l258 -396h-460z" />
    <glyph glyph-name="uni02CC" unicode="&#x2cc;" horiz-adv-x="1200" 
d="M510 -440v400h180v-400h-180z" />
    <glyph glyph-name="breve" unicode="&#x2d8;" horiz-adv-x="1200" 
d="M600 1224q-217 0 -333 100t-127 272h270q9 -73 54 -113.5t136 -40.5q92 0 136.5 40.5t53.5 113.5h270q-10 -172 -126 -272t-334 -100z" />
    <glyph glyph-name="dotaccent" unicode="&#x2d9;" horiz-adv-x="1200" 
d="M600 1206q-142 0 -208 54.5t-66 157.5q0 104 66 158t208 54q143 0 208.5 -54t65.5 -158q0 -103 -65.5 -157.5t-208.5 -54.5z" />
    <glyph glyph-name="ring" unicode="&#x2da;" horiz-adv-x="1200" 
d="M600 1214q-99 0 -163.5 62t-64.5 158t64.5 158t163.5 62t163.5 -62t64.5 -158t-64.5 -158t-163.5 -62zM600 1352q35 0 56.5 22.5t21.5 59.5q0 38 -21.5 60t-55.5 22q-35 0 -57 -22t-22 -60q0 -37 22 -59.5t56 -22.5z" />
    <glyph glyph-name="ogonek" unicode="&#x2db;" horiz-adv-x="1200" 
d="M430 -460q-157 0 -234.5 62t-77.5 164q0 65 33 124.5t113.5 107.5t223.5 80l112 -78q-87 -30 -136 -61t-69.5 -65.5t-20.5 -73.5q0 -42 32 -68t96 -26q24 0 54.5 5.5t63.5 18.5v-160q-40 -13 -83.5 -21.5t-106.5 -8.5z" />
    <glyph glyph-name="tilde" unicode="&#x2dc;" horiz-adv-x="1200" 
d="M778 1240q-54 0 -102 17t-93 36q-43 19 -85.5 34t-87.5 15q-64 0 -116.5 -21t-109.5 -71v262q95 86 238 86q54 0 102 -16.5t93 -36.5q43 -19 85.5 -34t87.5 -15q65 0 117 21.5t109 70.5v-262q-95 -86 -238 -86z" />
    <glyph glyph-name="hungarumlaut" unicode="&#x2dd;" horiz-adv-x="1200" 
d="M674 1220l164 396h348l-188 -396h-324zM202 1220l164 396h348l-188 -396h-324z" />
    <glyph glyph-name="gravecomb.sc" unicode="&#x300;" 
d="M390 1586l-272 316h488l204 -316h-420z" />
    <glyph glyph-name="acutecomb.sc" unicode="&#x301;" 
d="M386 1586l204 316h488l-272 -316h-420z" />
    <glyph glyph-name="uni0302.sc" unicode="&#x302;" 
d="M76 1586l332 316h384l332 -316h-364l-198 192h76l-198 -192h-364z" />
    <glyph glyph-name="tildecomb.sc" unicode="&#x303;" 
d="M798 1586q-61 0 -113 12t-102 25q-46 14 -93 24.5t-100 10.5q-70 0 -123.5 -15.5t-110.5 -48.5v232q50 39 107.5 57.5t138.5 18.5q62 0 114 -12t101 -26q47 -13 94 -24.5t99 -11.5q71 0 124 15.5t110 48.5v-232q-49 -39 -107 -56.5t-139 -17.5z" />
    <glyph glyph-name="uni0304.sc" unicode="&#x304;" 
d="M156 1620v250h888v-250h-888z" />
    <glyph glyph-name="uni0306.sc" unicode="&#x306;" 
d="M600 1586q-156 0 -258 42.5t-156.5 114t-69.5 159.5h274q15 -46 64.5 -77t145.5 -31t145.5 31t64.5 77h274q-15 -88 -70 -159.5t-156.5 -114t-257.5 -42.5z" />
    <glyph glyph-name="uni0307.sc" unicode="&#x307;" 
d="M600 1570q-144 0 -206 50.5t-62 129.5q0 80 62 130t206 50t206 -50t62 -130q0 -79 -62 -129.5t-206 -50.5z" />
    <glyph glyph-name="uni0308.sc" unicode="&#x308;" 
d="M896 1570q-120 0 -174 48t-54 132t54 132t174 48t174 -48t54 -132t-54 -132t-174 -48zM304 1570q-120 0 -174 48t-54 132t54 132t174 48t174 -48t54 -132t-54 -132t-174 -48z" />
    <glyph glyph-name="hookabovecomb.sc" unicode="&#x309;" 
d="M492 1586q3 46 41 71t77 42q27 13 46.5 24t19.5 27q0 15 -29.5 21.5t-86.5 6.5q-46 0 -95 -4t-111 -16v150q51 11 118 16.5t122 5.5q159 0 232.5 -38.5t73.5 -109.5q0 -56 -42 -87.5t-83 -54.5q-26 -13 -45.5 -26t-21.5 -28h-216z" />
    <glyph glyph-name="uni030A.sc" unicode="&#x30a;" 
d="M600 1570q-99 0 -163.5 62t-64.5 158t64.5 158t163.5 62t163.5 -62t64.5 -158t-64.5 -158t-163.5 -62zM600 1708q35 0 56.5 22.5t21.5 59.5q0 38 -21.5 60t-55.5 22q-35 0 -57 -22t-22 -60q0 -37 22 -59.5t56 -22.5z" />
    <glyph glyph-name="uni030B.sc" unicode="&#x30b;" 
d="M674 1586l164 316h348l-188 -316h-324zM202 1586l164 316h348l-188 -316h-324z" />
    <glyph glyph-name="uni030C.sc" unicode="&#x30c;" 
d="M408 1586l-332 316h364l198 -192h-76l198 192h364l-332 -316h-384z" />
    <glyph glyph-name="uni030F.sc" unicode="&#x30f;" 
d="M674 1586l-188 316h348l164 -316h-324zM202 1586l-188 316h348l164 -316h-324z" />
    <glyph glyph-name="uni0311.sc" unicode="&#x311;" 
d="M116 1586q15 88 69.5 159.5t156.5 114t258 42.5t257.5 -42.5t156.5 -114t70 -159.5h-274q-15 47 -64.5 77.5t-145.5 30.5t-145.5 -30.5t-64.5 -77.5h-274z" />
    <glyph glyph-name="uni0312.sc" unicode="&#x312;" 
d="M600 1570q-132 0 -190 47t-58 131q0 62 26.5 127.5t69.5 110.5h280q-40 -70 -56 -119t-16 -105l-84 78h28q140 0 194 -36t54 -98q0 -64 -58 -100t-190 -36z" />
    <glyph glyph-name="uni031B" unicode="&#x31b;" 
d="M400 1282v198h174q96 0 147 33t51 117q0 27 -2 59t-10 81h272q12 -48 15 -84t3 -68q0 -112 -43.5 -186.5t-123 -112t-187.5 -37.5h-296z" />
    <glyph glyph-name="dotbelowcomb.sc" unicode="&#x323;" 
d="M600 -464q-144 0 -206 50.5t-62 129.5q0 80 62 130t206 50t206 -50t62 -130q0 -79 -62 -129.5t-206 -50.5z" />
    <glyph glyph-name="uni0324.sc" unicode="&#x324;" 
d="M896 -464q-120 0 -174 48t-54 132t54 132t174 48t174 -48t54 -132t-54 -132t-174 -48zM304 -464q-120 0 -174 48t-54 132t54 132t174 48t174 -48t54 -132t-54 -132t-174 -48z" />
    <glyph glyph-name="uni0326.sc" unicode="&#x326;" 
d="M472 -520q41 71 56.5 120t15.5 104l84 -78h-28q-139 0 -193.5 36.5t-54.5 97.5q0 65 58 100.5t190 35.5t190 -47t58 -131q0 -61 -26 -127t-70 -111h-280z" />
    <glyph glyph-name="uni0327.sc" unicode="&#x327;" 
d="M554 -460q-67 0 -122 8.5t-106 23.5v154q48 -15 103 -22.5t103 -7.5q57 0 86.5 13.5t29.5 44.5q0 35 -29 48.5t-85 13.5h-62v204h202v-142l-96 56q156 0 225 -52.5t69 -141.5q0 -91 -79.5 -145.5t-238.5 -54.5z" />
    <glyph glyph-name="uni0328.sc" unicode="&#x328;" 
d="M514 -460q-169 0 -250.5 62t-81.5 164q0 65 36 124.5t121 107.5t233 80l112 -78q-92 -30 -146 -61t-77 -64.5t-23 -70.5q0 -45 35 -71.5t113 -26.5q24 0 57 5.5t75 18.5v-160q-43 -13 -92 -21.5t-112 -8.5z" />
    <glyph glyph-name="uni032E.sc" unicode="&#x32e;" 
d="M600 -452q-156 0 -258 42.5t-156.5 114t-69.5 159.5h274q15 -46 64.5 -77t145.5 -31t145.5 31t64.5 77h274q-15 -88 -70 -159.5t-156.5 -114t-257.5 -42.5z" />
    <glyph glyph-name="uni0331.sc" unicode="&#x331;" 
d="M156 -398v250h888v-250h-888z" />
    <glyph glyph-name="uni0394" unicode="&#x394;" horiz-adv-x="1760" 
d="M16 0l520 1480h688l520 -1480h-1728zM528 154l-22 196h744l-22 -196l-370 1130h40z" />
    <glyph glyph-name="uni03A9" unicode="&#x3a9;" horiz-adv-x="1892" 
d="M84 0v342h452l100 -182q-175 47 -298.5 132.5t-188.5 212t-65 295.5q0 206 104.5 364t297.5 247t460 89t460.5 -89t297.5 -247t104 -364q0 -169 -65 -295.5t-188.5 -212t-298.5 -132.5l100 182h452v-342h-744v264q84 69 142 144.5t88 159.5t30 180q0 124 -43.5 209.5
t-128 130t-206.5 44.5t-206.5 -44.5t-128 -130t-43.5 -209.5q0 -96 30 -180t88 -159.5t142 -144.5v-264h-744z" />
    <glyph glyph-name="uni03BC" unicode="&#x3bc;" horiz-adv-x="1452" 
d="M672 -18q-104 0 -183.5 52.5t-124 165t-44.5 292.5v208h252v-182q0 -87 33.5 -119.5t94.5 -32.5q33 0 65 8t59.5 22.5t47.5 33.5v670h464v-1100h-378l-28 96h-16q-49 -54 -111.5 -84t-130.5 -30zM108 -440v1538h464v-1538h-464z" />
    <glyph glyph-name="pi" unicode="&#x3c0;" horiz-adv-x="1718" 
d="M1404 -22q-240 0 -364 111.5t-124 334.5v492h464v-404q0 -99 37 -134.5t125 -35.5q26 0 53 3t61 9v-348q-49 -10 -119 -19t-133 -9zM222 0v916h464v-916h-464zM42 740v360h1518v-360h-1518z" />
    <glyph glyph-name="uni1E08" unicode="&#x1e08;" horiz-adv-x="1488" 
d="M1048 -20q-240 0 -420.5 48.5t-301.5 144t-181.5 237t-60.5 326.5q0 233 109.5 404.5t326 265.5t538.5 94q95 0 184 -7.5t174 -24.5v-376q-73 14 -152 21t-166 7q-185 0 -298.5 -44t-165.5 -129t-52 -207t51 -207t160.5 -129t284.5 -44q93 0 179 10.5t159 25.5v-376
q-81 -18 -176.5 -29t-191.5 -11zM834 -460q-67 0 -122 8.5t-106 23.5v154q48 -15 103 -22.5t103 -7.5q57 0 86.5 13.5t29.5 44.5q0 35 -29 48.5t-85 13.5h-62v204h202v-142l-96 56q156 0 225 -52.5t69 -141.5q0 -91 -79.5 -145.5t-238.5 -54.5zM666 1586l204 316h488
l-272 -316h-420z" />
    <glyph glyph-name="uni1E09.sc" unicode="&#x1e09;" horiz-adv-x="1316" 
d="M932 -16q-293 0 -485.5 71.5t-287.5 207.5t-95 329q0 182 97 320.5t291.5 216t487.5 77.5q75 0 152.5 -5t149.5 -17v-352q-60 9 -124.5 14.5t-135.5 5.5q-157 0 -249.5 -31.5t-132.5 -89.5t-40 -137q0 -76 39 -133.5t127.5 -90t237.5 -32.5q77 0 149 8.5t129 17.5v-352
q-67 -12 -150 -20t-160 -8zM722 -460q-67 0 -122 8.5t-106 23.5v154q48 -15 103 -22.5t103 -7.5q57 0 86.5 13.5t29.5 44.5q0 35 -29 48.5t-85 13.5h-62v204h202v-142l-96 56q156 0 225 -52.5t69 -141.5q0 -91 -79.5 -145.5t-238.5 -54.5zM558 1296l204 316h488l-272 -316
h-420z" />
    <glyph glyph-name="uni1E0C" unicode="&#x1e0c;" horiz-adv-x="1800" 
d="M632 -14q-69 0 -155.5 3t-176.5 9t-170 16v1418q81 19 185 33t214.5 21.5t210.5 7.5q480 0 728 -182.5t248 -571.5q0 -271 -119 -437t-359.5 -241.5t-605.5 -75.5zM762 356q165 0 269 40t152.5 125.5t48.5 222.5q0 133 -51 217.5t-155 124.5t-264 40q-34 0 -78.5 -4
t-77.5 -10v-752q36 -3 74.5 -3.5t81.5 -0.5zM794 -464q-144 0 -206 50.5t-62 129.5q0 80 62 130t206 50t206 -50t62 -130q0 -79 -62 -129.5t-206 -50.5z" />
    <glyph glyph-name="uni1E0D.sc" unicode="&#x1e0d;" horiz-adv-x="1616" 
d="M600 -12q-105 0 -234.5 5t-233.5 17v1138q71 16 165 28t192.5 19t182.5 7q437 0 658.5 -146.5t221.5 -461.5q0 -221 -105.5 -354t-317 -192.5t-529.5 -59.5zM712 332q129 0 209 27.5t117.5 86t37.5 152.5q0 91 -39.5 148.5t-120.5 84.5t-206 27q-22 0 -54 -2.5t-52 -5.5
v-516q27 -1 53.5 -1.5t54.5 -0.5zM728 -464q-144 0 -206 50.5t-62 129.5q0 80 62 130t206 50t206 -50t62 -130q0 -79 -62 -129.5t-206 -50.5z" />
    <glyph glyph-name="uni1E0E" unicode="&#x1e0e;" horiz-adv-x="1800" 
d="M632 -14q-69 0 -155.5 3t-176.5 9t-170 16v1418q81 19 185 33t214.5 21.5t210.5 7.5q480 0 728 -182.5t248 -571.5q0 -271 -119 -437t-359.5 -241.5t-605.5 -75.5zM762 356q165 0 269 40t152.5 125.5t48.5 222.5q0 133 -51 217.5t-155 124.5t-264 40q-34 0 -78.5 -4
t-77.5 -10v-752q36 -3 74.5 -3.5t81.5 -0.5zM350 -398v250h888v-250h-888z" />
    <glyph glyph-name="uni1E0F.sc" unicode="&#x1e0f;" horiz-adv-x="1616" 
d="M600 -12q-105 0 -234.5 5t-233.5 17v1138q71 16 165 28t192.5 19t182.5 7q437 0 658.5 -146.5t221.5 -461.5q0 -221 -105.5 -354t-317 -192.5t-529.5 -59.5zM712 332q129 0 209 27.5t117.5 86t37.5 152.5q0 91 -39.5 148.5t-120.5 84.5t-206 27q-22 0 -54 -2.5t-52 -5.5
v-516q27 -1 53.5 -1.5t54.5 -0.5zM284 -398v250h888v-250h-888z" />
    <glyph glyph-name="uni1E14" unicode="&#x1e14;" horiz-adv-x="1498" 
d="M130 0v1480h1272v-350h-802v-780h812v-350h-1282zM358 580v350h938v-350h-938zM548 1986l-272 232h548l204 -232h-480zM344 1620v250h888v-250h-888z" />
    <glyph glyph-name="uni1E15.sc" unicode="&#x1e15;" horiz-adv-x="1366" 
d="M132 0v1190h1138v-314h-680v-562h688v-314h-1146zM358 446v314h820v-314h-820zM480 1696l-272 232h548l204 -232h-480zM276 1330v250h888v-250h-888z" />
    <glyph glyph-name="uni1E16" unicode="&#x1e16;" horiz-adv-x="1498" 
d="M130 0v1480h1272v-350h-802v-780h812v-350h-1282zM358 580v350h938v-350h-938zM548 1986l204 232h548l-272 -232h-480zM344 1620v250h888v-250h-888z" />
    <glyph glyph-name="uni1E17.sc" unicode="&#x1e17;" horiz-adv-x="1366" 
d="M132 0v1190h1138v-314h-680v-562h688v-314h-1146zM358 446v314h820v-314h-820zM480 1696l204 232h548l-272 -232h-480zM276 1330v250h888v-250h-888z" />
    <glyph glyph-name="uni1E1C" unicode="&#x1e1c;" horiz-adv-x="1498" 
d="M130 0v1480h1272v-350h-802v-780h812v-350h-1282zM358 580v350h938v-350h-938zM742 -460q-67 0 -122 8.5t-106 23.5v154q48 -15 103 -22.5t103 -7.5q57 0 86.5 13.5t29.5 44.5q0 35 -29 48.5t-85 13.5h-62v204h202v-142l-96 56q156 0 225 -52.5t69 -141.5
q0 -91 -79.5 -145.5t-238.5 -54.5zM788 1586q-156 0 -258 42.5t-156.5 114t-69.5 159.5h274q15 -46 64.5 -77t145.5 -31t145.5 31t64.5 77h274q-15 -88 -70 -159.5t-156.5 -114t-257.5 -42.5z" />
    <glyph glyph-name="uni1E1D.sc" unicode="&#x1e1d;" horiz-adv-x="1366" 
d="M132 0v1190h1138v-314h-680v-562h688v-314h-1146zM358 446v314h820v-314h-820zM674 -460q-67 0 -122 8.5t-106 23.5v154q48 -15 103 -22.5t103 -7.5q57 0 86.5 13.5t29.5 44.5q0 35 -29 48.5t-85 13.5h-62v204h202v-142l-96 56q156 0 225 -52.5t69 -141.5
q0 -91 -79.5 -145.5t-238.5 -54.5zM720 1296q-156 0 -258 42.5t-156.5 114t-69.5 159.5h274q15 -46 64.5 -77t145.5 -31t145.5 31t64.5 77h274q-15 -88 -70 -159.5t-156.5 -114t-257.5 -42.5z" />
    <glyph glyph-name="uni1E20" unicode="&#x1e20;" horiz-adv-x="1678" 
d="M1096 -20q-344 0 -568.5 86t-334 253.5t-109.5 412.5q0 235 113 407.5t342.5 266.5t580.5 94q83 0 179 -7.5t183 -24.5v-376q-73 14 -156.5 21t-169.5 7q-213 0 -339.5 -45t-182.5 -133.5t-56 -217.5q0 -114 51 -196.5t159 -127t280 -44.5q69 0 146.5 5.5t141.5 14.5
l-258 -222v566h442v-700q-109 -18 -219.5 -29t-224.5 -11zM496 1620v250h888v-250h-888z" />
    <glyph glyph-name="uni1E21.sc" unicode="&#x1e21;" horiz-adv-x="1490" 
d="M980 -18q-314 0 -517 70t-301 205t-98 331q0 183 99 322.5t305.5 217.5t529.5 78q75 0 157.5 -5.5t148.5 -16.5v-352q-55 8 -125.5 14t-144.5 6q-184 0 -288 -33t-147 -94t-43 -145q0 -73 39 -129t122.5 -87.5t218.5 -31.5q54 0 120 4.5t120 11.5l-258 -208v438h438v-562
q-93 -15 -189.5 -24.5t-186.5 -9.5zM382 1330v250h888v-250h-888z" />
    <glyph glyph-name="uni1E24" unicode="&#x1e24;" horiz-adv-x="1794" 
d="M130 0v1480h476v-524h582v524h476v-1480h-476v554h-582v-554h-476zM898 -464q-144 0 -206 50.5t-62 129.5q0 80 62 130t206 50t206 -50t62 -130q0 -79 -62 -129.5t-206 -50.5z" />
    <glyph glyph-name="uni1E25.sc" unicode="&#x1e25;" horiz-adv-x="1636" 
d="M132 0v1190h472v-396h428v396h472v-1190h-472v420h-428v-420h-472zM820 -464q-144 0 -206 50.5t-62 129.5q0 80 62 130t206 50t206 -50t62 -130q0 -79 -62 -129.5t-206 -50.5z" />
    <glyph glyph-name="uni1E2A" unicode="&#x1e2a;" horiz-adv-x="1794" 
d="M130 0v1480h476v-524h582v524h476v-1480h-476v554h-582v-554h-476zM898 -452q-156 0 -258 42.5t-156.5 114t-69.5 159.5h274q15 -46 64.5 -77t145.5 -31t145.5 31t64.5 77h274q-15 -88 -70 -159.5t-156.5 -114t-257.5 -42.5z" />
    <glyph glyph-name="uni1E2B.sc" unicode="&#x1e2b;" horiz-adv-x="1636" 
d="M132 0v1190h472v-396h428v396h472v-1190h-472v420h-428v-420h-472zM820 -452q-156 0 -258 42.5t-156.5 114t-69.5 159.5h274q15 -46 64.5 -77t145.5 -31t145.5 31t64.5 77h274q-15 -88 -70 -159.5t-156.5 -114t-257.5 -42.5z" />
    <glyph glyph-name="uni1E2E" unicode="&#x1e2e;" horiz-adv-x="736" 
d="M130 0v1480h476v-1480h-476zM128 1986l204 232h548l-272 -232h-480zM664 1570q-120 0 -174 48t-54 132t54 132t174 48t174 -48t54 -132t-54 -132t-174 -48zM72 1570q-120 0 -174 48t-54 132t54 132t174 48t174 -48t54 -132t-54 -132t-174 -48z" />
    <glyph glyph-name="uni1E2F.sc" unicode="&#x1e2f;" horiz-adv-x="736" 
d="M132 0v1190h472v-1190h-472zM128 1696l204 232h548l-272 -232h-480zM664 1280q-120 0 -174 48t-54 132t54 132t174 48t174 -48t54 -132t-54 -132t-174 -48zM72 1280q-120 0 -174 48t-54 132t54 132t174 48t174 -48t54 -132t-54 -132t-174 -48z" />
    <glyph glyph-name="uni1E36" unicode="&#x1e36;" horiz-adv-x="1362" 
d="M130 0v1480h476v-1112h744v-368h-1220zM740 -464q-144 0 -206 50.5t-62 129.5q0 80 62 130t206 50t206 -50t62 -130q0 -79 -62 -129.5t-206 -50.5z" />
    <glyph glyph-name="uni1E37.sc" unicode="&#x1e37;" horiz-adv-x="1236" 
d="M132 0v1190h472v-850h618v-340h-1090zM676 -464q-144 0 -206 50.5t-62 129.5q0 80 62 130t206 50t206 -50t62 -130q0 -79 -62 -129.5t-206 -50.5z" />
    <glyph glyph-name="uni1E3A" unicode="&#x1e3a;" horiz-adv-x="1362" 
d="M130 0v1480h476v-1112h744v-368h-1220zM296 -398v250h888v-250h-888z" />
    <glyph glyph-name="uni1E3B.sc" unicode="&#x1e3b;" horiz-adv-x="1236" 
d="M132 0v1190h472v-850h618v-340h-1090zM232 -398v250h888v-250h-888z" />
    <glyph glyph-name="uni1E42" unicode="&#x1e42;" horiz-adv-x="2176" 
d="M134 0v1480h578l410 -866h-54l396 866h578v-1480h-444v1098h90l-404 -878h-392l-428 878h114v-1098h-444zM1120 -464q-144 0 -206 50.5t-62 129.5q0 80 62 130t206 50t206 -50t62 -130q0 -79 -62 -129.5t-206 -50.5z" />
    <glyph glyph-name="uni1E43.sc" unicode="&#x1e43;" horiz-adv-x="1978" 
d="M136 0v1190h564l320 -636h-50l308 636h564v-1190h-432v830h80l-312 -650h-378l-336 650h104v-830h-432zM1022 -464q-144 0 -206 50.5t-62 129.5q0 80 62 130t206 50t206 -50t62 -130q0 -79 -62 -129.5t-206 -50.5z" />
    <glyph glyph-name="uni1E44" unicode="&#x1e44;" horiz-adv-x="1804" 
d="M130 0v1480h476l694 -934h-74v934h448v-1480h-476l-694 934h74v-934h-448zM902 1570q-144 0 -206 50.5t-62 129.5q0 80 62 130t206 50t206 -50t62 -130q0 -79 -62 -129.5t-206 -50.5z" />
    <glyph glyph-name="uni1E45.sc" unicode="&#x1e45;" horiz-adv-x="1642" 
d="M132 0v1190h464l540 -664h-60v664h434v-1190h-462l-542 664h60v-664h-434zM820 1280q-144 0 -206 50.5t-62 129.5q0 80 62 130t206 50t206 -50t62 -130q0 -79 -62 -129.5t-206 -50.5z" />
    <glyph glyph-name="uni1E46" unicode="&#x1e46;" horiz-adv-x="1804" 
d="M130 0v1480h476l694 -934h-74v934h448v-1480h-476l-694 934h74v-934h-448zM902 -464q-144 0 -206 50.5t-62 129.5q0 80 62 130t206 50t206 -50t62 -130q0 -79 -62 -129.5t-206 -50.5z" />
    <glyph glyph-name="uni1E47.sc" unicode="&#x1e47;" horiz-adv-x="1642" 
d="M132 0v1190h464l540 -664h-60v664h434v-1190h-462l-542 664h60v-664h-434zM820 -464q-144 0 -206 50.5t-62 129.5q0 80 62 130t206 50t206 -50t62 -130q0 -79 -62 -129.5t-206 -50.5z" />
    <glyph glyph-name="uni1E48" unicode="&#x1e48;" horiz-adv-x="1804" 
d="M130 0v1480h476l694 -934h-74v934h448v-1480h-476l-694 934h74v-934h-448zM458 -398v250h888v-250h-888z" />
    <glyph glyph-name="uni1E49.sc" unicode="&#x1e49;" horiz-adv-x="1642" 
d="M132 0v1190h464l540 -664h-60v664h434v-1190h-462l-542 664h60v-664h-434zM376 -398v250h888v-250h-888z" />
    <glyph glyph-name="uni1E4C" unicode="&#x1e4c;" horiz-adv-x="1892" 
d="M946 -20q-267 0 -460 92t-297.5 262.5t-104.5 405.5t104 405.5t297 262.5t461 92t461 -93t297 -263.5t104 -403.5t-104 -403.5t-297.5 -263.5t-460.5 -93zM946 348q123 0 207.5 44.5t127.5 130.5t43 209q0 131 -44.5 220t-129 134.5t-204.5 45.5t-204.5 -43.5t-129 -129
t-44.5 -211.5q0 -134 43.5 -223t127.5 -133t207 -44zM706 1986l204 232h548l-272 -232h-480zM1144 1586q-61 0 -113 12t-102 25q-46 14 -93 24.5t-100 10.5q-70 0 -123.5 -15.5t-110.5 -48.5v232q50 39 107.5 57.5t138.5 18.5q62 0 114 -12t101 -26q47 -13 94 -24.5
t99 -11.5q71 0 124 15.5t110 48.5v-232q-49 -39 -107 -56.5t-139 -17.5z" />
    <glyph glyph-name="uni1E4D.sc" unicode="&#x1e4d;" horiz-adv-x="1670" 
d="M834 -16q-240 0 -412.5 76t-265 213.5t-92.5 320.5t92 321t264.5 214.5t413.5 76.5t414 -77t265.5 -215t92.5 -320q0 -181 -92.5 -318.5t-265.5 -214.5t-414 -77zM834 326q98 0 163 32t97 91t32 139q0 87 -33.5 149t-98.5 94.5t-160 32.5q-94 0 -158.5 -31t-98 -89.5
t-33.5 -141.5q0 -90 32 -151.5t96.5 -93t161.5 -31.5zM594 1696l204 232h548l-272 -232h-480zM1032 1296q-61 0 -113 12t-102 25q-46 14 -93 24.5t-100 10.5q-70 0 -123.5 -15.5t-110.5 -48.5v232q50 39 107.5 57.5t138.5 18.5q62 0 114 -12t101 -26q47 -13 94 -24.5
t99 -11.5q71 0 124 15.5t110 48.5v-232q-49 -39 -107 -56.5t-139 -17.5z" />
    <glyph glyph-name="uni1E4E" unicode="&#x1e4e;" horiz-adv-x="1892" 
d="M946 -20q-267 0 -460 92t-297.5 262.5t-104.5 405.5t104 405.5t297 262.5t461 92t461 -93t297 -263.5t104 -403.5t-104 -403.5t-297.5 -263.5t-460.5 -93zM946 348q123 0 207.5 44.5t127.5 130.5t43 209q0 131 -44.5 220t-129 134.5t-204.5 45.5t-204.5 -43.5t-129 -129
t-44.5 -211.5q0 -134 43.5 -223t127.5 -133t207 -44zM1144 1586q-61 0 -113 12t-102 25q-46 14 -93 24.5t-100 10.5q-70 0 -123.5 -15.5t-110.5 -48.5v232q50 39 107.5 57.5t138.5 18.5q62 0 114 -12t101 -26q47 -13 94 -24.5t99 -11.5q71 0 124 15.5t110 48.5v-232
q-49 -39 -107 -56.5t-139 -17.5zM1242 1970q-120 0 -174 48t-54 132t54 132t174 48t174 -48t54 -132t-54 -132t-174 -48zM650 1970q-120 0 -174 48t-54 132t54 132t174 48t174 -48t54 -132t-54 -132t-174 -48z" />
    <glyph glyph-name="uni1E4F.sc" unicode="&#x1e4f;" horiz-adv-x="1670" 
d="M834 -16q-240 0 -412.5 76t-265 213.5t-92.5 320.5t92 321t264.5 214.5t413.5 76.5t414 -77t265.5 -215t92.5 -320q0 -181 -92.5 -318.5t-265.5 -214.5t-414 -77zM834 326q98 0 163 32t97 91t32 139q0 87 -33.5 149t-98.5 94.5t-160 32.5q-94 0 -158.5 -31t-98 -89.5
t-33.5 -141.5q0 -90 32 -151.5t96.5 -93t161.5 -31.5zM1032 1296q-61 0 -113 12t-102 25q-46 14 -93 24.5t-100 10.5q-70 0 -123.5 -15.5t-110.5 -48.5v232q50 39 107.5 57.5t138.5 18.5q62 0 114 -12t101 -26q47 -13 94 -24.5t99 -11.5q71 0 124 15.5t110 48.5v-232
q-49 -39 -107 -56.5t-139 -17.5zM1130 1680q-120 0 -174 48t-54 132t54 132t174 48t174 -48t54 -132t-54 -132t-174 -48zM538 1680q-120 0 -174 48t-54 132t54 132t174 48t174 -48t54 -132t-54 -132t-174 -48z" />
    <glyph glyph-name="uni1E50" unicode="&#x1e50;" horiz-adv-x="1892" 
d="M946 -20q-267 0 -460 92t-297.5 262.5t-104.5 405.5t104 405.5t297 262.5t461 92t461 -93t297 -263.5t104 -403.5t-104 -403.5t-297.5 -263.5t-460.5 -93zM946 348q123 0 207.5 44.5t127.5 130.5t43 209q0 131 -44.5 220t-129 134.5t-204.5 45.5t-204.5 -43.5t-129 -129
t-44.5 -211.5q0 -134 43.5 -223t127.5 -133t207 -44zM706 1986l-272 232h548l204 -232h-480zM502 1620v250h888v-250h-888z" />
    <glyph glyph-name="uni1E51.sc" unicode="&#x1e51;" horiz-adv-x="1670" 
d="M834 -16q-240 0 -412.5 76t-265 213.5t-92.5 320.5t92 321t264.5 214.5t413.5 76.5t414 -77t265.5 -215t92.5 -320q0 -181 -92.5 -318.5t-265.5 -214.5t-414 -77zM834 326q98 0 163 32t97 91t32 139q0 87 -33.5 149t-98.5 94.5t-160 32.5q-94 0 -158.5 -31t-98 -89.5
t-33.5 -141.5q0 -90 32 -151.5t96.5 -93t161.5 -31.5zM594 1696l-272 232h548l204 -232h-480zM390 1330v250h888v-250h-888z" />
    <glyph glyph-name="uni1E52" unicode="&#x1e52;" horiz-adv-x="1892" 
d="M946 -20q-267 0 -460 92t-297.5 262.5t-104.5 405.5t104 405.5t297 262.5t461 92t461 -93t297 -263.5t104 -403.5t-104 -403.5t-297.5 -263.5t-460.5 -93zM946 348q123 0 207.5 44.5t127.5 130.5t43 209q0 131 -44.5 220t-129 134.5t-204.5 45.5t-204.5 -43.5t-129 -129
t-44.5 -211.5q0 -134 43.5 -223t127.5 -133t207 -44zM706 1986l204 232h548l-272 -232h-480zM502 1620v250h888v-250h-888z" />
    <glyph glyph-name="uni1E53.sc" unicode="&#x1e53;" horiz-adv-x="1670" 
d="M834 -16q-240 0 -412.5 76t-265 213.5t-92.5 320.5t92 321t264.5 214.5t413.5 76.5t414 -77t265.5 -215t92.5 -320q0 -181 -92.5 -318.5t-265.5 -214.5t-414 -77zM834 326q98 0 163 32t97 91t32 139q0 87 -33.5 149t-98.5 94.5t-160 32.5q-94 0 -158.5 -31t-98 -89.5
t-33.5 -141.5q0 -90 32 -151.5t96.5 -93t161.5 -31.5zM594 1696l204 232h548l-272 -232h-480zM390 1330v250h888v-250h-888z" />
    <glyph glyph-name="uni1E5A" unicode="&#x1e5a;" horiz-adv-x="1578" 
d="M130 0v1432q79 19 178 34.5t201 24.5t189 9q357 0 545.5 -120.5t188.5 -381.5q0 -167 -86 -279.5t-243 -169.5t-369 -57q-31 0 -66.5 1.5t-71.5 2.5v-496h-466zM1060 0l-492 680h514l500 -680h-522zM754 820q117 0 177.5 40.5t60.5 137.5q0 61 -27.5 100.5t-83 58.5
t-139.5 19q-33 0 -73 -4t-73 -10v-332q25 -3 52.5 -5.5t54.5 -3.5t51 -1zM818 -464q-144 0 -206 50.5t-62 129.5q0 80 62 130t206 50t206 -50t62 -130q0 -79 -62 -129.5t-206 -50.5z" />
    <glyph glyph-name="uni1E5B.sc" unicode="&#x1e5b;" horiz-adv-x="1426" 
d="M132 0v1148q107 24 245.5 41t262.5 17q323 0 487.5 -102t164.5 -314q0 -138 -76 -231t-212 -140t-316 -47q-19 0 -44.5 1.5t-49.5 2.5v-376h-462zM912 0l-386 542h506l396 -542h-516zM708 668q74 0 112 28t38 94q0 62 -43 93t-127 31q-15 0 -44 -2.5t-50 -7.5v-230
q32 -3 58 -4.5t56 -1.5zM742 -464q-144 0 -206 50.5t-62 129.5q0 80 62 130t206 50t206 -50t62 -130q0 -79 -62 -129.5t-206 -50.5z" />
    <glyph glyph-name="uni1E5E" unicode="&#x1e5e;" horiz-adv-x="1578" 
d="M130 0v1432q79 19 178 34.5t201 24.5t189 9q357 0 545.5 -120.5t188.5 -381.5q0 -167 -86 -279.5t-243 -169.5t-369 -57q-31 0 -66.5 1.5t-71.5 2.5v-496h-466zM1060 0l-492 680h514l500 -680h-522zM754 820q117 0 177.5 40.5t60.5 137.5q0 61 -27.5 100.5t-83 58.5
t-139.5 19q-33 0 -73 -4t-73 -10v-332q25 -3 52.5 -5.5t54.5 -3.5t51 -1zM374 -398v250h888v-250h-888z" />
    <glyph glyph-name="uni1E5F.sc" unicode="&#x1e5f;" horiz-adv-x="1426" 
d="M132 0v1148q107 24 245.5 41t262.5 17q323 0 487.5 -102t164.5 -314q0 -138 -76 -231t-212 -140t-316 -47q-19 0 -44.5 1.5t-49.5 2.5v-376h-462zM912 0l-386 542h506l396 -542h-516zM708 668q74 0 112 28t38 94q0 62 -43 93t-127 31q-15 0 -44 -2.5t-50 -7.5v-230
q32 -3 58 -4.5t56 -1.5zM298 -398v250h888v-250h-888z" />
    <glyph glyph-name="uni1E60" unicode="&#x1e60;" horiz-adv-x="1378" 
d="M616 -20q-151 0 -277 19.5t-233 50.5v368q70 -24 161.5 -41t184.5 -26t168 -9q140 0 184 27.5t44 72.5q0 39 -31 61t-135 41l-144 28q-256 50 -365 160t-109 288q0 231 185.5 355.5t560.5 124.5q126 0 232.5 -13t185.5 -33v-368q-75 23 -184.5 37.5t-219.5 14.5
q-118 0 -181.5 -13.5t-88 -36.5t-24.5 -52q0 -34 26 -53.5t108 -36.5l144 -28q187 -36 298 -98t159.5 -150.5t48.5 -203.5q0 -150 -84.5 -259t-241 -168t-372.5 -59zM704 1570q-144 0 -206 50.5t-62 129.5q0 80 62 130t206 50t206 -50t62 -130q0 -79 -62 -129.5t-206 -50.5z
" />
    <glyph glyph-name="uni1E61.sc" unicode="&#x1e61;" horiz-adv-x="1248" 
d="M564 -16q-132 0 -247 15t-211 37v342q72 -18 155 -31t161 -20t134 -7q80 0 119 5t51 14.5t12 22.5q0 11 -7 20.5t-31 17.5t-74 16l-138 22q-223 36 -322.5 129.5t-99.5 238.5q0 111 68 202t219 144.5t399 53.5q96 0 187.5 -9t164.5 -23v-342q-85 18 -175.5 29t-188.5 11
q-103 0 -152 -7.5t-63.5 -18.5t-14.5 -22q0 -13 15.5 -23t76.5 -21l138 -22q154 -25 251.5 -72t144 -121t46.5 -179q0 -111 -67 -202t-204 -145.5t-347 -54.5zM614 1280q-144 0 -206 50.5t-62 129.5q0 80 62 130t206 50t206 -50t62 -130q0 -79 -62 -129.5t-206 -50.5z" />
    <glyph glyph-name="uni1E62" unicode="&#x1e62;" horiz-adv-x="1378" 
d="M616 -20q-151 0 -277 19.5t-233 50.5v368q70 -24 161.5 -41t184.5 -26t168 -9q140 0 184 27.5t44 72.5q0 39 -31 61t-135 41l-144 28q-256 50 -365 160t-109 288q0 231 185.5 355.5t560.5 124.5q126 0 232.5 -13t185.5 -33v-368q-75 23 -184.5 37.5t-219.5 14.5
q-118 0 -181.5 -13.5t-88 -36.5t-24.5 -52q0 -34 26 -53.5t108 -36.5l144 -28q187 -36 298 -98t159.5 -150.5t48.5 -203.5q0 -150 -84.5 -259t-241 -168t-372.5 -59zM704 -464q-144 0 -206 50.5t-62 129.5q0 80 62 130t206 50t206 -50t62 -130q0 -79 -62 -129.5t-206 -50.5z
" />
    <glyph glyph-name="uni1E63.sc" unicode="&#x1e63;" horiz-adv-x="1248" 
d="M564 -16q-132 0 -247 15t-211 37v342q72 -18 155 -31t161 -20t134 -7q80 0 119 5t51 14.5t12 22.5q0 11 -7 20.5t-31 17.5t-74 16l-138 22q-223 36 -322.5 129.5t-99.5 238.5q0 111 68 202t219 144.5t399 53.5q96 0 187.5 -9t164.5 -23v-342q-85 18 -175.5 29t-188.5 11
q-103 0 -152 -7.5t-63.5 -18.5t-14.5 -22q0 -13 15.5 -23t76.5 -21l138 -22q154 -25 251.5 -72t144 -121t46.5 -179q0 -111 -67 -202t-204 -145.5t-347 -54.5zM634 -464q-144 0 -206 50.5t-62 129.5q0 80 62 130t206 50t206 -50t62 -130q0 -79 -62 -129.5t-206 -50.5z" />
    <glyph glyph-name="uni1E64" unicode="&#x1e64;" horiz-adv-x="1378" 
d="M616 -20q-151 0 -277 19.5t-233 50.5v368q70 -24 161.5 -41t184.5 -26t168 -9q140 0 184 27.5t44 72.5q0 39 -31 61t-135 41l-144 28q-256 50 -365 160t-109 288q0 231 185.5 355.5t560.5 124.5q126 0 232.5 -13t185.5 -33v-368q-75 23 -184.5 37.5t-219.5 14.5
q-118 0 -181.5 -13.5t-88 -36.5t-24.5 -52q0 -34 26 -53.5t108 -36.5l144 -28q187 -36 298 -98t159.5 -150.5t48.5 -203.5q0 -150 -84.5 -259t-241 -168t-372.5 -59zM404 1862q-115 0 -164.5 40.5t-49.5 103.5t49.5 103.5t164.5 40.5q116 0 165 -40.5t49 -103.5t-49 -103.5
t-165 -40.5zM490 1586l204 316h488l-272 -316h-420z" />
    <glyph glyph-name="uni1E65.sc" unicode="&#x1e65;" horiz-adv-x="1248" 
d="M564 -16q-132 0 -247 15t-211 37v342q72 -18 155 -31t161 -20t134 -7q80 0 119 5t51 14.5t12 22.5q0 11 -7 20.5t-31 17.5t-74 16l-138 22q-223 36 -322.5 129.5t-99.5 238.5q0 111 68 202t219 144.5t399 53.5q96 0 187.5 -9t164.5 -23v-342q-85 18 -175.5 29t-188.5 11
q-103 0 -152 -7.5t-63.5 -18.5t-14.5 -22q0 -13 15.5 -23t76.5 -21l138 -22q154 -25 251.5 -72t144 -121t46.5 -179q0 -111 -67 -202t-204 -145.5t-347 -54.5zM314 1572q-115 0 -164.5 40.5t-49.5 103.5t49.5 103.5t164.5 40.5q116 0 165 -40.5t49 -103.5t-49 -103.5
t-165 -40.5zM400 1296l204 316h488l-272 -316h-420z" />
    <glyph glyph-name="uni1E66" unicode="&#x1e66;" horiz-adv-x="1378" 
d="M616 -20q-151 0 -277 19.5t-233 50.5v368q70 -24 161.5 -41t184.5 -26t168 -9q140 0 184 27.5t44 72.5q0 39 -31 61t-135 41l-144 28q-256 50 -365 160t-109 288q0 231 185.5 355.5t560.5 124.5q126 0 232.5 -13t185.5 -33v-368q-75 23 -184.5 37.5t-219.5 14.5
q-118 0 -181.5 -13.5t-88 -36.5t-24.5 -52q0 -34 26 -53.5t108 -36.5l144 -28q187 -36 298 -98t159.5 -150.5t48.5 -203.5q0 -150 -84.5 -259t-241 -168t-372.5 -59zM704 1942q-115 0 -164.5 40.5t-49.5 103.5t49.5 103.5t164.5 40.5q116 0 165 -40.5t49 -103.5t-49 -103.5
t-165 -40.5zM512 1586l-332 316h364l198 -192h-76l198 192h364l-332 -316h-384z" />
    <glyph glyph-name="uni1E67.sc" unicode="&#x1e67;" horiz-adv-x="1248" 
d="M564 -16q-132 0 -247 15t-211 37v342q72 -18 155 -31t161 -20t134 -7q80 0 119 5t51 14.5t12 22.5q0 11 -7 20.5t-31 17.5t-74 16l-138 22q-223 36 -322.5 129.5t-99.5 238.5q0 111 68 202t219 144.5t399 53.5q96 0 187.5 -9t164.5 -23v-342q-85 18 -175.5 29t-188.5 11
q-103 0 -152 -7.5t-63.5 -18.5t-14.5 -22q0 -13 15.5 -23t76.5 -21l138 -22q154 -25 251.5 -72t144 -121t46.5 -179q0 -111 -67 -202t-204 -145.5t-347 -54.5zM614 1652q-115 0 -164.5 40.5t-49.5 103.5t49.5 103.5t164.5 40.5q116 0 165 -40.5t49 -103.5t-49 -103.5
t-165 -40.5zM422 1296l-332 316h364l198 -192h-76l198 192h364l-332 -316h-384z" />
    <glyph glyph-name="uni1E68" unicode="&#x1e68;" horiz-adv-x="1378" 
d="M616 -20q-151 0 -277 19.5t-233 50.5v368q70 -24 161.5 -41t184.5 -26t168 -9q140 0 184 27.5t44 72.5q0 39 -31 61t-135 41l-144 28q-256 50 -365 160t-109 288q0 231 185.5 355.5t560.5 124.5q126 0 232.5 -13t185.5 -33v-368q-75 23 -184.5 37.5t-219.5 14.5
q-118 0 -181.5 -13.5t-88 -36.5t-24.5 -52q0 -34 26 -53.5t108 -36.5l144 -28q187 -36 298 -98t159.5 -150.5t48.5 -203.5q0 -150 -84.5 -259t-241 -168t-372.5 -59zM704 -464q-144 0 -206 50.5t-62 129.5q0 80 62 130t206 50t206 -50t62 -130q0 -79 -62 -129.5t-206 -50.5z
M704 1570q-144 0 -206 50.5t-62 129.5q0 80 62 130t206 50t206 -50t62 -130q0 -79 -62 -129.5t-206 -50.5z" />
    <glyph glyph-name="uni1E69.sc" unicode="&#x1e69;" horiz-adv-x="1248" 
d="M564 -16q-132 0 -247 15t-211 37v342q72 -18 155 -31t161 -20t134 -7q80 0 119 5t51 14.5t12 22.5q0 11 -7 20.5t-31 17.5t-74 16l-138 22q-223 36 -322.5 129.5t-99.5 238.5q0 111 68 202t219 144.5t399 53.5q96 0 187.5 -9t164.5 -23v-342q-85 18 -175.5 29t-188.5 11
q-103 0 -152 -7.5t-63.5 -18.5t-14.5 -22q0 -13 15.5 -23t76.5 -21l138 -22q154 -25 251.5 -72t144 -121t46.5 -179q0 -111 -67 -202t-204 -145.5t-347 -54.5zM634 -464q-144 0 -206 50.5t-62 129.5q0 80 62 130t206 50t206 -50t62 -130q0 -79 -62 -129.5t-206 -50.5z
M614 1280q-144 0 -206 50.5t-62 129.5q0 80 62 130t206 50t206 -50t62 -130q0 -79 -62 -129.5t-206 -50.5z" />
    <glyph glyph-name="uni1E6C" unicode="&#x1e6c;" horiz-adv-x="1532" 
d="M528 0v1112h-506v368h1488v-368h-506v-1112h-476zM766 -464q-144 0 -206 50.5t-62 129.5q0 80 62 130t206 50t206 -50t62 -130q0 -79 -62 -129.5t-206 -50.5z" />
    <glyph glyph-name="uni1E6D.sc" unicode="&#x1e6d;" horiz-adv-x="1360" 
d="M444 0v850h-422v340h1316v-340h-422v-850h-472zM680 -464q-144 0 -206 50.5t-62 129.5q0 80 62 130t206 50t206 -50t62 -130q0 -79 -62 -129.5t-206 -50.5z" />
    <glyph glyph-name="uni1E6E" unicode="&#x1e6e;" horiz-adv-x="1532" 
d="M528 0v1112h-506v368h1488v-368h-506v-1112h-476zM322 -398v250h888v-250h-888z" />
    <glyph glyph-name="uni1E6F.sc" unicode="&#x1e6f;" horiz-adv-x="1360" 
d="M444 0v850h-422v340h1316v-340h-422v-850h-472zM236 -398v250h888v-250h-888z" />
    <glyph glyph-name="uni1E78" unicode="&#x1e78;" horiz-adv-x="1756" 
d="M882 -20q-271 0 -438 85t-243.5 245t-76.5 384v786h476v-824q0 -154 70.5 -227t211.5 -73t211.5 73t70.5 227v824h468v-786q0 -224 -76.5 -384t-242 -245t-431.5 -85zM642 1986l204 232h548l-272 -232h-480zM1080 1586q-61 0 -113 12t-102 25q-46 14 -93 24.5t-100 10.5
q-70 0 -123.5 -15.5t-110.5 -48.5v232q50 39 107.5 57.5t138.5 18.5q62 0 114 -12t101 -26q47 -13 94 -24.5t99 -11.5q71 0 124 15.5t110 48.5v-232q-49 -39 -107 -56.5t-139 -17.5z" />
    <glyph glyph-name="uni1E79.sc" unicode="&#x1e79;" horiz-adv-x="1602" 
d="M806 -16q-243 0 -392 72.5t-217.5 205.5t-68.5 316v612h472v-638q0 -109 52 -162.5t154 -53.5t154 53.5t52 162.5v638h464v-612q0 -183 -68.5 -316t-216.5 -205.5t-385 -72.5zM566 1696l204 232h548l-272 -232h-480zM1004 1296q-61 0 -113 12t-102 25q-46 14 -93 24.5
t-100 10.5q-70 0 -123.5 -15.5t-110.5 -48.5v232q50 39 107.5 57.5t138.5 18.5q62 0 114 -12t101 -26q47 -13 94 -24.5t99 -11.5q71 0 124 15.5t110 48.5v-232q-49 -39 -107 -56.5t-139 -17.5z" />
    <glyph glyph-name="uni1E7A" unicode="&#x1e7a;" horiz-adv-x="1756" 
d="M882 -20q-271 0 -438 85t-243.5 245t-76.5 384v786h476v-824q0 -154 70.5 -227t211.5 -73t211.5 73t70.5 227v824h468v-786q0 -224 -76.5 -384t-242 -245t-431.5 -85zM438 1620v250h888v-250h-888zM1178 1970q-120 0 -174 48t-54 132t54 132t174 48t174 -48t54 -132
t-54 -132t-174 -48zM586 1970q-120 0 -174 48t-54 132t54 132t174 48t174 -48t54 -132t-54 -132t-174 -48z" />
    <glyph glyph-name="uni1E7B.sc" unicode="&#x1e7b;" horiz-adv-x="1602" 
d="M806 -16q-243 0 -392 72.5t-217.5 205.5t-68.5 316v612h472v-638q0 -109 52 -162.5t154 -53.5t154 53.5t52 162.5v638h464v-612q0 -183 -68.5 -316t-216.5 -205.5t-385 -72.5zM362 1330v250h888v-250h-888zM1102 1680q-120 0 -174 48t-54 132t54 132t174 48t174 -48
t54 -132t-54 -132t-174 -48zM510 1680q-120 0 -174 48t-54 132t54 132t174 48t174 -48t54 -132t-54 -132t-174 -48z" />
    <glyph glyph-name="Wgrave" unicode="&#x1e80;" horiz-adv-x="2748" 
d="M466 0l-442 1480h480l348 -1244h-106l380 1244h520l362 -1244h-92l356 1244h452l-442 -1480h-600l-366 1236h130l-380 -1236h-600zM1164 1586l-272 316h488l204 -316h-420z" />
    <glyph glyph-name="wgrave.sc" unicode="&#x1e81;" horiz-adv-x="2450" 
d="M394 0l-370 1190h472l280 -974h-104l308 974h514l290 -974h-92l292 974h442l-370 -1190h-594l-294 972h128l-308 -972h-594zM1014 1296l-272 316h488l204 -316h-420z" />
    <glyph glyph-name="Wacute" unicode="&#x1e82;" horiz-adv-x="2748" 
d="M466 0l-442 1480h480l348 -1244h-106l380 1244h520l362 -1244h-92l356 1244h452l-442 -1480h-600l-366 1236h130l-380 -1236h-600zM1160 1586l204 316h488l-272 -316h-420z" />
    <glyph glyph-name="wacute.sc" unicode="&#x1e83;" horiz-adv-x="2450" 
d="M394 0l-370 1190h472l280 -974h-104l308 974h514l290 -974h-92l292 974h442l-370 -1190h-594l-294 972h128l-308 -972h-594zM1010 1296l204 316h488l-272 -316h-420z" />
    <glyph glyph-name="Wdieresis" unicode="&#x1e84;" horiz-adv-x="2748" 
d="M466 0l-442 1480h480l348 -1244h-106l380 1244h520l362 -1244h-92l356 1244h452l-442 -1480h-600l-366 1236h130l-380 -1236h-600zM1670 1570q-120 0 -174 48t-54 132t54 132t174 48t174 -48t54 -132t-54 -132t-174 -48zM1078 1570q-120 0 -174 48t-54 132t54 132t174 48
t174 -48t54 -132t-54 -132t-174 -48z" />
    <glyph glyph-name="wdieresis.sc" unicode="&#x1e85;" horiz-adv-x="2450" 
d="M394 0l-370 1190h472l280 -974h-104l308 974h514l290 -974h-92l292 974h442l-370 -1190h-594l-294 972h128l-308 -972h-594zM1520 1280q-120 0 -174 48t-54 132t54 132t174 48t174 -48t54 -132t-54 -132t-174 -48zM928 1280q-120 0 -174 48t-54 132t54 132t174 48
t174 -48t54 -132t-54 -132t-174 -48z" />
    <glyph glyph-name="uni1E8E" unicode="&#x1e8e;" horiz-adv-x="1532" 
d="M532 0v782l92 -316l-684 1014h502l402 -608h-132l392 608h468l-656 -1014l92 310v-776h-476zM764 1570q-144 0 -206 50.5t-62 129.5q0 80 62 130t206 50t206 -50t62 -130q0 -79 -62 -129.5t-206 -50.5z" />
    <glyph glyph-name="uni1E8F.sc" unicode="&#x1e8f;" horiz-adv-x="1360" 
d="M448 0v640l90 -296l-594 846h492l320 -464h-132l312 464h460l-566 -846l90 292v-636h-472zM678 1280q-144 0 -206 50.5t-62 129.5q0 80 62 130t206 50t206 -50t62 -130q0 -79 -62 -129.5t-206 -50.5z" />
    <glyph glyph-name="uni1E92" unicode="&#x1e92;" horiz-adv-x="1482" 
d="M84 0v254l760 946v-88h-750v368h1294v-254l-760 -946v88h770v-368h-1314zM742 -464q-144 0 -206 50.5t-62 129.5q0 80 62 130t206 50t206 -50t62 -130q0 -79 -62 -129.5t-206 -50.5z" />
    <glyph glyph-name="uni1E93.sc" unicode="&#x1e93;" horiz-adv-x="1326" 
d="M86 0v238l608 688l-2 -76h-598v340h1138v-238l-606 -688l2 76h612v-340h-1154zM664 -464q-144 0 -206 50.5t-62 129.5q0 80 62 130t206 50t206 -50t62 -130q0 -79 -62 -129.5t-206 -50.5z" />
    <glyph glyph-name="uni1E9E" unicode="&#x1e9e;" horiz-adv-x="1883" 
d="M1670 1374v-254l-432 -388l-20 116q29 4 57.5 6t55.5 2q145 0 255 -51t171.5 -144t61.5 -219q0 -130 -69.5 -234.5t-212 -166t-361.5 -61.5q-118 0 -221.5 18t-192.5 46v368q59 -22 131.5 -37.5t145.5 -24t133 -8.5q92 0 140.5 35.5t48.5 94.5q0 58 -54 94t-181 36
q-61 0 -118.5 -4.5t-128.5 -15.5v254l483 472l-34 -178q-71 20 -142 28t-178 8q-211 0 -316.5 -77t-105.5 -187v-902h-476v846q0 200 96 347t294.5 227t507.5 80q205 0 361 -33.5t301 -92.5z" />
    <glyph glyph-name="uni1EA0" unicode="&#x1ea0;" horiz-adv-x="1760" 
d="M16 0l520 1480h688l520 -1480h-464l-422 1284h40l-422 -1284h-460zM500 334l110 350h538l108 -350h-756zM880 -464q-144 0 -206 50.5t-62 129.5q0 80 62 130t206 50t206 -50t62 -130q0 -79 -62 -129.5t-206 -50.5z" />
    <glyph glyph-name="uni1EA1.sc" unicode="&#x1ea1;" horiz-adv-x="1572" 
d="M18 0l426 1190h684l426 -1190h-460l-330 1024h40l-330 -1024h-456zM464 238l108 318h426l106 -318h-640zM786 -464q-144 0 -206 50.5t-62 129.5q0 80 62 130t206 50t206 -50t62 -130q0 -79 -62 -129.5t-206 -50.5z" />
    <glyph glyph-name="uni1EA2" unicode="&#x1ea2;" horiz-adv-x="1760" 
d="M16 0l520 1480h688l520 -1480h-464l-422 1284h40l-422 -1284h-460zM500 334l110 350h538l108 -350h-756zM770 1586q3 46 41 71t77 42q27 13 46.5 24t19.5 27q0 15 -29.5 21.5t-86.5 6.5q-46 0 -95 -4t-111 -16v150q51 11 118 16.5t122 5.5q159 0 232.5 -38.5t73.5 -109.5
q0 -56 -42 -87.5t-83 -54.5q-26 -13 -45.5 -26t-21.5 -28h-216z" />
    <glyph glyph-name="uni1EA3.sc" unicode="&#x1ea3;" horiz-adv-x="1572" 
d="M18 0l426 1190h684l426 -1190h-460l-330 1024h40l-330 -1024h-456zM464 238l108 318h426l106 -318h-640zM676 1296q3 46 41 71t77 42q27 13 46.5 24t19.5 27q0 15 -29.5 21.5t-86.5 6.5q-46 0 -95 -4t-111 -16v150q51 11 118 16.5t122 5.5q159 0 232.5 -38.5t73.5 -109.5
q0 -56 -42 -87.5t-83 -54.5q-26 -13 -45.5 -26t-21.5 -28h-216z" />
    <glyph glyph-name="uni1EA4" unicode="&#x1ea4;" horiz-adv-x="1760" 
d="M16 0l520 1480h688l520 -1480h-464l-422 1284h40l-422 -1284h-460zM500 334l110 350h538l108 -350h-756zM354 1586l332 272h384l332 -272h-364l-198 166h76l-198 -166h-364zM1166 1828l106 236h316l-162 -236h-260z" />
    <glyph glyph-name="uni1EA5.sc" unicode="&#x1ea5;" horiz-adv-x="1572" 
d="M18 0l426 1190h684l426 -1190h-460l-330 1024h40l-330 -1024h-456zM464 238l108 318h426l106 -318h-640zM260 1296l332 272h384l332 -272h-364l-198 166h76l-198 -166h-364zM1072 1538l106 236h316l-162 -236h-260z" />
    <glyph glyph-name="uni1EA6" unicode="&#x1ea6;" horiz-adv-x="1760" 
d="M16 0l520 1480h688l520 -1480h-464l-422 1284h40l-422 -1284h-460zM500 334l110 350h538l108 -350h-756zM354 1586l332 272h384l332 -272h-364l-198 166h76l-198 -166h-364zM1206 1828l-162 236h316l106 -236h-260z" />
    <glyph glyph-name="uni1EA7.sc" unicode="&#x1ea7;" horiz-adv-x="1572" 
d="M18 0l426 1190h684l426 -1190h-460l-330 1024h40l-330 -1024h-456zM464 238l108 318h426l106 -318h-640zM260 1296l332 272h384l332 -272h-364l-198 166h76l-198 -166h-364zM1112 1538l-162 236h316l106 -236h-260z" />
    <glyph glyph-name="uni1EA8" unicode="&#x1ea8;" horiz-adv-x="1760" 
d="M16 0l520 1480h688l520 -1480h-464l-422 1284h40l-422 -1284h-460zM500 334l110 350h538l108 -350h-756zM354 1586l332 272h384l332 -272h-364l-198 166h76l-198 -166h-364zM1164 1828q2 34 30 54.5t64 34t63 25.5t27 28q0 12 -29.5 18t-86.5 6q-46 0 -95 -3.5
t-111 -14.5v128q51 9 118 14.5t122 5.5q159 0 232.5 -33t73.5 -95q0 -39 -28 -64t-65 -42.5t-66.5 -31t-32.5 -30.5h-216z" />
    <glyph glyph-name="uni1EA9.sc" unicode="&#x1ea9;" horiz-adv-x="1572" 
d="M18 0l426 1190h684l426 -1190h-460l-330 1024h40l-330 -1024h-456zM464 238l108 318h426l106 -318h-640zM260 1296l332 272h384l332 -272h-364l-198 166h76l-198 -166h-364zM1070 1538q2 34 30 54.5t64 34t63 25.5t27 28q0 12 -29.5 18t-86.5 6q-46 0 -95 -3.5
t-111 -14.5v128q51 9 118 14.5t122 5.5q159 0 232.5 -33t73.5 -95q0 -39 -28 -64t-65 -42.5t-66.5 -31t-32.5 -30.5h-216z" />
    <glyph glyph-name="uni1EAA" unicode="&#x1eaa;" horiz-adv-x="1760" 
d="M16 0l520 1480h688l520 -1480h-464l-422 1284h40l-422 -1284h-460zM500 334l110 350h538l108 -350h-756zM354 1586l332 272h384l332 -272h-364l-198 166h76l-198 -166h-364zM1108 1900q-92 0 -169.5 14t-149 28t-145.5 14q-70 0 -134 -14t-156 -52v170q83 41 150.5 52.5
t143.5 11.5q92 0 169.5 -14.5t149 -29t145.5 -14.5q71 0 135 14.5t155 51.5v-170q-82 -40 -149.5 -51t-144.5 -11z" />
    <glyph glyph-name="uni1EAB.sc" unicode="&#x1eab;" horiz-adv-x="1572" 
d="M18 0l426 1190h684l426 -1190h-460l-330 1024h40l-330 -1024h-456zM464 238l108 318h426l106 -318h-640zM260 1296l332 272h384l332 -272h-364l-198 166h76l-198 -166h-364zM1014 1610q-92 0 -169.5 14t-149 28t-145.5 14q-70 0 -134 -14t-156 -52v170q83 41 150.5 52.5
t143.5 11.5q92 0 169.5 -14.5t149 -29t145.5 -14.5q71 0 135 14.5t155 51.5v-170q-82 -40 -149.5 -51t-144.5 -11z" />
    <glyph glyph-name="uni1EAC" unicode="&#x1eac;" horiz-adv-x="1760" 
d="M16 0l520 1480h688l520 -1480h-464l-422 1284h40l-422 -1284h-460zM500 334l110 350h538l108 -350h-756zM880 -464q-144 0 -206 50.5t-62 129.5q0 80 62 130t206 50t206 -50t62 -130q0 -79 -62 -129.5t-206 -50.5zM354 1586l332 316h384l332 -316h-364l-198 192h76
l-198 -192h-364z" />
    <glyph glyph-name="uni1EAD.sc" unicode="&#x1ead;" horiz-adv-x="1572" 
d="M18 0l426 1190h684l426 -1190h-460l-330 1024h40l-330 -1024h-456zM464 238l108 318h426l106 -318h-640zM786 -464q-144 0 -206 50.5t-62 129.5q0 80 62 130t206 50t206 -50t62 -130q0 -79 -62 -129.5t-206 -50.5zM260 1296l332 316h384l332 -316h-364l-198 192h76
l-198 -192h-364z" />
    <glyph glyph-name="uni1EAE" unicode="&#x1eae;" horiz-adv-x="1760" 
d="M16 0l520 1480h688l520 -1480h-464l-422 1284h40l-422 -1284h-460zM500 334l110 350h538l108 -350h-756zM878 1586q-204 0 -305 76t-125 196h226q15 -46 55 -74t149 -28q110 0 151 28t63 74h216q-24 -120 -125 -196t-305 -76zM748 1828l106 236h316l-162 -236h-260z" />
    <glyph glyph-name="uni1EAF.sc" unicode="&#x1eaf;" horiz-adv-x="1572" 
d="M18 0l426 1190h684l426 -1190h-460l-330 1024h40l-330 -1024h-456zM464 238l108 318h426l106 -318h-640zM784 1296q-204 0 -305 76t-125 196h226q15 -46 55 -74t149 -28q110 0 151 28t63 74h216q-24 -120 -125 -196t-305 -76zM654 1538l106 236h316l-162 -236h-260z" />
    <glyph glyph-name="uni1EB0" unicode="&#x1eb0;" horiz-adv-x="1760" 
d="M16 0l520 1480h688l520 -1480h-464l-422 1284h40l-422 -1284h-460zM500 334l110 350h538l108 -350h-756zM878 1586q-204 0 -305 76t-125 196h216q23 -46 64 -74t150 -28q110 0 149.5 28t54.5 74h226q-24 -120 -125 -196t-305 -76zM748 1828l-162 236h316l106 -236h-260z
" />
    <glyph glyph-name="uni1EB1.sc" unicode="&#x1eb1;" horiz-adv-x="1572" 
d="M18 0l426 1190h684l426 -1190h-460l-330 1024h40l-330 -1024h-456zM464 238l108 318h426l106 -318h-640zM784 1296q-204 0 -305 76t-125 196h216q23 -46 64 -74t150 -28q110 0 149.5 28t54.5 74h226q-24 -120 -125 -196t-305 -76zM654 1538l-162 236h316l106 -236h-260z
" />
    <glyph glyph-name="uni1EB2" unicode="&#x1eb2;" horiz-adv-x="1760" 
d="M16 0l520 1480h688l520 -1480h-464l-422 1284h40l-422 -1284h-460zM500 334l110 350h538l108 -350h-756zM878 1586q-204 0 -305 76t-125 196h226q15 -46 55 -74t149 -28q110 0 151 28t63 74h216q-24 -120 -125 -196t-305 -76zM770 1828q2 34 30 54.5t64 34t63 25.5t27 28
q0 12 -29.5 18t-86.5 6q-46 0 -95 -3.5t-111 -14.5v128q51 9 118 14.5t122 5.5q159 0 232.5 -33t73.5 -95q0 -39 -28 -64t-65 -42.5t-66.5 -31t-32.5 -30.5h-216z" />
    <glyph glyph-name="uni1EB3.sc" unicode="&#x1eb3;" horiz-adv-x="1572" 
d="M18 0l426 1190h684l426 -1190h-460l-330 1024h40l-330 -1024h-456zM464 238l108 318h426l106 -318h-640zM784 1296q-204 0 -305 76t-125 196h226q15 -46 55 -74t149 -28q110 0 151 28t63 74h216q-24 -120 -125 -196t-305 -76zM676 1538q2 34 30 54.5t64 34t63 25.5t27 28
q0 12 -29.5 18t-86.5 6q-46 0 -95 -3.5t-111 -14.5v128q51 9 118 14.5t122 5.5q159 0 232.5 -33t73.5 -95q0 -39 -28 -64t-65 -42.5t-66.5 -31t-32.5 -30.5h-216z" />
    <glyph glyph-name="uni1EB4" unicode="&#x1eb4;" horiz-adv-x="1760" 
d="M16 0l520 1480h688l520 -1480h-464l-422 1284h40l-422 -1284h-460zM500 334l110 350h538l108 -350h-756zM878 1586q-204 0 -305 76t-125 196h226q15 -46 55 -74t149 -28q110 0 149.5 28t54.5 74h226q-24 -120 -125 -196t-305 -76zM1050 1900q-67 0 -126.5 14t-114 28
t-107.5 14q-57 0 -112 -14t-142 -52v170q80 41 137.5 52.5t120.5 11.5q67 0 126.5 -14.5t114 -29t107.5 -14.5q57 0 112 14.5t142 51.5v-170q-79 -40 -137 -51t-121 -11z" />
    <glyph glyph-name="uni1EB5.sc" unicode="&#x1eb5;" horiz-adv-x="1572" 
d="M18 0l426 1190h684l426 -1190h-460l-330 1024h40l-330 -1024h-456zM464 238l108 318h426l106 -318h-640zM784 1296q-204 0 -305 76t-125 196h226q15 -46 55 -74t149 -28q110 0 149.5 28t54.5 74h226q-24 -120 -125 -196t-305 -76zM956 1610q-67 0 -126.5 14t-114 28
t-107.5 14q-57 0 -112 -14t-142 -52v170q80 41 137.5 52.5t120.5 11.5q67 0 126.5 -14.5t114 -29t107.5 -14.5q57 0 112 14.5t142 51.5v-170q-79 -40 -137 -51t-121 -11z" />
    <glyph glyph-name="uni1EB6" unicode="&#x1eb6;" horiz-adv-x="1760" 
d="M16 0l520 1480h688l520 -1480h-464l-422 1284h40l-422 -1284h-460zM500 334l110 350h538l108 -350h-756zM880 -464q-144 0 -206 50.5t-62 129.5q0 80 62 130t206 50t206 -50t62 -130q0 -79 -62 -129.5t-206 -50.5zM878 1586q-156 0 -258 42.5t-156.5 114t-69.5 159.5h274
q15 -46 64.5 -77t145.5 -31t145.5 31t64.5 77h274q-15 -88 -70 -159.5t-156.5 -114t-257.5 -42.5z" />
    <glyph glyph-name="uni1EB7.sc" unicode="&#x1eb7;" horiz-adv-x="1572" 
d="M18 0l426 1190h684l426 -1190h-460l-330 1024h40l-330 -1024h-456zM464 238l108 318h426l106 -318h-640zM786 -464q-144 0 -206 50.5t-62 129.5q0 80 62 130t206 50t206 -50t62 -130q0 -79 -62 -129.5t-206 -50.5zM784 1296q-156 0 -258 42.5t-156.5 114t-69.5 159.5h274
q15 -46 64.5 -77t145.5 -31t145.5 31t64.5 77h274q-15 -88 -70 -159.5t-156.5 -114t-257.5 -42.5z" />
    <glyph glyph-name="uni1EB8" unicode="&#x1eb8;" horiz-adv-x="1498" 
d="M130 0v1480h1272v-350h-802v-780h812v-350h-1282zM358 580v350h938v-350h-938zM788 -464q-144 0 -206 50.5t-62 129.5q0 80 62 130t206 50t206 -50t62 -130q0 -79 -62 -129.5t-206 -50.5z" />
    <glyph glyph-name="uni1EB9.sc" unicode="&#x1eb9;" horiz-adv-x="1366" 
d="M132 0v1190h1138v-314h-680v-562h688v-314h-1146zM358 446v314h820v-314h-820zM720 -464q-144 0 -206 50.5t-62 129.5q0 80 62 130t206 50t206 -50t62 -130q0 -79 -62 -129.5t-206 -50.5z" />
    <glyph glyph-name="uni1EBA" unicode="&#x1eba;" horiz-adv-x="1498" 
d="M130 0v1480h1272v-350h-802v-780h812v-350h-1282zM358 580v350h938v-350h-938zM680 1586q3 46 41 71t77 42q27 13 46.5 24t19.5 27q0 15 -29.5 21.5t-86.5 6.5q-46 0 -95 -4t-111 -16v150q51 11 118 16.5t122 5.5q159 0 232.5 -38.5t73.5 -109.5q0 -56 -42 -87.5
t-83 -54.5q-26 -13 -45.5 -26t-21.5 -28h-216z" />
    <glyph glyph-name="uni1EBB.sc" unicode="&#x1ebb;" horiz-adv-x="1366" 
d="M132 0v1190h1138v-314h-680v-562h688v-314h-1146zM358 446v314h820v-314h-820zM612 1296q3 46 41 71t77 42q27 13 46.5 24t19.5 27q0 15 -29.5 21.5t-86.5 6.5q-46 0 -95 -4t-111 -16v150q51 11 118 16.5t122 5.5q159 0 232.5 -38.5t73.5 -109.5q0 -56 -42 -87.5
t-83 -54.5q-26 -13 -45.5 -26t-21.5 -28h-216z" />
    <glyph glyph-name="uni1EBC" unicode="&#x1ebc;" horiz-adv-x="1498" 
d="M130 0v1480h1272v-350h-802v-780h812v-350h-1282zM358 580v350h938v-350h-938zM986 1586q-61 0 -113 12t-102 25q-46 14 -93 24.5t-100 10.5q-70 0 -123.5 -15.5t-110.5 -48.5v232q50 39 107.5 57.5t138.5 18.5q62 0 114 -12t101 -26q47 -13 94 -24.5t99 -11.5
q71 0 124 15.5t110 48.5v-232q-49 -39 -107 -56.5t-139 -17.5z" />
    <glyph glyph-name="uni1EBD.sc" unicode="&#x1ebd;" horiz-adv-x="1366" 
d="M132 0v1190h1138v-314h-680v-562h688v-314h-1146zM358 446v314h820v-314h-820zM918 1296q-61 0 -113 12t-102 25q-46 14 -93 24.5t-100 10.5q-70 0 -123.5 -15.5t-110.5 -48.5v232q50 39 107.5 57.5t138.5 18.5q62 0 114 -12t101 -26q47 -13 94 -24.5t99 -11.5
q71 0 124 15.5t110 48.5v-232q-49 -39 -107 -56.5t-139 -17.5z" />
    <glyph glyph-name="uni1EBE" unicode="&#x1ebe;" horiz-adv-x="1498" 
d="M130 0v1480h1272v-350h-802v-780h812v-350h-1282zM358 580v350h938v-350h-938zM264 1586l332 272h384l332 -272h-364l-198 166h76l-198 -166h-364zM1076 1828l106 236h316l-162 -236h-260z" />
    <glyph glyph-name="uni1EBF.sc" unicode="&#x1ebf;" horiz-adv-x="1366" 
d="M132 0v1190h1138v-314h-680v-562h688v-314h-1146zM358 446v314h820v-314h-820zM196 1296l332 272h384l332 -272h-364l-198 166h76l-198 -166h-364zM1008 1538l106 236h316l-162 -236h-260z" />
    <glyph glyph-name="uni1EC0" unicode="&#x1ec0;" horiz-adv-x="1498" 
d="M130 0v1480h1272v-350h-802v-780h812v-350h-1282zM358 580v350h938v-350h-938zM264 1586l332 272h384l332 -272h-364l-198 166h76l-198 -166h-364zM1116 1828l-162 236h316l106 -236h-260z" />
    <glyph glyph-name="uni1EC1.sc" unicode="&#x1ec1;" horiz-adv-x="1366" 
d="M132 0v1190h1138v-314h-680v-562h688v-314h-1146zM358 446v314h820v-314h-820zM196 1296l332 272h384l332 -272h-364l-198 166h76l-198 -166h-364zM1048 1538l-162 236h316l106 -236h-260z" />
    <glyph glyph-name="uni1EC2" unicode="&#x1ec2;" horiz-adv-x="1498" 
d="M130 0v1480h1272v-350h-802v-780h812v-350h-1282zM358 580v350h938v-350h-938zM264 1586l332 272h384l332 -272h-364l-198 166h76l-198 -166h-364zM1074 1828q2 34 30 54.5t64 34t63 25.5t27 28q0 12 -29.5 18t-86.5 6q-46 0 -95 -3.5t-111 -14.5v128q51 9 118 14.5
t122 5.5q159 0 232.5 -33t73.5 -95q0 -39 -28 -64t-65 -42.5t-66.5 -31t-32.5 -30.5h-216z" />
    <glyph glyph-name="uni1EC3.sc" unicode="&#x1ec3;" horiz-adv-x="1366" 
d="M132 0v1190h1138v-314h-680v-562h688v-314h-1146zM358 446v314h820v-314h-820zM196 1296l332 272h384l332 -272h-364l-198 166h76l-198 -166h-364zM1006 1538q2 34 30 54.5t64 34t63 25.5t27 28q0 12 -29.5 18t-86.5 6q-46 0 -95 -3.5t-111 -14.5v128q51 9 118 14.5
t122 5.5q159 0 232.5 -33t73.5 -95q0 -39 -28 -64t-65 -42.5t-66.5 -31t-32.5 -30.5h-216z" />
    <glyph glyph-name="uni1EC4" unicode="&#x1ec4;" horiz-adv-x="1498" 
d="M130 0v1480h1272v-350h-802v-780h812v-350h-1282zM358 580v350h938v-350h-938zM264 1586l332 272h384l332 -272h-364l-198 166h76l-198 -166h-364zM1018 1900q-92 0 -169.5 14t-149 28t-145.5 14q-70 0 -134 -14t-156 -52v170q83 41 150.5 52.5t143.5 11.5
q92 0 169.5 -14.5t149 -29t145.5 -14.5q71 0 135 14.5t155 51.5v-170q-82 -40 -149.5 -51t-144.5 -11z" />
    <glyph glyph-name="uni1EC5.sc" unicode="&#x1ec5;" horiz-adv-x="1366" 
d="M132 0v1190h1138v-314h-680v-562h688v-314h-1146zM358 446v314h820v-314h-820zM196 1296l332 272h384l332 -272h-364l-198 166h76l-198 -166h-364zM950 1610q-92 0 -169.5 14t-149 28t-145.5 14q-70 0 -134 -14t-156 -52v170q83 41 150.5 52.5t143.5 11.5
q92 0 169.5 -14.5t149 -29t145.5 -14.5q71 0 135 14.5t155 51.5v-170q-82 -40 -149.5 -51t-144.5 -11z" />
    <glyph glyph-name="uni1EC6" unicode="&#x1ec6;" horiz-adv-x="1498" 
d="M130 0v1480h1272v-350h-802v-780h812v-350h-1282zM358 580v350h938v-350h-938zM788 -464q-144 0 -206 50.5t-62 129.5q0 80 62 130t206 50t206 -50t62 -130q0 -79 -62 -129.5t-206 -50.5zM264 1586l332 316h384l332 -316h-364l-198 192h76l-198 -192h-364z" />
    <glyph glyph-name="uni1EC7.sc" unicode="&#x1ec7;" horiz-adv-x="1366" 
d="M132 0v1190h1138v-314h-680v-562h688v-314h-1146zM358 446v314h820v-314h-820zM720 -464q-144 0 -206 50.5t-62 129.5q0 80 62 130t206 50t206 -50t62 -130q0 -79 -62 -129.5t-206 -50.5zM196 1296l332 316h384l332 -316h-364l-198 192h76l-198 -192h-364z" />
    <glyph glyph-name="uni1EC8" unicode="&#x1ec8;" horiz-adv-x="736" 
d="M130 0v1480h476v-1480h-476zM260 1586q3 46 41 71t77 42q27 13 46.5 24t19.5 27q0 15 -29.5 21.5t-86.5 6.5q-46 0 -95 -4t-111 -16v150q51 11 118 16.5t122 5.5q159 0 232.5 -38.5t73.5 -109.5q0 -56 -42 -87.5t-83 -54.5q-26 -13 -45.5 -26t-21.5 -28h-216z" />
    <glyph glyph-name="uni1EC9.sc" unicode="&#x1ec9;" horiz-adv-x="736" 
d="M132 0v1190h472v-1190h-472zM260 1296q3 46 41 71t77 42q27 13 46.5 24t19.5 27q0 15 -29.5 21.5t-86.5 6.5q-46 0 -95 -4t-111 -16v150q51 11 118 16.5t122 5.5q159 0 232.5 -38.5t73.5 -109.5q0 -56 -42 -87.5t-83 -54.5q-26 -13 -45.5 -26t-21.5 -28h-216z" />
    <glyph glyph-name="uni1ECA" unicode="&#x1eca;" horiz-adv-x="736" 
d="M130 0v1480h476v-1480h-476zM366 -464q-144 0 -206 50.5t-62 129.5q0 80 62 130t206 50t206 -50t62 -130q0 -79 -62 -129.5t-206 -50.5z" />
    <glyph glyph-name="uni1ECB.sc" unicode="&#x1ecb;" horiz-adv-x="736" 
d="M132 0v1190h472v-1190h-472zM366 -464q-144 0 -206 50.5t-62 129.5q0 80 62 130t206 50t206 -50t62 -130q0 -79 -62 -129.5t-206 -50.5z" />
    <glyph glyph-name="uni1ECC" unicode="&#x1ecc;" horiz-adv-x="1892" 
d="M946 -20q-267 0 -460 92t-297.5 262.5t-104.5 405.5t104 405.5t297 262.5t461 92t461 -93t297 -263.5t104 -403.5t-104 -403.5t-297.5 -263.5t-460.5 -93zM946 348q123 0 207.5 44.5t127.5 130.5t43 209q0 131 -44.5 220t-129 134.5t-204.5 45.5t-204.5 -43.5t-129 -129
t-44.5 -211.5q0 -134 43.5 -223t127.5 -133t207 -44zM946 -464q-144 0 -206 50.5t-62 129.5q0 80 62 130t206 50t206 -50t62 -130q0 -79 -62 -129.5t-206 -50.5z" />
    <glyph glyph-name="uni1ECD.sc" unicode="&#x1ecd;" horiz-adv-x="1670" 
d="M834 -16q-240 0 -412.5 76t-265 213.5t-92.5 320.5t92 321t264.5 214.5t413.5 76.5t414 -77t265.5 -215t92.5 -320q0 -181 -92.5 -318.5t-265.5 -214.5t-414 -77zM834 326q98 0 163 32t97 91t32 139q0 87 -33.5 149t-98.5 94.5t-160 32.5q-94 0 -158.5 -31t-98 -89.5
t-33.5 -141.5q0 -90 32 -151.5t96.5 -93t161.5 -31.5zM834 -464q-144 0 -206 50.5t-62 129.5q0 80 62 130t206 50t206 -50t62 -130q0 -79 -62 -129.5t-206 -50.5z" />
    <glyph glyph-name="uni1ECE" unicode="&#x1ece;" horiz-adv-x="1892" 
d="M946 -20q-267 0 -460 92t-297.5 262.5t-104.5 405.5t104 405.5t297 262.5t461 92t461 -93t297 -263.5t104 -403.5t-104 -403.5t-297.5 -263.5t-460.5 -93zM946 348q123 0 207.5 44.5t127.5 130.5t43 209q0 131 -44.5 220t-129 134.5t-204.5 45.5t-204.5 -43.5t-129 -129
t-44.5 -211.5q0 -134 43.5 -223t127.5 -133t207 -44zM838 1586q3 46 41 71t77 42q27 13 46.5 24t19.5 27q0 15 -29.5 21.5t-86.5 6.5q-46 0 -95 -4t-111 -16v150q51 11 118 16.5t122 5.5q159 0 232.5 -38.5t73.5 -109.5q0 -56 -42 -87.5t-83 -54.5q-26 -13 -45.5 -26
t-21.5 -28h-216z" />
    <glyph glyph-name="uni1ECF.sc" unicode="&#x1ecf;" horiz-adv-x="1670" 
d="M834 -16q-240 0 -412.5 76t-265 213.5t-92.5 320.5t92 321t264.5 214.5t413.5 76.5t414 -77t265.5 -215t92.5 -320q0 -181 -92.5 -318.5t-265.5 -214.5t-414 -77zM834 326q98 0 163 32t97 91t32 139q0 87 -33.5 149t-98.5 94.5t-160 32.5q-94 0 -158.5 -31t-98 -89.5
t-33.5 -141.5q0 -90 32 -151.5t96.5 -93t161.5 -31.5zM726 1296q3 46 41 71t77 42q27 13 46.5 24t19.5 27q0 15 -29.5 21.5t-86.5 6.5q-46 0 -95 -4t-111 -16v150q51 11 118 16.5t122 5.5q159 0 232.5 -38.5t73.5 -109.5q0 -56 -42 -87.5t-83 -54.5q-26 -13 -45.5 -26
t-21.5 -28h-216z" />
    <glyph glyph-name="uni1ED0" unicode="&#x1ed0;" horiz-adv-x="1892" 
d="M946 -20q-267 0 -460 92t-297.5 262.5t-104.5 405.5t104 405.5t297 262.5t461 92t461 -93t297 -263.5t104 -403.5t-104 -403.5t-297.5 -263.5t-460.5 -93zM946 348q123 0 207.5 44.5t127.5 130.5t43 209q0 131 -44.5 220t-129 134.5t-204.5 45.5t-204.5 -43.5t-129 -129
t-44.5 -211.5q0 -134 43.5 -223t127.5 -133t207 -44zM422 1586l332 272h384l332 -272h-364l-198 166h76l-198 -166h-364zM1234 1828l106 236h316l-162 -236h-260z" />
    <glyph glyph-name="uni1ED1.sc" unicode="&#x1ed1;" horiz-adv-x="1670" 
d="M834 -16q-240 0 -412.5 76t-265 213.5t-92.5 320.5t92 321t264.5 214.5t413.5 76.5t414 -77t265.5 -215t92.5 -320q0 -181 -92.5 -318.5t-265.5 -214.5t-414 -77zM834 326q98 0 163 32t97 91t32 139q0 87 -33.5 149t-98.5 94.5t-160 32.5q-94 0 -158.5 -31t-98 -89.5
t-33.5 -141.5q0 -90 32 -151.5t96.5 -93t161.5 -31.5zM310 1296l332 272h384l332 -272h-364l-198 166h76l-198 -166h-364zM1122 1538l106 236h316l-162 -236h-260z" />
    <glyph glyph-name="uni1ED2" unicode="&#x1ed2;" horiz-adv-x="1892" 
d="M946 -20q-267 0 -460 92t-297.5 262.5t-104.5 405.5t104 405.5t297 262.5t461 92t461 -93t297 -263.5t104 -403.5t-104 -403.5t-297.5 -263.5t-460.5 -93zM946 348q123 0 207.5 44.5t127.5 130.5t43 209q0 131 -44.5 220t-129 134.5t-204.5 45.5t-204.5 -43.5t-129 -129
t-44.5 -211.5q0 -134 43.5 -223t127.5 -133t207 -44zM422 1586l332 272h384l332 -272h-364l-198 166h76l-198 -166h-364zM1274 1828l-162 236h316l106 -236h-260z" />
    <glyph glyph-name="uni1ED3.sc" unicode="&#x1ed3;" horiz-adv-x="1670" 
d="M834 -16q-240 0 -412.5 76t-265 213.5t-92.5 320.5t92 321t264.5 214.5t413.5 76.5t414 -77t265.5 -215t92.5 -320q0 -181 -92.5 -318.5t-265.5 -214.5t-414 -77zM834 326q98 0 163 32t97 91t32 139q0 87 -33.5 149t-98.5 94.5t-160 32.5q-94 0 -158.5 -31t-98 -89.5
t-33.5 -141.5q0 -90 32 -151.5t96.5 -93t161.5 -31.5zM310 1296l332 272h384l332 -272h-364l-198 166h76l-198 -166h-364zM1162 1538l-162 236h316l106 -236h-260z" />
    <glyph glyph-name="uni1ED4" unicode="&#x1ed4;" horiz-adv-x="1892" 
d="M946 -20q-267 0 -460 92t-297.5 262.5t-104.5 405.5t104 405.5t297 262.5t461 92t461 -93t297 -263.5t104 -403.5t-104 -403.5t-297.5 -263.5t-460.5 -93zM946 348q123 0 207.5 44.5t127.5 130.5t43 209q0 131 -44.5 220t-129 134.5t-204.5 45.5t-204.5 -43.5t-129 -129
t-44.5 -211.5q0 -134 43.5 -223t127.5 -133t207 -44zM422 1586l332 272h384l332 -272h-364l-198 166h76l-198 -166h-364zM1232 1828q2 34 30 54.5t64 34t63 25.5t27 28q0 12 -29.5 18t-86.5 6q-46 0 -95 -3.5t-111 -14.5v128q51 9 118 14.5t122 5.5q159 0 232.5 -33
t73.5 -95q0 -39 -28 -64t-65 -42.5t-66.5 -31t-32.5 -30.5h-216z" />
    <glyph glyph-name="uni1ED5.sc" unicode="&#x1ed5;" horiz-adv-x="1670" 
d="M834 -16q-240 0 -412.5 76t-265 213.5t-92.5 320.5t92 321t264.5 214.5t413.5 76.5t414 -77t265.5 -215t92.5 -320q0 -181 -92.5 -318.5t-265.5 -214.5t-414 -77zM834 326q98 0 163 32t97 91t32 139q0 87 -33.5 149t-98.5 94.5t-160 32.5q-94 0 -158.5 -31t-98 -89.5
t-33.5 -141.5q0 -90 32 -151.5t96.5 -93t161.5 -31.5zM310 1296l332 272h384l332 -272h-364l-198 166h76l-198 -166h-364zM1120 1538q2 34 30 54.5t64 34t63 25.5t27 28q0 12 -29.5 18t-86.5 6q-46 0 -95 -3.5t-111 -14.5v128q51 9 118 14.5t122 5.5q159 0 232.5 -33
t73.5 -95q0 -39 -28 -64t-65 -42.5t-66.5 -31t-32.5 -30.5h-216z" />
    <glyph glyph-name="uni1ED6" unicode="&#x1ed6;" horiz-adv-x="1892" 
d="M946 -20q-267 0 -460 92t-297.5 262.5t-104.5 405.5t104 405.5t297 262.5t461 92t461 -93t297 -263.5t104 -403.5t-104 -403.5t-297.5 -263.5t-460.5 -93zM946 348q123 0 207.5 44.5t127.5 130.5t43 209q0 131 -44.5 220t-129 134.5t-204.5 45.5t-204.5 -43.5t-129 -129
t-44.5 -211.5q0 -134 43.5 -223t127.5 -133t207 -44zM422 1586l332 272h384l332 -272h-364l-198 166h76l-198 -166h-364zM1176 1900q-92 0 -169.5 14t-149 28t-145.5 14q-70 0 -134 -14t-156 -52v170q83 41 150.5 52.5t143.5 11.5q92 0 169.5 -14.5t149 -29t145.5 -14.5
q71 0 135 14.5t155 51.5v-170q-82 -40 -149.5 -51t-144.5 -11z" />
    <glyph glyph-name="uni1ED7.sc" unicode="&#x1ed7;" horiz-adv-x="1670" 
d="M834 -16q-240 0 -412.5 76t-265 213.5t-92.5 320.5t92 321t264.5 214.5t413.5 76.5t414 -77t265.5 -215t92.5 -320q0 -181 -92.5 -318.5t-265.5 -214.5t-414 -77zM834 326q98 0 163 32t97 91t32 139q0 87 -33.5 149t-98.5 94.5t-160 32.5q-94 0 -158.5 -31t-98 -89.5
t-33.5 -141.5q0 -90 32 -151.5t96.5 -93t161.5 -31.5zM310 1296l332 272h384l332 -272h-364l-198 166h76l-198 -166h-364zM1064 1610q-92 0 -169.5 14t-149 28t-145.5 14q-70 0 -134 -14t-156 -52v170q83 41 150.5 52.5t143.5 11.5q92 0 169.5 -14.5t149 -29t145.5 -14.5
q71 0 135 14.5t155 51.5v-170q-82 -40 -149.5 -51t-144.5 -11z" />
    <glyph glyph-name="uni1ED8" unicode="&#x1ed8;" horiz-adv-x="1892" 
d="M946 -20q-267 0 -460 92t-297.5 262.5t-104.5 405.5t104 405.5t297 262.5t461 92t461 -93t297 -263.5t104 -403.5t-104 -403.5t-297.5 -263.5t-460.5 -93zM946 348q123 0 207.5 44.5t127.5 130.5t43 209q0 131 -44.5 220t-129 134.5t-204.5 45.5t-204.5 -43.5t-129 -129
t-44.5 -211.5q0 -134 43.5 -223t127.5 -133t207 -44zM946 -464q-144 0 -206 50.5t-62 129.5q0 80 62 130t206 50t206 -50t62 -130q0 -79 -62 -129.5t-206 -50.5zM422 1586l332 316h384l332 -316h-364l-198 192h76l-198 -192h-364z" />
    <glyph glyph-name="uni1ED9.sc" unicode="&#x1ed9;" horiz-adv-x="1670" 
d="M834 -16q-240 0 -412.5 76t-265 213.5t-92.5 320.5t92 321t264.5 214.5t413.5 76.5t414 -77t265.5 -215t92.5 -320q0 -181 -92.5 -318.5t-265.5 -214.5t-414 -77zM834 326q98 0 163 32t97 91t32 139q0 87 -33.5 149t-98.5 94.5t-160 32.5q-94 0 -158.5 -31t-98 -89.5
t-33.5 -141.5q0 -90 32 -151.5t96.5 -93t161.5 -31.5zM834 -464q-144 0 -206 50.5t-62 129.5q0 80 62 130t206 50t206 -50t62 -130q0 -79 -62 -129.5t-206 -50.5zM310 1296l332 316h384l332 -316h-364l-198 192h76l-198 -192h-364z" />
    <glyph glyph-name="uni1EDA" unicode="&#x1eda;" horiz-adv-x="1892" 
d="M946 -20q-267 0 -460 92t-297.5 262.5t-104.5 405.5t104 405.5t297 262.5t461 92q58 0 124 -5t129 -10t111 -5q111 0 164.5 34t53.5 122q0 27 -2 59t-10 81h290q12 -48 15 -84t3 -68q0 -115 -43.5 -191t-123 -113.5t-187.5 -37.5v88q164 -93 251 -255t87 -375
q0 -233 -104 -403.5t-297.5 -263.5t-460.5 -93zM946 348q123 0 207.5 44.5t127.5 130.5t43 209q0 131 -44.5 220t-129 134.5t-204.5 45.5t-204.5 -43.5t-129 -129t-44.5 -211.5q0 -134 43.5 -223t127.5 -133t207 -44zM732 1586l204 316h488l-272 -316h-420z" />
    <glyph glyph-name="uni1EDB.sc" unicode="&#x1edb;" horiz-adv-x="1670" 
d="M834 -16q-240 0 -412.5 76t-265 213.5t-92.5 320.5t92 321t264.5 214.5t413.5 76.5q49 0 108 -3.5t113.5 -7t90.5 -3.5q96 0 141 26t45 98q0 20 -1 45t-7 67h284q9 -40 11.5 -70t2.5 -54q0 -148 -85.5 -220t-226.5 -72l2 82q143 -78 218.5 -207t75.5 -293
q0 -181 -92.5 -318.5t-265.5 -214.5t-414 -77zM834 326q98 0 163 32t97 91t32 139q0 87 -33.5 149t-98.5 94.5t-160 32.5q-94 0 -158.5 -31t-98 -89.5t-33.5 -141.5q0 -90 32 -151.5t96.5 -93t161.5 -31.5zM620 1296l204 316h488l-272 -316h-420z" />
    <glyph glyph-name="uni1EDC" unicode="&#x1edc;" horiz-adv-x="1892" 
d="M946 -20q-267 0 -460 92t-297.5 262.5t-104.5 405.5t104 405.5t297 262.5t461 92q58 0 124 -5t129 -10t111 -5q111 0 164.5 34t53.5 122q0 27 -2 59t-10 81h290q12 -48 15 -84t3 -68q0 -115 -43.5 -191t-123 -113.5t-187.5 -37.5v88q164 -93 251 -255t87 -375
q0 -233 -104 -403.5t-297.5 -263.5t-460.5 -93zM946 348q123 0 207.5 44.5t127.5 130.5t43 209q0 131 -44.5 220t-129 134.5t-204.5 45.5t-204.5 -43.5t-129 -129t-44.5 -211.5q0 -134 43.5 -223t127.5 -133t207 -44zM736 1586l-272 316h488l204 -316h-420z" />
    <glyph glyph-name="uni1EDD.sc" unicode="&#x1edd;" horiz-adv-x="1670" 
d="M834 -16q-240 0 -412.5 76t-265 213.5t-92.5 320.5t92 321t264.5 214.5t413.5 76.5q49 0 108 -3.5t113.5 -7t90.5 -3.5q96 0 141 26t45 98q0 20 -1 45t-7 67h284q9 -40 11.5 -70t2.5 -54q0 -148 -85.5 -220t-226.5 -72l2 82q143 -78 218.5 -207t75.5 -293
q0 -181 -92.5 -318.5t-265.5 -214.5t-414 -77zM834 326q98 0 163 32t97 91t32 139q0 87 -33.5 149t-98.5 94.5t-160 32.5q-94 0 -158.5 -31t-98 -89.5t-33.5 -141.5q0 -90 32 -151.5t96.5 -93t161.5 -31.5zM624 1296l-272 316h488l204 -316h-420z" />
    <glyph glyph-name="uni1EDE" unicode="&#x1ede;" horiz-adv-x="1892" 
d="M946 -20q-267 0 -460 92t-297.5 262.5t-104.5 405.5t104 405.5t297 262.5t461 92q58 0 124 -5t129 -10t111 -5q111 0 164.5 34t53.5 122q0 27 -2 59t-10 81h290q12 -48 15 -84t3 -68q0 -115 -43.5 -191t-123 -113.5t-187.5 -37.5v88q164 -93 251 -255t87 -375
q0 -233 -104 -403.5t-297.5 -263.5t-460.5 -93zM946 348q123 0 207.5 44.5t127.5 130.5t43 209q0 131 -44.5 220t-129 134.5t-204.5 45.5t-204.5 -43.5t-129 -129t-44.5 -211.5q0 -134 43.5 -223t127.5 -133t207 -44zM838 1586q3 46 41 71t77 42q27 13 46.5 24t19.5 27
q0 15 -29.5 21.5t-86.5 6.5q-46 0 -95 -4t-111 -16v150q51 11 118 16.5t122 5.5q159 0 232.5 -38.5t73.5 -109.5q0 -56 -42 -87.5t-83 -54.5q-26 -13 -45.5 -26t-21.5 -28h-216z" />
    <glyph glyph-name="uni1EDF.sc" unicode="&#x1edf;" horiz-adv-x="1670" 
d="M834 -16q-240 0 -412.5 76t-265 213.5t-92.5 320.5t92 321t264.5 214.5t413.5 76.5q49 0 108 -3.5t113.5 -7t90.5 -3.5q96 0 141 26t45 98q0 20 -1 45t-7 67h284q9 -40 11.5 -70t2.5 -54q0 -148 -85.5 -220t-226.5 -72l2 82q143 -78 218.5 -207t75.5 -293
q0 -181 -92.5 -318.5t-265.5 -214.5t-414 -77zM834 326q98 0 163 32t97 91t32 139q0 87 -33.5 149t-98.5 94.5t-160 32.5q-94 0 -158.5 -31t-98 -89.5t-33.5 -141.5q0 -90 32 -151.5t96.5 -93t161.5 -31.5zM726 1296q3 46 41 71t77 42q27 13 46.5 24t19.5 27
q0 15 -29.5 21.5t-86.5 6.5q-46 0 -95 -4t-111 -16v150q51 11 118 16.5t122 5.5q159 0 232.5 -38.5t73.5 -109.5q0 -56 -42 -87.5t-83 -54.5q-26 -13 -45.5 -26t-21.5 -28h-216z" />
    <glyph glyph-name="uni1EE0" unicode="&#x1ee0;" horiz-adv-x="1892" 
d="M946 -20q-267 0 -460 92t-297.5 262.5t-104.5 405.5t104 405.5t297 262.5t461 92q58 0 124 -5t129 -10t111 -5q111 0 164.5 34t53.5 122q0 27 -2 59t-10 81h290q12 -48 15 -84t3 -68q0 -115 -43.5 -191t-123 -113.5t-187.5 -37.5v88q164 -93 251 -255t87 -375
q0 -233 -104 -403.5t-297.5 -263.5t-460.5 -93zM946 348q123 0 207.5 44.5t127.5 130.5t43 209q0 131 -44.5 220t-129 134.5t-204.5 45.5t-204.5 -43.5t-129 -129t-44.5 -211.5q0 -134 43.5 -223t127.5 -133t207 -44zM1144 1586q-80 0 -145.5 18t-128 36t-134.5 18
q-70 0 -123.5 -15.5t-110.5 -48.5v232q50 39 107.5 57.5t138.5 18.5q80 0 145.5 -18.5t128 -37t134.5 -18.5q71 0 124 15.5t110 48.5v-232q-49 -39 -107 -56.5t-139 -17.5z" />
    <glyph glyph-name="uni1EE1.sc" unicode="&#x1ee1;" horiz-adv-x="1670" 
d="M834 -16q-240 0 -412.5 76t-265 213.5t-92.5 320.5t92 321t264.5 214.5t413.5 76.5q49 0 108 -3.5t113.5 -7t90.5 -3.5q96 0 141 26t45 98q0 20 -1 45t-7 67h284q9 -40 11.5 -70t2.5 -54q0 -148 -85.5 -220t-226.5 -72l2 82q143 -78 218.5 -207t75.5 -293
q0 -181 -92.5 -318.5t-265.5 -214.5t-414 -77zM834 326q98 0 163 32t97 91t32 139q0 87 -33.5 149t-98.5 94.5t-160 32.5q-94 0 -158.5 -31t-98 -89.5t-33.5 -141.5q0 -90 32 -151.5t96.5 -93t161.5 -31.5zM1032 1296q-80 0 -145.5 18t-128 36t-134.5 18q-70 0 -123.5 -15.5
t-110.5 -48.5v232q50 39 107.5 57.5t138.5 18.5q80 0 145.5 -18.5t128 -37t134.5 -18.5q71 0 124 15.5t110 48.5v-232q-49 -39 -107 -56.5t-139 -17.5z" />
    <glyph glyph-name="uni1EE2" unicode="&#x1ee2;" horiz-adv-x="1892" 
d="M946 -20q-267 0 -460 92t-297.5 262.5t-104.5 405.5t104 405.5t297 262.5t461 92q58 0 124 -5t129 -10t111 -5q111 0 164.5 34t53.5 122q0 27 -2 59t-10 81h290q12 -48 15 -84t3 -68q0 -115 -43.5 -191t-123 -113.5t-187.5 -37.5v88q164 -93 251 -255t87 -375
q0 -233 -104 -403.5t-297.5 -263.5t-460.5 -93zM946 348q123 0 207.5 44.5t127.5 130.5t43 209q0 131 -44.5 220t-129 134.5t-204.5 45.5t-204.5 -43.5t-129 -129t-44.5 -211.5q0 -134 43.5 -223t127.5 -133t207 -44zM946 -464q-144 0 -206 50.5t-62 129.5q0 80 62 130
t206 50t206 -50t62 -130q0 -79 -62 -129.5t-206 -50.5z" />
    <glyph glyph-name="uni1EE3.sc" unicode="&#x1ee3;" horiz-adv-x="1670" 
d="M834 -16q-240 0 -412.5 76t-265 213.5t-92.5 320.5t92 321t264.5 214.5t413.5 76.5q49 0 108 -3.5t113.5 -7t90.5 -3.5q96 0 141 26t45 98q0 20 -1 45t-7 67h284q9 -40 11.5 -70t2.5 -54q0 -148 -85.5 -220t-226.5 -72l2 82q143 -78 218.5 -207t75.5 -293
q0 -181 -92.5 -318.5t-265.5 -214.5t-414 -77zM834 326q98 0 163 32t97 91t32 139q0 87 -33.5 149t-98.5 94.5t-160 32.5q-94 0 -158.5 -31t-98 -89.5t-33.5 -141.5q0 -90 32 -151.5t96.5 -93t161.5 -31.5zM834 -464q-144 0 -206 50.5t-62 129.5q0 80 62 130t206 50t206 -50
t62 -130q0 -79 -62 -129.5t-206 -50.5z" />
    <glyph glyph-name="uni1EE4" unicode="&#x1ee4;" horiz-adv-x="1756" 
d="M882 -20q-271 0 -438 85t-243.5 245t-76.5 384v786h476v-824q0 -154 70.5 -227t211.5 -73t211.5 73t70.5 227v824h468v-786q0 -224 -76.5 -384t-242 -245t-431.5 -85zM882 -464q-144 0 -206 50.5t-62 129.5q0 80 62 130t206 50t206 -50t62 -130q0 -79 -62 -129.5
t-206 -50.5z" />
    <glyph glyph-name="uni1EE5.sc" unicode="&#x1ee5;" horiz-adv-x="1602" 
d="M806 -16q-243 0 -392 72.5t-217.5 205.5t-68.5 316v612h472v-638q0 -109 52 -162.5t154 -53.5t154 53.5t52 162.5v638h464v-612q0 -183 -68.5 -316t-216.5 -205.5t-385 -72.5zM806 -464q-144 0 -206 50.5t-62 129.5q0 80 62 130t206 50t206 -50t62 -130q0 -79 -62 -129.5
t-206 -50.5z" />
    <glyph glyph-name="uni1EE6" unicode="&#x1ee6;" horiz-adv-x="1756" 
d="M882 -20q-271 0 -438 85t-243.5 245t-76.5 384v786h476v-824q0 -154 70.5 -227t211.5 -73t211.5 73t70.5 227v824h468v-786q0 -224 -76.5 -384t-242 -245t-431.5 -85zM774 1586q3 46 41 71t77 42q27 13 46.5 24t19.5 27q0 15 -29.5 21.5t-86.5 6.5q-46 0 -95 -4t-111 -16
v150q51 11 118 16.5t122 5.5q159 0 232.5 -38.5t73.5 -109.5q0 -56 -42 -87.5t-83 -54.5q-26 -13 -45.5 -26t-21.5 -28h-216z" />
    <glyph glyph-name="uni1EE7.sc" unicode="&#x1ee7;" horiz-adv-x="1602" 
d="M806 -16q-243 0 -392 72.5t-217.5 205.5t-68.5 316v612h472v-638q0 -109 52 -162.5t154 -53.5t154 53.5t52 162.5v638h464v-612q0 -183 -68.5 -316t-216.5 -205.5t-385 -72.5zM698 1296q3 46 41 71t77 42q27 13 46.5 24t19.5 27q0 15 -29.5 21.5t-86.5 6.5q-46 0 -95 -4
t-111 -16v150q51 11 118 16.5t122 5.5q159 0 232.5 -38.5t73.5 -109.5q0 -56 -42 -87.5t-83 -54.5q-26 -13 -45.5 -26t-21.5 -28h-216z" />
    <glyph glyph-name="uni1EE8" unicode="&#x1ee8;" horiz-adv-x="1756" 
d="M882 -20q-271 0 -438 85t-243.5 245t-76.5 384v786h476v-824q0 -154 70.5 -227t211.5 -73t211.5 73t70.5 227v824h136q111 0 164.5 34t53.5 122q0 27 -2 59t-10 81h290q12 -48 15 -84t3 -68q0 -120 -48 -198t-134 -114v-618q0 -224 -76.5 -384t-242 -245t-431.5 -85z
M664 1586l204 316h488l-272 -316h-420z" />
    <glyph glyph-name="uni1EE9.sc" unicode="&#x1ee9;" horiz-adv-x="1602" 
d="M806 -16q-243 0 -392 72.5t-217.5 205.5t-68.5 316v612h472v-638q0 -109 52 -162.5t154 -53.5t154 53.5t52 162.5v638h132q96 0 141 27t45 99q0 20 -1 45t-7 67h284q9 -40 11.5 -70t2.5 -54q0 -100 -38 -165.5t-106 -100.5v-460q0 -183 -68.5 -316t-216.5 -205.5
t-385 -72.5zM588 1296l204 316h488l-272 -316h-420z" />
    <glyph glyph-name="uni1EEA" unicode="&#x1eea;" horiz-adv-x="1756" 
d="M882 -20q-271 0 -438 85t-243.5 245t-76.5 384v786h476v-824q0 -154 70.5 -227t211.5 -73t211.5 73t70.5 227v824h136q111 0 164.5 34t53.5 122q0 27 -2 59t-10 81h290q12 -48 15 -84t3 -68q0 -120 -48 -198t-134 -114v-618q0 -224 -76.5 -384t-242 -245t-431.5 -85z
M668 1586l-272 316h488l204 -316h-420z" />
    <glyph glyph-name="uni1EEB.sc" unicode="&#x1eeb;" horiz-adv-x="1602" 
d="M806 -16q-243 0 -392 72.5t-217.5 205.5t-68.5 316v612h472v-638q0 -109 52 -162.5t154 -53.5t154 53.5t52 162.5v638h132q96 0 141 27t45 99q0 20 -1 45t-7 67h284q9 -40 11.5 -70t2.5 -54q0 -100 -38 -165.5t-106 -100.5v-460q0 -183 -68.5 -316t-216.5 -205.5
t-385 -72.5zM592 1296l-272 316h488l204 -316h-420z" />
    <glyph glyph-name="uni1EEC" unicode="&#x1eec;" horiz-adv-x="1756" 
d="M882 -20q-271 0 -438 85t-243.5 245t-76.5 384v786h476v-824q0 -154 70.5 -227t211.5 -73t211.5 73t70.5 227v824h136q111 0 164.5 34t53.5 122q0 27 -2 59t-10 81h290q12 -48 15 -84t3 -68q0 -120 -48 -198t-134 -114v-618q0 -224 -76.5 -384t-242 -245t-431.5 -85z
M770 1586q3 46 41 71t77 42q27 13 46.5 24t19.5 27q0 15 -29.5 21.5t-86.5 6.5q-46 0 -95 -4t-111 -16v150q51 11 118 16.5t122 5.5q159 0 232.5 -38.5t73.5 -109.5q0 -56 -42 -87.5t-83 -54.5q-26 -13 -45.5 -26t-21.5 -28h-216z" />
    <glyph glyph-name="uni1EED.sc" unicode="&#x1eed;" horiz-adv-x="1602" 
d="M806 -16q-243 0 -392 72.5t-217.5 205.5t-68.5 316v612h472v-638q0 -109 52 -162.5t154 -53.5t154 53.5t52 162.5v638h132q96 0 141 27t45 99q0 20 -1 45t-7 67h284q9 -40 11.5 -70t2.5 -54q0 -100 -38 -165.5t-106 -100.5v-460q0 -183 -68.5 -316t-216.5 -205.5
t-385 -72.5zM694 1296q3 46 41 71t77 42q27 13 46.5 24t19.5 27q0 15 -29.5 21.5t-86.5 6.5q-46 0 -95 -4t-111 -16v150q51 11 118 16.5t122 5.5q159 0 232.5 -38.5t73.5 -109.5q0 -56 -42 -87.5t-83 -54.5q-26 -13 -45.5 -26t-21.5 -28h-216z" />
    <glyph glyph-name="uni1EEE" unicode="&#x1eee;" horiz-adv-x="1756" 
d="M882 -20q-271 0 -438 85t-243.5 245t-76.5 384v786h476v-824q0 -154 70.5 -227t211.5 -73t211.5 73t70.5 227v824h136q111 0 164.5 34t53.5 122q0 27 -2 59t-10 81h290q12 -48 15 -84t3 -68q0 -120 -48 -198t-134 -114v-618q0 -224 -76.5 -384t-242 -245t-431.5 -85z
M1076 1586q-61 0 -113 12t-102 25q-46 14 -93 24.5t-100 10.5q-70 0 -123.5 -15.5t-110.5 -48.5v232q50 39 107.5 57.5t138.5 18.5q62 0 114 -12t101 -26q47 -13 94 -24.5t99 -11.5q71 0 124 15.5t110 48.5v-232q-49 -39 -107 -56.5t-139 -17.5z" />
    <glyph glyph-name="uni1EEF.sc" unicode="&#x1eef;" horiz-adv-x="1602" 
d="M806 -16q-243 0 -392 72.5t-217.5 205.5t-68.5 316v612h472v-638q0 -109 52 -162.5t154 -53.5t154 53.5t52 162.5v638h132q96 0 141 27t45 99q0 20 -1 45t-7 67h284q9 -40 11.5 -70t2.5 -54q0 -100 -38 -165.5t-106 -100.5v-460q0 -183 -68.5 -316t-216.5 -205.5
t-385 -72.5zM1000 1296q-80 0 -145.5 18t-128 36t-134.5 18q-70 0 -123.5 -15.5t-110.5 -48.5v232q50 39 107.5 57.5t138.5 18.5q80 0 145.5 -18.5t128 -37t134.5 -18.5q71 0 124 15.5t110 48.5v-232q-49 -39 -107 -56.5t-139 -17.5z" />
    <glyph glyph-name="uni1EF0" unicode="&#x1ef0;" horiz-adv-x="1756" 
d="M882 -20q-271 0 -438 85t-243.5 245t-76.5 384v786h476v-824q0 -154 70.5 -227t211.5 -73t211.5 73t70.5 227v824h136q111 0 164.5 34t53.5 122q0 27 -2 59t-10 81h290q12 -48 15 -84t3 -68q0 -120 -48 -198t-134 -114v-618q0 -224 -76.5 -384t-242 -245t-431.5 -85z
M878 -464q-144 0 -206 50.5t-62 129.5q0 80 62 130t206 50t206 -50t62 -130q0 -79 -62 -129.5t-206 -50.5z" />
    <glyph glyph-name="uni1EF1.sc" unicode="&#x1ef1;" horiz-adv-x="1602" 
d="M806 -16q-243 0 -392 72.5t-217.5 205.5t-68.5 316v612h472v-638q0 -109 52 -162.5t154 -53.5t154 53.5t52 162.5v638h132q96 0 141 27t45 99q0 20 -1 45t-7 67h284q9 -40 11.5 -70t2.5 -54q0 -100 -38 -165.5t-106 -100.5v-460q0 -183 -68.5 -316t-216.5 -205.5
t-385 -72.5zM802 -464q-144 0 -206 50.5t-62 129.5q0 80 62 130t206 50t206 -50t62 -130q0 -79 -62 -129.5t-206 -50.5z" />
    <glyph glyph-name="Ygrave" unicode="&#x1ef2;" horiz-adv-x="1532" 
d="M532 0v782l92 -316l-684 1014h502l402 -608h-132l392 608h468l-656 -1014l92 310v-776h-476zM554 1586l-272 316h488l204 -316h-420z" />
    <glyph glyph-name="ygrave.sc" unicode="&#x1ef3;" horiz-adv-x="1360" 
d="M448 0v640l90 -296l-594 846h492l320 -464h-132l312 464h460l-566 -846l90 292v-636h-472zM468 1296l-272 316h488l204 -316h-420z" />
    <glyph glyph-name="uni1EF4" unicode="&#x1ef4;" horiz-adv-x="1532" 
d="M532 0v782l92 -316l-684 1014h502l402 -608h-132l392 608h468l-656 -1014l92 310v-776h-476zM764 -464q-144 0 -206 50.5t-62 129.5q0 80 62 130t206 50t206 -50t62 -130q0 -79 -62 -129.5t-206 -50.5z" />
    <glyph glyph-name="uni1EF5.sc" unicode="&#x1ef5;" horiz-adv-x="1360" 
d="M448 0v640l90 -296l-594 846h492l320 -464h-132l312 464h460l-566 -846l90 292v-636h-472zM678 -464q-144 0 -206 50.5t-62 129.5q0 80 62 130t206 50t206 -50t62 -130q0 -79 -62 -129.5t-206 -50.5z" />
    <glyph glyph-name="uni1EF6" unicode="&#x1ef6;" horiz-adv-x="1532" 
d="M532 0v782l92 -316l-684 1014h502l402 -608h-132l392 608h468l-656 -1014l92 310v-776h-476zM656 1586q3 46 41 71t77 42q27 13 46.5 24t19.5 27q0 15 -29.5 21.5t-86.5 6.5q-46 0 -95 -4t-111 -16v150q51 11 118 16.5t122 5.5q159 0 232.5 -38.5t73.5 -109.5
q0 -56 -42 -87.5t-83 -54.5q-26 -13 -45.5 -26t-21.5 -28h-216z" />
    <glyph glyph-name="uni1EF7.sc" unicode="&#x1ef7;" horiz-adv-x="1360" 
d="M448 0v640l90 -296l-594 846h492l320 -464h-132l312 464h460l-566 -846l90 292v-636h-472zM570 1296q3 46 41 71t77 42q27 13 46.5 24t19.5 27q0 15 -29.5 21.5t-86.5 6.5q-46 0 -95 -4t-111 -16v150q51 11 118 16.5t122 5.5q159 0 232.5 -38.5t73.5 -109.5
q0 -56 -42 -87.5t-83 -54.5q-26 -13 -45.5 -26t-21.5 -28h-216z" />
    <glyph glyph-name="uni1EF8" unicode="&#x1ef8;" horiz-adv-x="1532" 
d="M532 0v782l92 -316l-684 1014h502l402 -608h-132l392 608h468l-656 -1014l92 310v-776h-476zM962 1586q-61 0 -113 12t-102 25q-46 14 -93 24.5t-100 10.5q-70 0 -123.5 -15.5t-110.5 -48.5v232q50 39 107.5 57.5t138.5 18.5q62 0 114 -12t101 -26q47 -13 94 -24.5
t99 -11.5q71 0 124 15.5t110 48.5v-232q-49 -39 -107 -56.5t-139 -17.5z" />
    <glyph glyph-name="uni1EF9.sc" unicode="&#x1ef9;" horiz-adv-x="1360" 
d="M448 0v640l90 -296l-594 846h492l320 -464h-132l312 464h460l-566 -846l90 292v-636h-472zM876 1296q-61 0 -113 12t-102 25q-46 14 -93 24.5t-100 10.5q-70 0 -123.5 -15.5t-110.5 -48.5v232q50 39 107.5 57.5t138.5 18.5q62 0 114 -12t101 -26q47 -13 94 -24.5
t99 -11.5q71 0 124 15.5t110 48.5v-232q-49 -39 -107 -56.5t-139 -17.5z" />
    <glyph glyph-name="uni2007" unicode="&#x2007;" horiz-adv-x="1440" 
 />
    <glyph glyph-name="uni2008" unicode="&#x2008;" horiz-adv-x="696" 
 />
    <glyph glyph-name="uni2009" unicode="&#x2009;" horiz-adv-x="400" 
 />
    <glyph glyph-name="uni200A" unicode="&#x200a;" horiz-adv-x="146" 
 />
    <glyph glyph-name="uni200B" unicode="&#x200b;" 
 />
    <glyph glyph-name="uni2010" unicode="&#x2010;" horiz-adv-x="1150" 
d="M114 384v372h922v-372h-922z" />
    <glyph glyph-name="figuredash" unicode="&#x2012;" horiz-adv-x="1440" 
d="M114 410v320h1212v-320h-1212z" />
    <glyph glyph-name="endash" unicode="&#x2013;" horiz-adv-x="1000" 
d="M0 410v320h1000v-320h-1000z" />
    <glyph glyph-name="emdash" unicode="&#x2014;" horiz-adv-x="2000" 
d="M0 410v320h2000v-320h-2000z" />
    <glyph glyph-name="uni2015" unicode="&#x2015;" horiz-adv-x="2000" 
d="M0 410v320h2000v-320h-2000z" />
    <glyph glyph-name="quoteleft" unicode="&#x2018;" horiz-adv-x="696" 
d="M354 764q-144 0 -218 83.5t-74 248.5q0 138 56 276t152 244h258q-63 -115 -97.5 -213t-34.5 -199l-104 72h56q137 0 213.5 -68.5t76.5 -187.5q0 -118 -74.5 -187t-209.5 -69z" />
    <glyph glyph-name="quoteright" unicode="&#x2019;" horiz-adv-x="696" 
d="M168 784q63 116 97.5 214t34.5 198l104 -72h-56q-136 0 -213 69t-77 187q0 119 74.5 187.5t209.5 68.5q144 0 218 -83.5t74 -248.5q0 -138 -56 -275.5t-152 -244.5h-258z" />
    <glyph glyph-name="quotesinglbase" unicode="&#x201a;" horiz-adv-x="696" 
d="M168 -360q63 116 97.5 214t34.5 198l104 -72h-56q-136 0 -213 69t-77 187q0 119 74.5 187.5t209.5 68.5q144 0 218 -83.5t74 -248.5q0 -138 -56 -275.5t-152 -244.5h-258z" />
    <glyph glyph-name="quotedblleft" unicode="&#x201c;" horiz-adv-x="1332" 
d="M354 764q-144 0 -218 83.5t-74 248.5q0 138 56 276t152 244h258q-63 -115 -97.5 -213t-34.5 -199l-104 72h56q137 0 213.5 -68.5t76.5 -187.5q0 -118 -74.5 -187t-209.5 -69zM990 764q-144 0 -218 83.5t-74 248.5q0 138 56 276t152 244h258q-63 -115 -97.5 -213
t-34.5 -199l-104 72h56q137 0 213.5 -68.5t76.5 -187.5q0 -118 -74.5 -187t-209.5 -69z" />
    <glyph glyph-name="quotedblright" unicode="&#x201d;" horiz-adv-x="1332" 
d="M168 784q63 116 97.5 214t34.5 198l104 -72h-56q-136 0 -213 69t-77 187q0 119 74.5 187.5t209.5 68.5q144 0 218 -83.5t74 -248.5q0 -138 -56 -275.5t-152 -244.5h-258zM804 784q63 116 97.5 214t34.5 198l104 -72h-56q-136 0 -213 69t-77 187q0 119 74.5 187.5
t209.5 68.5q144 0 218 -83.5t74 -248.5q0 -138 -56 -275.5t-152 -244.5h-258z" />
    <glyph glyph-name="quotedblbase" unicode="&#x201e;" horiz-adv-x="1332" 
d="M168 -360q63 116 97.5 214t34.5 198l104 -72h-56q-136 0 -213 69t-77 187q0 119 74.5 187.5t209.5 68.5q144 0 218 -83.5t74 -248.5q0 -138 -56 -275.5t-152 -244.5h-258zM804 -360q63 116 97.5 214t34.5 198l104 -72h-56q-136 0 -213 69t-77 187q0 119 74.5 187.5
t209.5 68.5q144 0 218 -83.5t74 -248.5q0 -138 -56 -275.5t-152 -244.5h-258z" />
    <glyph glyph-name="dagger" unicode="&#x2020;" horiz-adv-x="1182" 
d="M478 160l-32 220v572l32 142l-220 -32h-200v284h200l220 -32l-32 142v160h290v-160l-32 -142l220 32h200v-284h-200l-220 32l32 -142v-572l-32 -220h-226z" />
    <glyph glyph-name="daggerdbl" unicode="&#x2021;" horiz-adv-x="1182" 
d="M446 160v160l32 142l-220 -32h-200v284h200l220 -32l-32 142v128l32 142l-220 -32h-200v284h200l220 -32l-32 142v160h290v-160l-32 -142l220 32h200v-284h-200l-220 32l32 -142v-128l-32 -142l220 32h200v-284h-200l-220 32l32 -142v-160h-290z" />
    <glyph glyph-name="bullet" unicode="&#x2022;" horiz-adv-x="836" 
d="M418 200q-101 0 -182.5 46.5t-129.5 128t-48 185.5q0 105 48 186.5t130 127.5t182 46q101 0 182.5 -46t129.5 -127.5t48 -186.5q0 -104 -48 -185.5t-129.5 -128t-182.5 -46.5z" />
    </font>
</defs>
</svg>
